<?xml version="1.0" standalone="no"?>
<!DOCTYPE svg PUBLIC "-//W3C//DTD SVG 1.1//EN" "http://www.w3.org/Graphics/SVG/1.1/DTD/svg11.dtd" >
<svg xmlns="http://www.w3.org/2000/svg" xmlns:xlink="http://www.w3.org/1999/xlink" version="1.1">
<metadata>
Created by FontForge 20170924 at Fri Jul 11 21:23:13 2014
 By www-data
(c)2014 Steve Gardner
</metadata>
<defs>
<font id="Chapaza-Regular" horiz-adv-x="1554" >
  <font-face 
    font-family="Chapaza"
    font-weight="400"
    font-stretch="normal"
    units-per-em="2048"
    panose-1="0 0 5 4 0 0 0 0 0 4"
    ascent="1473"
    descent="-575"
    x-height="1007"
    cap-height="1455"
    bbox="6 -1003.92 2378 2076"
    underline-thickness="109"
    underline-position="-275"
    unicode-range="U+0020-201D"
  />
<missing-glyph horiz-adv-x="1086" 
d="M30 -808v1804h1026v-1804h-1026zM147 -696h795v1577h-795v-1577z" />
    <glyph glyph-name=".notdef" horiz-adv-x="1086" 
d="M30 -808v1804h1026v-1804h-1026zM147 -696h795v1577h-795v-1577z" />
    <glyph glyph-name=".null" horiz-adv-x="60" 
 />
    <glyph glyph-name="nonmarkingreturn" horiz-adv-x="60" 
 />
    <glyph glyph-name="space" unicode=" " horiz-adv-x="750" 
 />
    <glyph glyph-name="a" unicode="a" horiz-adv-x="1086" 
d="M445 1036q-187 -2 -294 -89q-65 -53 -60 -109q6 -39 34 -60q33 -22 66 -14q31 6 53 31q24 25 41 67q33 82 44 92q35 33 116 33q199 0 201 -130q3 -171 -384 -307q-232 -80 -232 -288q0 -129 85 -205q87 -75 216 -80q116 -1 198 45q85 48 124 111q12 -149 214 -149
q107 0 219 75l-16 31q-80 -52 -137 -40q-50 15 -50 108v502q1 134 -41 216q-80 160 -397 160zM646 675v-259q0 -152 -55 -251q-53 -98 -153 -98q-82 -1 -125 62q-41 63 -44 145q-1 83 34 148q35 66 109 101q178 89 234 152z" />
    <glyph glyph-name="b" unicode="b" horiz-adv-x="1137" 
d="M664 -25q195 1 328 149q135 148 135 390q0 248 -123 379q-125 137 -326 137q-163 0 -290 -119v603l-378 -59v-34q139 26 139 -147v-1310h37q21 102 80 131q61 30 126 -21q134 -99 272 -99zM611 953q128 1 201 -122q70 -121 70 -323q1 -204 -79 -337q-81 -135 -202 -129
q-76 6 -145 74q-66 74 -68 186v536q35 44 96 79q63 36 127 36z" />
    <glyph glyph-name="c" unicode="c" horiz-adv-x="989" 
d="M543 1034q-246 0 -380 -157q-132 -152 -133 -386q1 -218 143 -366q138 -147 350 -148q170 0 283 110q119 114 153 314h-32q-83 -318 -309 -327q-145 -4 -238 119q-93 126 -97 300q-2 117 27 227q31 110 96 186q67 79 153 79q79 -1 115 -34q15 -12 37 -88q17 -54 39 -76
q22 -23 54 -31q36 -6 66 12q34 20 38 58q8 60 -61 114q-118 94 -304 94z" />
    <glyph glyph-name="d" unicode="d" horiz-adv-x="1177" 
d="M801 -24l346 84v34q-144 -24 -145 147v1274l-376 -60v-36q138 27 138 -146v-343q-127 96 -292 100q-189 0 -314 -149q-128 -148 -128 -390q0 -241 117 -377q118 -136 314 -136q160 0 303 118q7 -90 37 -120zM541 959q64 0 127 -36q62 -35 96 -79v-536q0 -112 -68 -186
q-69 -68 -145 -74q-120 -6 -202 129q-80 133 -79 337q0 202 70 323q73 123 201 122z" />
    <glyph glyph-name="e" unicode="e" horiz-adv-x="1037" 
d="M528 1036q-220 0 -360 -157q-138 -153 -138 -381q0 -220 138 -368q141 -150 341 -150q181 0 312 113q132 114 173 315h-32q-43 -144 -130 -232t-215 -91q-148 -4 -247 133q-99 138 -86 330h723q-10 222 -136 355q-124 133 -343 133zM523 991q79 3 135 -72q57 -74 75 -161
q20 -86 17 -161h-463q4 59 17 120q13 63 39 125q26 64 72 105q48 42 108 44z" />
    <glyph glyph-name="f" unicode="f" horiz-adv-x="929" 
d="M602 1609q-175 0 -295 -117q-112 -110 -110 -293v-191h-167v-54h167v-710q0 -210 -138 -209v-35h515v35q-138 0 -138 209v710h299v54h-299v363q0 155 116 181q69 12 97 -13q8 -6 52 -87q24 -45 48 -63q26 -19 59 -22q36 0 63 22q28 25 28 63q0 57 -74 103q-86 54 -223 54
z" />
    <glyph glyph-name="g" unicode="g" horiz-adv-x="1229" 
d="M547 993q75 -1 121 -47q84 -88 85 -268q0 -140 -63 -229q-58 -93 -143 -93q-89 0 -148 87q-57 85 -57 223q0 132 54 226q54 102 151 101zM149 -47q52 -32 94 -44q42 -14 124 -14h493q80 0 124 -33q38 -28 40 -74.5t-22 -84.5t-63 -67q-163 -113 -405 -119
q-240 -6 -351 65t-107 195q3 104 73 176zM927 1142q-148 0 -259 -122q-74 14 -114 13q-203 0 -328 -105q-129 -104 -129 -260q0 -86 48 -160q47 -74 122 -121q-183 -93 -211 -228q-8 -39 5.5 -89t57.5 -96q-87 -86 -89 -204q-2 -72 30 -135t104 -102q142 -78 374 -74
q234 4 404 94q219 116 219 305q-2 296 -389 296h-408q-124 0 -145 72q-10 36 14 78q21 42 61 69v-4q106 -54 248 -54q192 1 322 101q136 112 136 262q0 130 -73 214q-65 80 -200 116q31 40 65 47q38 11 65 -4q31 -15 73 -61q29 -32 61 -47q31 -15 69 -7t53.5 40t6.5 66
q-12 50 -81 80q-46 18 -112 20z" />
    <glyph glyph-name="h" unicode="h" horiz-adv-x="1218" 
d="M713 1030q-180 -2 -297 -137v620l-386 -58v-36q144 27 144 -146v-1026q0 -210 -144 -212v-35h526v35q-140 3 -140 212v475q1 90 55 157q58 67 139 67q85 0 143 -67q56 -69 55 -157v-475q1 -210 -143 -212v-35h523v35q-141 3 -142 212v440q-3 168 -88 255q-93 90 -245 88z
" />
    <glyph glyph-name="i" unicode="i" horiz-adv-x="582" 
d="M30 939q140 25 139 -140v-560q1 -197 -139 -204v-35h522v35q-138 8 -139 204v791l-383 -56v-35zM384 1440q-39 43 -97.5 43t-100.5 -40.5t-42 -101.5t42 -102t100.5 -41t99 41t40.5 102t-42 99z" />
    <glyph glyph-name="j" unicode="j" horiz-adv-x="772" 
d="M728 1032l-386 -58v-35q147 25 147 -140v-1060q0 -154 -116 -180q-68 -15 -97 12q-7 8 -15 22q-7 15 -18 37q-12 22 -17 33q-22 45 -48 63q-29 22 -59 24q-34 2 -62 -22q-27 -21 -27 -65q1 -64 70 -108q90 -56 222 -56q176 1 296 119q110 106 110 292v1122zM700 1440
q-39 43 -97.5 43t-100.5 -40.5t-42 -101.5t42 -102t100.5 -41t99 41t40.5 102t-42 99z" />
    <glyph glyph-name="k" unicode="k" horiz-adv-x="1280" 
d="M414 1513l-384 -58v-35q143 26 143 -147v-1026q0 -210 -143 -213v-34h529v34q-144 2 -145 213v155l133 128l200 -309q64 -101 38 -141q-24 -40 -79 -46v-34h544v34q-115 -10 -216 158l-312 509l123 123q142 150 360 150v34h-450v-34q68 3 83 -36q15 -38 -66 -118
l-358 -353v1046z" />
    <glyph glyph-name="l" unicode="l" horiz-adv-x="586" 
d="M416 1034v479l-386 -58v-36q147 27 144 -146v-1026q0 -210 -144 -213v-34h526v34q-140 3 -140 213v787z" />
    <glyph glyph-name="m" unicode="m" horiz-adv-x="1779" 
d="M693 1030q-176 0 -281 -135q-4 111 -30 135l-352 -56v-35q139 24 139 -148v-544q0 -210 -139 -213v-34h523v34q-141 3 -141 213v475q-1 87 55 156q56 67 124 67q74 0 127 -65q55 -65 54 -158v-475q1 -210 -141 -213v-34h519v34q-139 3 -139 213v475q0 93 51 156
q56 67 126 67q75 0 129 -67q50 -63 50 -156v-475q0 -210 -141 -213v-34h523v34q-138 3 -139 213v442q-3 170 -86 254q-85 87 -235 87q-198 1 -305 -173q-19 48 -57 86q-84 87 -234 87z" />
    <glyph glyph-name="n" unicode="n" horiz-adv-x="1210" 
d="M709 1030q-180 0 -296 -135q-5 109 -31 135l-352 -56v-35q141 25 141 -147v-545q0 -210 -141 -213v-34h523v34q-140 3 -140 213v475q0 90 55 156q57 67 138 67q91 1 145 -66q55 -66 54 -157v-475q0 -210 -138 -213v-34h513v34q-138 3 -138 213v442q0 166 -88 255
q-92 90 -245 86z" />
    <glyph glyph-name="o" unicode="o" horiz-adv-x="1062" 
d="M542 1033q-225 1 -369 -157q-143 -156 -143 -381q0 -219 142 -368q144 -150 351 -150q208 0 358 156q151 156 151 381q-6 234 -139 376q-131 142 -351 143zM542 984q112 0 173 -130q61 -129 61 -341q0 -204 -72 -345q-70 -141 -173 -141q-99 0 -168 135q-69 138 -69 335
q0 202 69 344q71 143 179 143z" />
    <glyph glyph-name="p" unicode="p" horiz-adv-x="1177" 
d="M376 1030l-346 -56v-34q145 26 145 -147v-1092q0 -210 -140 -213v-34h516v34q-138 2 -138 213v377q128 -96 292 -100q190 1 314 149q128 150 128 390q0 242 -118 377q-117 136 -313 136q-159 0 -303 -118q-5 90 -37 118zM635 49q-64 0 -127 36q-61 36 -95 79v536
q2 114 67 186q70 69 146 74q121 6 202 -129q79 -132 79 -337q0 -201 -70 -323q-74 -122 -202 -122z" />
    <glyph glyph-name="q" unicode="q" horiz-adv-x="1177" 
d="M492 1030q-195 1 -328 -149q-134 -147 -134 -390q0 -246 123 -379q126 -137 325 -137q163 0 291 119v-395q0 -209 -137 -211v-34h515v34q-138 2 -139 211v1342h-37q-20 -102 -81 -131q-59 -27 -125 21q-132 99 -273 99zM546 49q-127 0 -201 122q-70 122 -71 323
q-1 205 79 337q82 135 202 129q76 -5 146 -74q68 -72 68 -186v-536q-34 -43 -96 -79t-127 -36z" />
    <glyph glyph-name="r" unicode="r" horiz-adv-x="945" 
d="M378 1030l-348 -56v-34q135 21 135 -151v-540q0 -209 -135 -215v-34h512v34q-137 3 -137 215v403q0 123 59 217q61 94 122 101q43 7 78 -20q28 -18 54 -72q20 -44 46.5 -64.5t67 -20.5t62 26.5t21.5 60.5q0 63 -70 103q-81 46 -183 47q-168 0 -257 -143q0 109 -27 143z
" />
    <glyph glyph-name="s" unicode="s" horiz-adv-x="787" 
d="M365 1034q-151 1 -239 -83q-82 -83 -86 -208q-4 -190 177 -280q41 -17 128 -49q68 -21 151 -57q62 -27 90 -61q39 -49 30 -116q-4 -68 -67 -110q-69 -45 -182 -29q-129 20 -222 107q-44 42 -60 79q-16 40 -23 93h-32l6 -320h33q1 38 26 47q26 10 147 -35q55 -19 123 -27
q179 -18 279 81q98 100 105 239q8 181 -148 276q-57 34 -194 80q-147 56 -181 89q-40 42 -36 96q6 58 48 92q53 45 129 44q55 1 100 -17q55 -18 87 -50q83 -73 102 -198h32l-32 300h-34q3 -24 -20 -30q-22 -6 -86 20q-75 27 -151 27z" />
    <glyph glyph-name="t" unicode="t" horiz-adv-x="717" 
d="M384 1377q-43 -135 -143 -247q-99 -111 -211 -139v-31h142v-720q0 -362 405 -222q74 27 110 47l-16 55q-68 -30 -94 -38q-80 -23 -120 21q-41 47 -41 159v698h207v48h-207v369h-32z" />
    <glyph glyph-name="u" unicode="u" horiz-adv-x="1171" 
d="M481 -22q182 1 296 135q5 -107 31 -135l353 61v35q-141 -24 -141 153v781l-382 -1v-34q140 -3 140 -213l-1 -474q1 -90 -54 -156q-57 -67 -139 -67q-89 0 -144 66q-55 68 -55 157v722h-375v-34q138 -3 138 -213v-442q1 -165 89 -255q92 -89 244 -86z" />
    <glyph glyph-name="v" unicode="v" horiz-adv-x="1230" 
d="M30 1007v-35q96 -1 190 -214l337 -758h47l362 758q102 213 234 214v35h-351v-35q167 -2 63 -214l-226 -463l-191 463q-88 216 49 214v35h-514z" />
    <glyph glyph-name="w" unicode="w" horiz-adv-x="1791" 
d="M30 974q95 -1 175 -214l286 -760h61l321 783l309 -783h63l312 760q88 214 204 214v34h-309v-34q146 -1 59 -214l-182 -449l-172 449q-82 214 86 214v34h-511v-34q176 0 88 -214l-185 -449l-170 449q-81 214 78 214v34h-513v-34z" />
    <glyph glyph-name="x" unicode="x" horiz-adv-x="1167" 
d="M96 1008v-34q124 0 234 -192l171 -296l-189 -267q-129 -183 -282 -185v-34h341v34q-138 3 -9 185l161 224l132 -224q108 -183 -39 -185v-34h521v34q-130 2 -234 185l-217 384l133 179q140 192 281 192v34h-346v-34q160 -2 14 -192l-105 -137l-85 137q-117 190 20 192v34
h-502z" />
    <glyph glyph-name="y" unicode="y" horiz-adv-x="1217" 
d="M47 974q127 0 214 -210l316 -764l-109 -252q-45 -104 -107 -136q-38 -20 -84 -3q-28 10 -72 61q-44 52 -106 34q-40 -12 -54.5 -53.5t2 -86.5t72.5 -67t132.5 -10t142.5 66t119 178l442 1033q88 206 232 210v34h-344v-34q151 -1 64 -202l-201 -462l-187 454
q-86 210 31 210v34h-503v-34z" />
    <glyph glyph-name="z" unicode="z" horiz-adv-x="838" 
d="M85 1008l-25 -314h30q28 266 266 266h115l-441 -914v-46h749l29 396h-30q-53 -348 -308 -348h-193l455 912v48h-647z" />
    <glyph glyph-name="period" unicode="." horiz-adv-x="342" 
d="M270 214q-39 43 -97.5 43t-100.5 -40.5t-42 -101.5t42 -102t100.5 -41t99 41t40.5 102t-42 99z" />
    <glyph glyph-name="colon" unicode=":" horiz-adv-x="342" 
d="M270 996q-39 43 -97.5 43t-100.5 -40.5t-42 -101.5t42 -102t100.5 -41t99 41t40.5 102t-42 99zM270 219q-39 43 -97.5 43t-100.5 -40.5t-42 -101.5t42 -102t100.5 -41t99 41t40.5 102t-42 99z" />
    <glyph glyph-name="A" unicode="A" horiz-adv-x="1551" 
d="M722 1455l-477 -1254q-62 -160 -215 -157v-44h369v44q-170 0 -107 157l108 282h515l114 -282q64 -159 -106 -157v-44h598v44q-144 4 -210 157l-521 1254h-68zM651 1137q220 -548 247 -612h-481q16 41 234 612z" />
    <glyph glyph-name="B" unicode="B" horiz-adv-x="1356" 
d="M30 1455v-40q183 -4 183 -183v-1011q0 -183 -183 -181v-40h903q159 0 277 114q116 111 116 271t-116 273q-118 114 -277 115h-77q156 10 262 107q106 99 106 235q0 142 -112 241q-115 99 -275 99h-807zM467 1410h206q133 0 210 -89t77 -222q0 -134 -77 -223t-210 -89
h-206v623zM467 745h308q131 0 208.5 -100t77.5 -252q0 -164 -118 -258.5t-270 -94.5q-109 0 -157.5 47.5t-48.5 111.5v546z" />
    <glyph glyph-name="C" unicode="C" horiz-adv-x="1409" 
d="M821 1476q-233 0 -417 -105t-279 -276q-95 -173 -95 -382q0 -201 100 -371q102 -173 274 -267q178 -97 423 -97q410 0 552 329l-38 11q-147 -286 -501 -286q-518 0 -518 681q0 291 135 495q141 213 357 214q386 0 484 -395l40 4l-26 425h-40q-5 -90 -139 -44
q-188 64 -312 64z" />
    <glyph glyph-name="D" unicode="D" horiz-adv-x="1610" 
d="M30 1455v-40q183 -3 183 -183v-1011q0 -178 -183 -181v-40h851q294 0 496 214q203 215 195 514q-2 146 -66 283q-59 129 -161 229q-102 98 -247 158q-142 57 -302 57h-766zM467 1411h177q129 0 259 -52t216 -148q178 -198 187 -483q4 -164 -42 -301q-43 -131 -129 -223
q-88 -94 -181 -126q-92 -32 -206 -32q-281 0 -281 237v1128z" />
    <glyph glyph-name="E" unicode="E" horiz-adv-x="1341" 
d="M30 1455v-40q183 3 182 -183v-1011q0 -177 -182 -181v-40h1256l25 415l-36 3q-21 -379 -480 -379q-328 0 -328 244v477h185q213 0 213 -222h39v485h-39q0 -218 -213 -218h-185v606h365q326 0 347 -309l39 6l-22 347h-1166z" />
    <glyph glyph-name="F" unicode="F" horiz-adv-x="1204" 
d="M30 1455v-40q183 -3 182 -183v-1011q0 -184 -182 -181v-40h620v35q-183 -6 -183 186v539h185q210 0 213 -270h39v581h-39q-3 -266 -213 -266h-185v606h321q326 0 347 -309l39 6l-22 347h-1122z" />
    <glyph glyph-name="G" unicode="G" horiz-adv-x="1592" 
d="M825 1477q-237 0 -419 -105q-181 -104 -277 -278q-99 -178 -99 -380q0 -318 218 -532q213 -211 544 -205q185 5 335 67q133 54 239 146v171q0 188 196 231v44h-656v-44q198 -46 198 -231v-52q0 -128 -85 -203q-84 -77 -230 -74q-156 0 -262 93q-110 94 -154 240
q-48 156 -48 349q1 290 136 496q138 210 356 212q389 -1 487 -395l37 4l-23 424h-39q-8 -89 -142 -43q-189 64 -312 65z" />
    <glyph glyph-name="H" unicode="H" horiz-adv-x="1647" 
d="M30 1455v-40q181 -1 181 -184v-1008q0 -188 -181 -183v-40h618v40q-181 -3 -181 183v514h714v-514q0 -188 -181 -183v-40h617v40q-180 -3 -180 183v1008q0 188 180 184v40h-617v-40q181 -1 181 -184v-450h-714v450q0 188 181 184v40h-618z" />
    <glyph glyph-name="I" unicode="I" horiz-adv-x="678" 
d="M30 1455v-40q181 -1 181 -184v-1008q0 -183 -181 -183v-40h618v40q-181 0 -181 183v1008q0 184 181 184v40h-618z" />
    <glyph glyph-name="J" unicode="J" horiz-adv-x="990" 
d="M348 -407q187 0 315 117q120 110 118 293v1228q0 184 179 184v40h-615v-40q180 0 180 -184v-1400q0 -155 -124 -181q-74 -12 -104 13q-8 6 -55 87q-26 45 -52 63q-27 19 -63 22q-38 0 -67 -22q-30 -25 -30 -63q0 -57 79 -103q92 -54 239 -54z" />
    <glyph glyph-name="K" unicode="K" horiz-adv-x="1546" 
d="M931 1455v-40q183 -4 15 -187l-479 -523v526q0 184 181 184v40h-618v-40q183 0 183 -184v-1008q0 -184 -183 -184v-39h618l1 39q-182 0 -182 184v422l83 87l346 -476q105 -144 97 -256h523v39q-148 0 -300 217l-476 680l270 292q160 167 360 187v40h-439z" />
    <glyph glyph-name="L" unicode="L" horiz-adv-x="1342" 
d="M30 1455v-40q181 0 181 -183v-1011q0 -184 -180 -184l-1 -37h1257l25 416l-38 2q-20 -139 -95 -226.5t-169 -119.5t-216 -32q-327 0 -327 243v949q0 183 181 183v40h-618z" />
    <glyph glyph-name="M" unicode="M" horiz-adv-x="1911" 
d="M30 1455v-40q183 0 183 -183v-1009q0 -188 -183 -188v-35h409v33q-182 2 -181 190v1074l584 -1295h73l532 1295v-1074q0 -183 -185 -184v-39h619v39q-183 0 -183 184v1009q0 183 183 183v40l-417 1l-468 -1148l-466 1050q-22 50 -24 98z" />
    <glyph glyph-name="N" unicode="N" horiz-adv-x="1508" 
d="M30 1455v-40q178 0 179 -183v-1009q-1 -184 -179 -184v-39h408v37q-182 0 -181 186v1073l964 -1296h77v1232q0 183 180 181v42h-409v-40q183 0 183 -183v-785q-463 615 -663 912q-50 62 -50 96h-509z" />
    <glyph glyph-name="O" unicode="O" horiz-adv-x="1583" 
d="M809 1480q-228 -1 -408 -106t-277 -279q-94 -171 -94 -385q0 -310 217 -523q216 -214 535 -214q208 0 387 100q177 98 281 275q103 175 103 391q0 335 -196 537q-198 204 -548 204zM803 1424q216 0 341 -189q123 -186 123 -498q0 -200 -66 -362q-67 -165 -177 -256
q-113 -92 -240 -92q-194 0 -329 198q-137 200 -137 487q0 196 60 356q60 161 171 258q112 98 254 98z" />
    <glyph glyph-name="P" unicode="P" horiz-adv-x="1276" 
d="M30 1455v-40q181 5 181 -183v-1009q1 -183 -181 -183v-40h617v40q-182 0 -181 183v402h353q177 0 302 121.5t125 292.5q0 173 -125 294.5t-302 121.5h-789zM466 1408h168q144 0 244 -105q102 -108 102 -262q0 -156 -102 -263.5t-244 -107.5h-168v738z" />
    <glyph glyph-name="Q" unicode="Q" horiz-adv-x="1585" 
d="M811 1483q-228 0 -411 -106q-177 -105 -274 -278q-96 -176 -96 -382q0 -204 98 -374q97 -166 272 -266q173 -98 380 -98q29 0 83 4q58 -54 148 -108q66 -37 118 -45q71 -9 137 10q71 21 136 87q43 42 78 108l-21 14q-118 -112 -240 -28l-67 50q183 99 293 278t110 395
q0 332 -199 536q-196 203 -545 203zM805 1429q218 0 339 -189q122 -189 122 -498q0 -187 -60 -341q-62 -158 -158 -254q-126 100 -266.5 96t-234.5 -116q-107 91 -166 245q-62 158 -62 345q0 191 62 355q59 160 169 258.5t255 98.5zM651 123q73 0 154 -90h-19
q-105 0 -203 65q27 25 68 25z" />
    <glyph glyph-name="R" unicode="R" horiz-adv-x="1496" 
d="M30 1456v-41q182 0 181 -183v-1011q0 -182 -181 -181v-40h619v40q-182 0 -181 181v483h40q101 0 162 -41q66 -44 99 -114l127 -285q77 -171 73 -264h497v40q-170 0 -298 259l-137 274q-66 131 -189 138q160 24 262 126q104 104 104 243q0 156 -129 266q-131 110 -312 110
h-737zM468 1409h94q168 0 274 -94.5t106 -236.5q0 -141 -106 -235.5t-274 -94.5h-94v661z" />
    <glyph glyph-name="S" unicode="S" horiz-adv-x="1097" 
d="M526 1476q-214 0 -350 -118q-118 -111 -118 -279q2 -236 306 -390q52 -27 158 -68q106 -40 181 -82q76 -44 110 -87q38 -52 44 -113q6 -77 -16 -133q-23 -66 -82 -108q-93 -67 -241 -61q-186 7 -306 125q-102 102 -146 284h-36v-446h36q4 65 31 91t59.5 15.5t86.5 -41.5
q141 -80 279 -86q239 -12 387 125q142 133 152 323q6 137 -48 227q-54 85 -160 148q-72 42 -267 114q-201 73 -254 127q-43 42 -54 96q-14 64 4 123q15 62 61 98q75 64 193 66q167 7 269 -116q78 -93 119 -264l37 4l-31 405h-39q-2 -90 -142 -28q-112 49 -223 49z" />
    <glyph glyph-name="T" unicode="T" horiz-adv-x="1504" 
d="M52 1455l-22 -347l39 -4q21 308 323 308h233v-1191q0 -181 -183 -181v-40h620v40q-183 0 -183 181v1191h233q302 0 323 -308l39 2l-22 349h-1400z" />
    <glyph glyph-name="U" unicode="U" 
d="M30 1454v-39q182 0 181 -183v-783q0 -231 144 -349q153 -123 421 -123q260 0 414 123q156 124 156 349v783q0 183 178 183v39h-407v-39q181 0 181 -183v-783q0 -193 -108 -285q-106 -93 -304 -93q-197 0 -306 95.5t-111 282.5v783q-1 183 181 183v39h-620z" />
    <glyph glyph-name="V" unicode="V" horiz-adv-x="1548" 
d="M30 1454v-39q128 0 205 -183l530 -1232h67l467 1232q69 183 219 183v39h-368v-39q171 0 101 -183l-351 -914l-386 914q-76 183 118 183v39h-602z" />
    <glyph glyph-name="W" unicode="W" horiz-adv-x="2408" 
d="M30 1455v-40q129 0 204 -183l498 -1232h87l382 1181l469 -1181h87l407 1232q60 183 214 183v40h-368v-40q168 0 104 -183l-307 -912l-363 912q-72 183 152 183v40h-602v-40q233 -2 175 -179l-300 -916l-363 912q-72 183 126 183v40h-602z" />
    <glyph glyph-name="X" unicode="X" horiz-adv-x="1542" 
d="M69 1455v-39q134 0 246 -180l346 -545l-353 -472q-130 -176 -278 -179v-40h369v40q-169 3 -35 179l326 429l266 -422q117 -184 -44 -186v-40h600v40q-136 0 -252 182l-410 648l255 362q128 182 276 184v39h-369v-39q164 -3 36 -183l-227 -318l-199 316q-114 185 45 185
v39h-598z" />
    <glyph glyph-name="Y" unicode="Y" horiz-adv-x="1496" 
d="M30 1455v-40q124 0 235 -183l269 -439q64 -104 71 -133q16 -54 18 -187v-252q0 -182 -183 -181v-40h620v40q-184 0 -185 181v454q0 72 6 87q9 27 23 44l288 422q126 184 274 187v40h-366v-40q167 -1 38 -184l-300 -427l-270 425q-117 184 62 186v40h-600z" />
    <glyph glyph-name="Z" unicode="Z" horiz-adv-x="1251" 
d="M113 1455l-21 -345l38 -5q21 304 343 305h383l-826 -1366v-44h1166l25 418l-38 1q-21 -375 -420 -375h-437l834 1365v46h-1047z" />
    <glyph glyph-name="question" unicode="?" horiz-adv-x="989" 
d="M256 1455q-80 -24 -134 -72q-58 -51 -78 -119q-14 -53 3 -97q16 -39 60 -49.5t80 20.5q22 22 26 76q2 32 -1 65q-3 45 3 66q8 27 35 45q69 42 157 34q68 -6 117 -42.5t92 -105.5q82 -131 92 -292q14 -201 -46 -320q-60 -122 -158 -123q-80 -1 -143 57q-61 57 -82 148h-53
v-382h52v230q102 -116 235 -120q192 -8 319 137q127 143 110 353q-14 221 -164 364q-154 145 -367 147q-87 0 -155 -20zM348 210q-39 43 -97.5 43t-100.5 -40.5t-42 -101.5t42 -102t100.5 -41t99 41t40.5 102t-42 99z" />
    <glyph glyph-name="comma" unicode="," horiz-adv-x="416" 
d="M176 264q49 0 87 -22q67 -41 95 -138q28 -98 2 -204q-30 -118 -118 -199q-86 -78 -199 -102v68q78 30 136 94q61 68 84 145q8 30 9 70q0 39 -24 17q-33 -19 -72 -20q-59 -2 -102 41q-44 44 -44 103q0 64 41 104q44 43 105 43z" />
    <glyph glyph-name="at" unicode="@" horiz-adv-x="2133" 
d="M1143 1430q-311 0 -560 -132q-251 -135 -389 -351q-133 -214 -146 -482q-18 -392 261 -658q283 -269 713 -269q280 0 525 125q104 54 189 123l-54 52q-76 -65 -173 -116q-218 -117 -466 -117q-380 0 -628 249q-247 250 -232 613q10 243 133 445.5t347 324.5
q221 121 495 121q418 0 644 -233q196 -205 158 -536q-28 -233 -158.5 -367.5t-286.5 -155.5q-97 -14 -141.5 14t-17.5 115l243 829l-39 1q-48 -100 -118 -126t-126 31q-93 98 -210 99q-173 0 -337 -149q-162 -147 -232 -388q-70 -240 0 -376q65 -129 248 -134
q81 -2 147.5 23t109 69.5t60.5 71t33 54.5q-6 -100 52 -156t148.5 -63t181.5 7.5t163 45.5q34 15 71 36.5t89 68t93.5 105.5t77 149t48.5 196q44 353 -187 584q-258 257 -729 257zM1121 959q28 2 40 -1q55 -8 89 -69q36 -71 4 -186l-134 -421q-43 -94 -113 -163t-137 -74
q-106 -6 -135 125q-28 126 33 325q58 200 168 338q92 116 185 126z" />
    <glyph glyph-name="ampersand" unicode="&#x26;" horiz-adv-x="1729" 
d="M833 1476q-200 -5 -356 -123q-88 -66 -120.5 -163t-15 -184t70.5 -147l23 -27q-8 -3 -53 -21q-191 -78 -271.5 -245.5t-10.5 -338.5q33 -81 101 -137.5t151 -78t178.5 -26t183.5 19.5q177 38 315 152q60 -60 130 -102q69 -41 149.5 -59.5t184.5 -4.5q56 8 129 28l-3 42
q-69 15 -135.5 44.5t-114.5 73.5t-63.5 63t-67.5 73q60 43 108 50q42 5 70 -22q18 -16 27 -37l14 -34q8 -20 22 -32q22 -20 54 -20q28 0 53 22q30 28 25 68q-5 41 -39 69q-48 40 -107 49q-66 8 -129 -14q-58 -20 -124 -69l-498 565l18 7q176 56 280.5 164t74.5 239
q-16 76 -83.5 117t-170.5 39zM702 1403h17q73 -5 122.5 -54t58.5 -132q3 -40 -9.5 -84.5t-56.5 -97t-115 -82.5l-32 -14q-248 273 -139 399q55 65 154 65zM473 789l523 -600q-88 -77 -267 -85q-125 -3 -232.5 51t-157.5 165q-27 58 -30 139t33.5 175t117.5 147q3 2 13 8z
" />
    <glyph glyph-name="braceleft" unicode="{" horiz-adv-x="681" 
d="M651 1459q-368 0 -366 -291l2 -341q5 -111 -100 -181q-66 -45 -157 -55v-40q91 -11 157 -56q104 -70 100 -180l-2 -343q-2 -290 366 -289v40q-61 15 -106 52.5t-45 95.5l5 367q2 183 -133 262q-70 39 -209 71q139 32 209 71q135 79 133 261l-5 367q0 58 45 96
q44 37 106 53v40z" />
    <glyph glyph-name="bracketleft" unicode="[" horiz-adv-x="429" 
d="M30 1455v-1768h369v50h-144l1 1668h142v50h-368z" />
    <glyph glyph-name="parenleft" unicode="(" horiz-adv-x="529" 
d="M498 1453q-29 0 -35 16q-433 -312 -433 -910t433 -881q2 0 36 16q-263 298 -263 865t262 894z" />
    <glyph glyph-name="asciitilde" unicode="~" horiz-adv-x="1232" 
d="M1136 1520l66 -11q-20 -446 -474 -293l-436 147q-135 46 -192 -147l-70 9q4 432 446 296l465 -141q132 -40 195 140z" />
    <glyph glyph-name="braceright" unicode="}" horiz-adv-x="681" 
d="M30 1459q368 0 366 -291l-2 -341q-5 -111 100 -181q66 -45 157 -55v-40q-91 -11 -157 -56q-104 -70 -100 -180l2 -343q2 -290 -366 -289v40q61 15 106 52.5t45 95.5l-5 367q-2 183 133 262q70 39 209 71q-139 32 -209 71q-135 79 -133 261l5 367q0 58 -45 96
q-44 37 -106 53v40z" />
    <glyph glyph-name="bracketright" unicode="]" horiz-adv-x="429" 
d="M399 1455v-1768h-369v50h144l-1 1668h-142v50h368z" />
    <glyph glyph-name="parenright" unicode=")" horiz-adv-x="529" 
d="M31 1453q29 0 35 16q433 -312 433 -910t-433 -881q-2 0 -36 16q263 298 263 865t-262 894z" />
    <glyph glyph-name="semicolon" unicode=";" horiz-adv-x="417" 
d="M177 264q49 0 87 -22q67 -41 95 -138q28 -98 2 -204q-30 -118 -118 -199q-86 -78 -199 -102v68q78 30 136 94q61 68 84 145q8 30 9 70q0 39 -24 17q-33 -19 -72 -20q-59 -2 -102 41q-44 44 -44 103q0 64 41 104q44 43 105 43zM270 996q-39 43 -97.5 43t-100.5 -40.5
t-42 -101.5t42 -102t100.5 -41t99 41t40.5 102t-42 99z" />
    <glyph glyph-name="one" unicode="1" horiz-adv-x="640" 
d="M350 1265q-120 -87 -320 -120v-50h181v-872q0 -183 -181 -183v-40h580v40q-181 0 -181 183v1042h-79z" />
    <glyph glyph-name="two" unicode="2" horiz-adv-x="1052" 
d="M455 1273q-66 -2 -141 -24t-123 -57q-73 -53 -99 -124q-23 -65 -2 -114q20 -50 76 -64q40 -10 77.5 9t52.5 59q10 27 7 54q-1 8 -3 25t-3 26q-3 26 10 62q15 42 59.5 68t94.5 31q61 6 119 -21t84 -91q28 -66 28 -156q0 -273 -224 -343q-234 -73 -336 -172t-102 -269
q0 -123 33 -172l32 1q58 119 158 122q80 3 225 -58q166 -66 270 -64q274 2 271 331l-33 6q-54 -120 -166 -118q-122 2 -265 67q-136 62 -225 58q-232 -4 -264 -252q-8 75 5 138.5t38.5 107.5t65.5 81t80.5 59.5t92.5 42.5t91.5 30t88 22.5t71.5 20.5q85 28 132 49.5t85 52.5
q65 52 96.5 124t28.5 153q-3 70 -39.5 131.5t-93.5 95.5q-131 78 -353 72z" />
    <glyph glyph-name="three" unicode="3" horiz-adv-x="1015" 
d="M452 1272q-68 -4 -135.5 -25t-112.5 -56q-64 -50 -90 -129q-21 -60 -1 -109q21 -51 69 -65q37 -10 73 10q35 19 48 59q10 30 7 54l-5 51q-3 28 9 61q15 42 56.5 69.5t86.5 29.5q136 8 189 -108q26 -58 26 -127q0 -202 -176 -246q-33 -9 -68 -9l6 -40q12 0 18 -1
q135 -15 197 -89q63 -73 61 -219t-64 -237q-61 -91 -185 -99q-165 -10 -207 91q-12 30 -10 61q0 8 0.5 24.5t1.5 25.5q1 25 -9 53q-15 40 -51 56q-21 10 -45 8q-19 -2 -28 -5q-48 -18 -66 -71q-17 -50 7 -109q28 -70 99 -113q128 -79 308 -77q250 3 398 132
q61 53 93.5 125.5t30.5 154.5q-3 151 -155 250q-84 53 -187 74q84 25 142 66q124 87 121 205q-1 63 -33.5 116t-89.5 88q-134 83 -329 70z" />
    <glyph glyph-name="four" unicode="4" horiz-adv-x="1088" 
d="M721 1265l-691 -887v-34h557v-123q1 -181 -181 -181v-40h580v40q-182 0 -181 181v123h53q160 0 160 -219h40v486h-40q0 -218 -160 -218h-53v872h-84zM587 1026v-633h-492z" />
    <glyph glyph-name="five" unicode="5" horiz-adv-x="1023" 
d="M963 1256q-40 -45 -88 -53.5t-101 0t-111 25t-118.5 27.5t-118.5 7t-119 -42.5t-94 -114.5v130h-44v-592q147 71 284 70q129 -1 193.5 -81.5t63.5 -231.5q-1 -149 -63 -246.5t-186 -105.5q-166 -10 -207 92q-12 28 -10 61q0 8 1 25.5t2 26.5q1 24 -10 54q-15 40 -51 56
q-20 10 -45 8q-19 -2 -28 -6q-47 -17 -65 -71q-18 -52 5 -111q27 -68 100 -114q128 -80 307 -78q250 3 400 134q61 53 93.5 127t30.5 157q-5 156 -156 254q-82 54 -182.5 76t-190.5 19q-128 -4 -242 -51v368q40 15 92.5 12.5t100 -9.5t95 -21.5t97 -22.5t96 -13.5t92.5 6
t85 36.5t77 77q27 39 45 96z" />
    <glyph glyph-name="zero" unicode="0" horiz-adv-x="1124" 
d="M575 1274q-161 0 -287 -89.5t-192 -237.5t-66 -326q0 -174 69.5 -318.5t189.5 -227.5t265 -83q109 0 208 50.5t172.5 136.5t116.5 208t43 258q0 284 -137.5 456.5t-381.5 172.5zM569 1214q128 0 200 -157t72 -414q0 -164 -38.5 -301t-103.5 -214t-141 -77t-139 75.5
t-99.5 206.5t-36.5 289q0 161 34.5 295.5t101 215.5t150.5 81z" />
    <glyph glyph-name="six" unicode="6" horiz-adv-x="1018" 
d="M548 -7q86 7 161 38t136 86t98 141.5t40 193.5q5 144 -56 245t-165 144.5t-234 32.5q-63 -5 -128.5 -31.5t-97.5 -56.5q47 404 277 433q59 7 103 -14.5t67 -66.5q15 -27 16 -58q0 -9 1 -25.5t1 -24.5q2 -30 14 -52q18 -35 57 -46q17 -4 35 -3q5 0 12 2q16 4 28 10
q48 26 60 80q12 53 -18 107t-109 96q-132 70 -307 42q-96 -15 -183 -70t-156 -141t-112 -208t-48 -261q-10 -274 116 -436.5t346 -158.5q15 0 46 2zM510 38q-69 -4 -118.5 48.5t-72 134t-31.5 180t-5 184t14 149.5q97 88 225 81q98 -6 152.5 -114.5t45.5 -284.5
q-8 -166 -68.5 -269.5t-141.5 -108.5z" />
    <glyph glyph-name="seven" unicode="7" horiz-adv-x="1062" 
d="M203 1258l-40 1l-133 -403l40 1q87 233 211 203q104 -25 226 -25q183 0 443 151q-159 -98 -282 -209t-199.5 -203.5t-121.5 -173.5t-65 -159q-26 -94 -23 -181t20.5 -149t47.5 -111h487q-104 50 -172.5 116.5t-97 139t-32 153.5t20 161t63 159.5t93 152t112.5 136
t117 109.5t114 79l-13 29q-117 -50 -258 -11q-189 54 -299 58q-170 8 -304 -175z" />
    <glyph glyph-name="eight" unicode="8" horiz-adv-x="1102" 
d="M559 1270q-112 -1 -208 -37.5t-161 -109.5t-78 -170q-12 -101 29.5 -176t105.5 -113q-31 -14 -66.5 -41t-70.5 -64.5t-57.5 -90.5t-22.5 -107q0 -155 133 -260.5t366 -104.5q96 0 182.5 21t161.5 63t123.5 114.5t59.5 168.5q16 127 -53.5 234t-225.5 174q27 10 55.5 29.5
t56.5 48t45.5 70t16.5 85.5q-2 90 -57.5 151.5t-141 88.5t-193.5 26zM559 1220q116 -1 199.5 -58t84.5 -171q0 -124 -138 -195q-23 8 -72.5 18t-91 18t-90 27t-80.5 43t-51.5 65.5t-14.5 95.5q6 71 78.5 114.5t175.5 42.5zM317 626q16 -9 67 -23t107 -28t120.5 -41.5
t113.5 -61.5t78 -89t23 -122q-10 -93 -93 -149t-218 -56q-72 0 -137.5 18.5t-119 55t-84.5 97t-30 137.5q1 79 50.5 152.5t122.5 109.5z" />
    <glyph glyph-name="nine" unicode="9" horiz-adv-x="1017" 
d="M470 1273q-87 -2 -162 -30t-135.5 -80.5t-97.5 -137.5t-41 -192q-4 -144 56.5 -248t164.5 -153t235 -44q63 2 128 25.5t98 51.5q-47 -403 -278 -421q-58 -4 -102 19.5t-68 69.5q-14 29 -16 59q0 8 -1 25t-1 26q-2 28 -13 52q-19 37 -58 49q-19 6 -35 5q-8 0 -12 -1
q-15 -3 -28 -9q-47 -23 -60 -77q-12 -51 16 -108q17 -32 43.5 -54.5t68.5 -47.5q134 -77 307 -58q95 10 182.5 61t156.5 134t112 203.5t47 260.5q10 275 -116 444.5t-345 175.5h-46zM508 1226q69 1 118 -54.5t71.5 -138.5t32 -182.5t5.5 -185.5t-15 -149q-97 -84 -225 -70
q-97 11 -152 123t-46 288q8 166 69 267t142 102z" />
    <glyph glyph-name="dollar" unicode="$" horiz-adv-x="1129" 
d="M508 1629v-159q-214 -6 -336.5 -117.5t-107.5 -301.5q6 -69 36.5 -125t95.5 -107.5t132 -90t180 -94.5v-594q-180 7 -247 71q-25 23 -29 63q-1 34 7 60l19 43q8 26 7 51q-4 41 -35 68q-29 25 -76 27q-56 3 -90 -38q-34 -39 -27 -99q8 -77 63 -141q59 -70 145 -106
q116 -51 263 -56v-160h60v158q246 8 388.5 142.5t113.5 358.5q-6 53 -24 97t-50 81.5t-67 67.5t-89.5 62t-103 56.5t-120.5 60.5q-32 15 -48 23v493q117 -3 180 -48q43 -30 52 -86q6 -33 -3 -59l-15 -44q-6 -21 -2 -51q4 -39 39 -66q37 -27 75 -24q58 2 88 43q31 44 21 101
q-12 75 -72 138t-151 100q-92 38 -212 43v159h-60zM508 1421v-467q-121 55 -179 103.5t-68 126.5q-14 110 55 171.5t192 65.5zM568 608q147 -67 217 -126t82 -153q16 -132 -68 -207t-231 -81v567z" />
    <glyph glyph-name="percent" unicode="%" horiz-adv-x="1565" 
d="M1363 1453l-1197 -1613l35 -26l1197 1611zM373 1266q-152 0 -247.5 -106.5t-95.5 -263.5q0 -150 95.5 -253.5t235.5 -103.5t239.5 108t99.5 264q0 161 -86.5 258t-240.5 97zM254 1136q44 97 115.5 97t112 -88.5t40.5 -235.5q0 -142 -46.5 -239.5t-111 -97.5t-109.5 94
t-45 230q0 143 44 240zM1207 725q-153 0 -248 -107t-95 -263q0 -151 95 -254t236 -103t240.5 107.5t99.5 263.5q0 161 -87 258.5t-241 97.5zM1086 592q46 98 118 98t112.5 -88.5t40.5 -233.5q0 -143 -47.5 -240t-112.5 -97t-110 93.5t-45 230.5q0 140 44 237z" />
    <glyph glyph-name="equal" unicode="=" horiz-adv-x="1081" 
d="M30 881v-56h1021v56h-1021zM30 630v-53h1021v53h-1021z" />
    <glyph glyph-name="plus" unicode="+" horiz-adv-x="1078" 
d="M510 1217v-461h-480v-53h480v-463h56v463h482v53h-482v461h-56z" />
    <glyph glyph-name="numbersign" unicode="#" horiz-adv-x="1083" 
d="M497 1456l-90 -576h-377v-54h370l-31 -196h-339v-55h330l-86 -573h58l88 573h195l-88 -573h61l86 573h379v55h-370l31 196h339v54h-332l90 576h-61l-88 -576h-196l88 576h-57zM459 826h196l-31 -196h-195z" />
    <glyph glyph-name="AE" unicode="&#xc6;" horiz-adv-x="2178" 
d="M868 1454v-40q149 1 71 -139l-601 -1073q-90 -160 -308 -161v-40h394v40q-126 2 -38 161l116 206h555v-131q0 -238 -189 -238v-39h1255l25 414l-36 3q-21 -378 -480 -378q-327 0 -327 243v477h185q212 0 212 -222h40v485h-40q0 -219 -212 -219h-185v606h365
q325 0 346 -307l38 4l-21 348h-1165zM1057 1399v-948h-531z" />
    <glyph glyph-name="ae" unicode="&#xe6;" horiz-adv-x="1642" 
d="M441 1002q-185 -3 -291 -87q-66 -51 -60 -109q7 -38 35 -59q33 -20 65 -14q32 8 52 30q25 26 41 66q35 86 43 93q37 32 115 32q196 0 199 -130q4 -168 -379 -303q-231 -79 -231 -285q0 -127 84 -204q89 -77 215 -78q253 -7 425 176q61 -83 160.5 -129t203.5 -46
q178 0 309 112q132 116 172 312h-32q-40 -140 -130 -230q-85 -86 -213 -90q-146 -4 -244 132q-96 138 -85 327h717q-10 218 -135 351q-122 131 -340 131q-192 0 -324 -121q-94 123 -372 123zM640 645v-257q0 -152 -53 -248q-52 -98 -152 -98q-82 0 -125 62q-40 61 -43 143
q0 88 33 148q36 65 108 99q179 89 232 151zM1135 962q79 3 135 -72q57 -74 75 -161q20 -86 17 -161h-463q4 59 17 120q13 63 39 125q26 64 72 105q48 42 108 44z" />
    <glyph glyph-name="grave" unicode="`" horiz-adv-x="470" 
d="M30 1456l139 -128l232 -206l39 30l-195 304h-215z" />
    <glyph glyph-name="slash" unicode="/" horiz-adv-x="581" 
d="M30 -195l57 -17l464 1641l-58 15z" />
    <glyph glyph-name="glyph89" horiz-adv-x="878" 
d="M270 1322q-39 43 -97.5 43t-100.5 -40.5t-42 -101.5t42 -102t100.5 -41t99 41t40.5 102t-42 99zM806 1322q-40 43 -100.5 43t-101 -40.5t-40.5 -101.5t40.5 -102t101 -41t101.5 41t41 102t-42 99z" />
    <glyph glyph-name="cedilla" unicode="&#xb8;" horiz-adv-x="444" 
d="M170 -21q-8 -26 -32 -118q156 -63 123 -162t-223 -91l-8 -37q300 -32 342 109t-164 185l28 114h-66z" />
    <glyph glyph-name="circumflex" unicode="&#x2c6;" horiz-adv-x="867" 
d="M400 1414l-370 -359l46 -33l358 241l357 -241l46 33l-370 359h-67z" />
    <glyph glyph-name="glyph92" horiz-adv-x="756" 
d="M726 1426q0 -171 -87.5 -279t-261 -108t-260.5 108t-87 279h36q12 -196 312 -196t312 196h36z" />
    <glyph glyph-name="glyph93" horiz-adv-x="470" 
d="M30 1456l139 -128l232 -206l39 30l-195 304h-215z" />
    <glyph glyph-name="ring" unicode="&#x2da;" horiz-adv-x="553" 
d="M449 1483q-71 74 -173.5 74t-174 -72.5t-71.5 -175.5t71.5 -175.5t174 -72.5t175 72.5t72.5 175.5t-74 174zM144 1440q55 54 131 54t131 -54.5t55 -131t-55 -130.5t-131 -54t-129.5 54t-53.5 130.5t52 131.5z" />
    <glyph glyph-name="ogonek" unicode="&#x2db;" horiz-adv-x="552" 
d="M522 1238q0 -2 -198 -190q-106 -101 -122 -134q-15 -29 -13 -64q5 -60 74 -93t204 3l4 -38q-167 -57 -291.5 -24t-140.5 132q-9 62 25.5 110.5t122.5 112.5l249 185h86z" />
    <glyph glyph-name="dieresis" unicode="&#xa8;" horiz-adv-x="878" 
d="M270 1322q-39 43 -97.5 43t-100.5 -40.5t-42 -101.5t42 -102t100.5 -41t99 41t40.5 102t-42 99zM806 1322q-40 43 -100.5 43t-101 -40.5t-40.5 -101.5t40.5 -102t101 -41t101.5 41t41 102t-42 99z" />
    <glyph glyph-name="dieresis" unicode="&#x308;" horiz-adv-x="878" 
d="M270 1322q-39 43 -97.5 43t-100.5 -40.5t-42 -101.5t42 -102t100.5 -41t99 41t40.5 102t-42 99zM806 1322q-40 43 -100.5 43t-101 -40.5t-40.5 -101.5t40.5 -102t101 -41t101.5 41t41 102t-42 99z" />
    <glyph glyph-name="ringcmb" unicode="&#x30a;" horiz-adv-x="553" 
d="M449 1483q-71 74 -173.5 74t-174 -72.5t-71.5 -175.5t71.5 -175.5t174 -72.5t175 72.5t72.5 175.5t-74 174zM154 1433q51 51 122.5 51t123.5 -51.5t52 -123.5t-52 -123t-123.5 -51t-121.5 51t-50 123t49 124z" />
    <glyph glyph-name="ogonekcmb" unicode="&#x328;" horiz-adv-x="552" 
d="M522 -22q0 -2 -198 -190q-106 -101 -122 -134q-15 -29 -13 -64q5 -60 74 -93t204 3l4 -38q-167 -57 -291.5 -24t-140.5 132q-9 62 25.5 110.5t122.5 112.5l249 185h86z" />
    <glyph glyph-name="gravecmb" unicode="&#x300;" horiz-adv-x="470" 
d="M30 1456l351 -342l59 38l-195 304h-215z" />
    <glyph glyph-name="acute" unicode="&#xb4;" horiz-adv-x="470" 
d="M440 1456l-351 -342l-59 38l195 304h215z" />
    <glyph glyph-name="acute" unicode="&#x301;" horiz-adv-x="470" 
d="M440 1456l-351 -342l-59 38l195 304h215z" />
    <glyph glyph-name="breve" unicode="&#x2d8;" horiz-adv-x="746" 
d="M30 1419q0 -169 86.5 -275.5t257.5 -106.5t256.5 106.5t85.5 275.5h-68q-18 -213 -284 -213t-263 213h-71z" />
    <glyph glyph-name="breve" unicode="&#x306;" horiz-adv-x="746" 
d="M30 1419q0 -169 86.5 -275.5t257.5 -106.5t256.5 106.5t85.5 275.5h-68q-18 -213 -284 -213t-263 213h-71z" />
    <glyph glyph-name="breveinvertedcmb" unicode="&#x311;" horiz-adv-x="746" 
d="M30 1037q0 169 86.5 275.5t257.5 106.5t256.5 -106.5t85.5 -275.5h-68q-18 213 -284 213t-263 -213h-71z" />
    <glyph glyph-name="tilde" unicode="&#x2dc;" horiz-adv-x="824" 
d="M751 1450l43 -7q-13 -291 -309 -191l-284 96q-88 30 -125 -96l-46 6q3 281 291 193l303 -92q86 -26 127 91z" />
    <glyph glyph-name="tilde" unicode="&#x303;" horiz-adv-x="824" 
d="M751 1450l43 -7q-13 -291 -309 -191l-284 96q-88 30 -125 -96l-46 6q3 281 291 193l303 -92q86 -26 127 91z" />
    <glyph glyph-name="circumflexcmb" unicode="&#x302;" horiz-adv-x="867" 
d="M400 1414l-370 -359l66 -45l338 253l337 -253l66 45l-370 359h-67z" />
    <glyph glyph-name="caron" unicode="&#x2c7;" horiz-adv-x="867" 
d="M400 1022l-370 359l66 45l338 -253l337 253l66 -45l-370 -359h-67z" />
    <glyph glyph-name="caron" unicode="&#x30c;" horiz-adv-x="867" 
d="M400 1022l-370 359l66 45l338 -253l337 253l66 -45l-370 -359h-67z" />
    <glyph glyph-name="firsttonechinese" unicode="&#x2c9;" horiz-adv-x="822" 
d="M30 1455h762v-102h-762v102z" />
    <glyph glyph-name="firsttonechinese" unicode="&#x304;" horiz-adv-x="822" 
d="M30 1455h762v-102h-762v102z" />
    <glyph glyph-name="dblgravecmb" unicode="&#x30f;" horiz-adv-x="884" 
d="M444 1456l351 -342l59 38l-195 304h-215zM30 1456l351 -342l59 38l-195 304h-215z" />
    <glyph glyph-name="hungarumlaut" unicode="&#x2dd;" horiz-adv-x="884" 
d="M440 1456l-351 -342l-59 38l195 304h215zM854 1456l-351 -342l-59 38l195 304h215z" />
    <glyph glyph-name="hungarumlaut" unicode="&#x30b;" horiz-adv-x="884" 
d="M440 1456l-351 -342l-59 38l195 304h215zM854 1456l-351 -342l-59 38l195 304h215z" />
    <glyph glyph-name="cedillacmb" unicode="&#x327;" horiz-adv-x="444" 
d="M170 -21q-8 -26 -32 -118q156 -63 123 -162t-223 -91l-8 -37q300 -32 342 109t-164 185l28 114h-66z" />
    <glyph glyph-name="Scaron" unicode="&#x160;" horiz-adv-x="1097" 
d="M30 0zM526 1476q-214 0 -350 -118q-118 -111 -118 -279q2 -236 306 -390q52 -27 158 -68q106 -40 181 -82q76 -44 110 -87q38 -52 44 -113q6 -77 -16 -133q-23 -66 -82 -108q-93 -67 -241 -61q-186 7 -306 125q-102 102 -146 284h-36v-446h36q4 65 31 91t59.5 15.5
t86.5 -41.5q141 -80 279 -86q239 -12 387 125q142 133 152 323q6 137 -48 227q-54 85 -160 148q-72 42 -267 114q-201 73 -254 127q-43 42 -54 96q-14 64 4 123q15 62 61 98q75 64 193 66q167 7 269 -116q78 -93 119 -264l37 4l-31 405h-39q-2 -90 -142 -28q-112 49 -223 49
zM500 1583l-370 359l66 45l338 -253l337 253l66 -45l-370 -359h-67z" />
    <glyph glyph-name="Zcaron" unicode="&#x17d;" horiz-adv-x="1251" 
d="M30 0zM113 1455l-21 -345l38 -5q21 304 343 305h383l-826 -1366v-44h1166l25 418l-38 1q-21 -375 -420 -375h-437l834 1365v46h-1047zM596 1558l-370 359l66 45l338 -253l337 253l66 -45l-370 -359h-67z" />
    <glyph glyph-name="scaron" unicode="&#x161;" horiz-adv-x="867" 
d="M0 0zM423 1034q-151 1 -239 -83q-82 -83 -86 -208q-4 -190 177 -280q41 -17 128 -49q68 -21 151 -57q62 -27 90 -61q39 -49 30 -116q-4 -68 -67 -110q-69 -45 -182 -29q-129 20 -222 107q-44 42 -60 79q-16 40 -23 93h-32l6 -320h33q1 38 26 47q26 10 147 -35
q55 -19 123 -27q179 -18 279 81q98 100 105 239q8 181 -148 276q-57 34 -194 80q-147 56 -181 89q-40 42 -36 96q6 58 48 92q53 45 129 44q55 1 100 -17q55 -18 87 -50q83 -73 102 -198h32l-32 300h-34q3 -24 -20 -30q-22 -6 -86 20q-75 27 -151 27zM400 1127l-370 359
l66 45l338 -253l337 253l66 -45l-370 -359h-67z" />
    <glyph glyph-name="zcaron" unicode="&#x17e;" horiz-adv-x="919" 
d="M30 0zM85 1008l-25 -314h30q28 266 266 266h115l-441 -914v-46h749l29 396h-30q-53 -348 -308 -348h-193l455 912v48h-647zM410 1109l-370 359l66 45l338 -253l337 253l66 -45l-370 -359h-67z" />
    <glyph glyph-name="Ydieresis" unicode="&#x178;" horiz-adv-x="1496" 
d="M30 0zM30 1455v-40q124 0 235 -183l269 -439q64 -104 71 -133q16 -54 18 -187v-252q0 -182 -183 -181v-40h620v40q-184 0 -185 181v454q0 72 6 87q9 27 23 44l288 422q126 184 274 187v40h-366v-40q167 -1 38 -184l-300 -427l-270 425q-117 184 62 186v40h-600zM698 1800
q-39 43 -97.5 43t-100.5 -40.5t-42 -101.5t42 -102t100.5 -41t99 41t40.5 102t-42 99zM1234 1800q-40 43 -100.5 43t-101 -40.5t-40.5 -101.5t40.5 -102t101 -41t101.5 41t41 102t-42 99z" />
    <glyph glyph-name="Agrave" unicode="&#xc0;" horiz-adv-x="1551" 
d="M30 0zM722 1455l-477 -1254q-62 -160 -215 -157v-44h369v44q-170 0 -107 157l108 282h515l114 -282q64 -159 -106 -157v-44h598v44q-144 4 -210 157l-521 1254h-68zM651 1137q220 -548 247 -612h-481q16 41 234 612zM584 1889l351 -342l59 38l-195 304h-215z" />
    <glyph glyph-name="Aacute" unicode="&#xc1;" horiz-adv-x="1551" 
d="M30 0zM722 1455l-477 -1254q-62 -160 -215 -157v-44h369v44q-170 0 -107 157l108 282h515l114 -282q64 -159 -106 -157v-44h598v44q-144 4 -210 157l-521 1254h-68zM651 1137q220 -548 247 -612h-481q16 41 234 612zM1049 1889l-351 -342l-59 38l195 304h215z" />
    <glyph glyph-name="Acircumflex" unicode="&#xc2;" horiz-adv-x="1551" 
d="M30 0zM722 1455l-477 -1254q-62 -160 -215 -157v-44h369v44q-170 0 -107 157l108 282h515l114 -282q64 -159 -106 -157v-44h598v44q-144 4 -210 157l-521 1254h-68zM651 1137q220 -548 247 -612h-481q16 41 234 612zM720 1947l-370 -359l66 -45l338 253l337 -253l66 45
l-370 359h-67z" />
    <glyph glyph-name="Atilde" unicode="&#xc3;" horiz-adv-x="1551" 
d="M30 0zM722 1455l-477 -1254q-62 -160 -215 -157v-44h369v44q-170 0 -107 157l108 282h515l114 -282q64 -159 -106 -157v-44h598v44q-144 4 -210 157l-521 1254h-68zM651 1137q220 -548 247 -612h-481q16 41 234 612zM1141 1832l43 -7q-13 -291 -309 -191l-284 96
q-88 30 -125 -96l-46 6q3 281 291 193l303 -92q86 -26 127 91z" />
    <glyph glyph-name="Adieresis" unicode="&#xc4;" horiz-adv-x="1551" 
d="M30 0zM722 1455l-477 -1254q-62 -160 -215 -157v-44h369v44q-170 0 -107 157l108 282h515l114 -282q64 -159 -106 -157v-44h598v44q-144 4 -210 157l-521 1254h-68zM651 1137q220 -548 247 -612h-481q16 41 234 612zM610 1797q-39 43 -97.5 43t-100.5 -40.5t-42 -101.5
t42 -102t100.5 -41t99 41t40.5 102t-42 99zM1146 1797q-40 43 -100.5 43t-101 -40.5t-40.5 -101.5t40.5 -102t101 -41t101.5 41t41 102t-42 99z" />
    <glyph glyph-name="Aring" unicode="&#xc5;" horiz-adv-x="1551" 
d="M30 0zM722 1455l-477 -1254q-62 -160 -215 -157v-44h369v44q-170 0 -107 157l108 282h515l114 -282q64 -159 -106 -157v-44h598v44q-144 4 -210 157l-521 1254h-68zM651 1137q220 -548 247 -612h-481q16 41 234 612zM942 1977q-71 74 -173.5 74t-174 -72.5t-71.5 -175.5
t71.5 -175.5t174 -72.5t175 72.5t72.5 175.5t-74 174zM647 1927q51 51 122.5 51t123.5 -51.5t52 -123.5t-52 -123t-123.5 -51t-121.5 51t-50 123t49 124z" />
    <glyph glyph-name="Ccedilla" unicode="&#xc7;" horiz-adv-x="1409" 
d="M30 0zM821 1476q-233 0 -417 -105t-279 -276q-95 -173 -95 -382q0 -201 100 -371q102 -173 274 -267q178 -97 423 -97q410 0 552 329l-38 11q-147 -286 -501 -286q-518 0 -518 681q0 291 135 495q141 213 357 214q386 0 484 -395l40 4l-26 425h-40q-5 -90 -139 -44
q-188 64 -312 64zM704 -40q-8 -26 -32 -118q156 -63 123 -162t-223 -91l-8 -37q300 -32 342 109t-164 185l28 114h-66z" />
    <glyph glyph-name="Egrave" unicode="&#xc8;" horiz-adv-x="1341" 
d="M30 0zM30 1455v-40q183 3 182 -183v-1011q0 -177 -182 -181v-40h1256l25 415l-36 3q-21 -379 -480 -379q-328 0 -328 244v477h185q213 0 213 -222h39v485h-39q0 -218 -213 -218h-185v606h365q326 0 347 -309l39 6l-22 347h-1166zM381 1891l351 -342l59 38l-195 304h-215z
" />
    <glyph glyph-name="Eacute" unicode="&#xc9;" horiz-adv-x="1341" 
d="M30 0zM30 1455v-40q183 3 182 -183v-1011q0 -177 -182 -181v-40h1256l25 415l-36 3q-21 -379 -480 -379q-328 0 -328 244v477h185q213 0 213 -222h39v485h-39q0 -218 -213 -218h-185v606h365q326 0 347 -309l39 6l-22 347h-1166zM871 1891l-351 -342l-59 38l195 304h215z
" />
    <glyph glyph-name="Ecircumflex" unicode="&#xca;" horiz-adv-x="1341" 
d="M30 0zM30 1455v-40q183 3 182 -183v-1011q0 -177 -182 -181v-40h1256l25 415l-36 3q-21 -379 -480 -379q-328 0 -328 244v477h185q213 0 213 -222h39v485h-39q0 -218 -213 -218h-185v606h365q326 0 347 -309l39 6l-22 347h-1166zM632 1949l-370 -359l66 -45l338 253
l337 -253l66 45l-370 359h-67z" />
    <glyph glyph-name="Edieresis" unicode="&#xcb;" horiz-adv-x="1341" 
d="M30 0zM30 1455v-40q183 3 182 -183v-1011q0 -177 -182 -181v-40h1256l25 415l-36 3q-21 -379 -480 -379q-328 0 -328 244v477h185q213 0 213 -222h39v485h-39q0 -218 -213 -218h-185v606h365q326 0 347 -309l39 6l-22 347h-1166zM501 1799q-39 43 -97.5 43t-100.5 -40.5
t-42 -101.5t42 -102t100.5 -41t99 41t40.5 102t-42 99zM1037 1799q-40 43 -100.5 43t-101 -40.5t-40.5 -101.5t40.5 -102t101 -41t101.5 41t41 102t-42 99z" />
    <glyph glyph-name="Igrave" unicode="&#xcc;" horiz-adv-x="678" 
d="M30 0zM30 1455v-40q181 -1 181 -184v-1008q0 -183 -181 -183v-40h618v40q-181 0 -181 183v1008q0 184 181 184v40h-618zM113 1892l351 -342l59 38l-195 304h-215z" />
    <glyph glyph-name="Iacute" unicode="&#xcd;" horiz-adv-x="678" 
d="M30 0zM30 1455v-40q181 -1 181 -184v-1008q0 -183 -181 -183v-40h618v40q-181 0 -181 183v1008q0 184 181 184v40h-618zM588 1892l-351 -342l-59 38l195 304h215z" />
    <glyph glyph-name="Icircumflex" unicode="&#xce;" horiz-adv-x="867" 
d="M0 0zM126 1455v-40q181 -1 181 -184v-1008q0 -183 -181 -183v-40h618v40q-181 0 -181 183v1008q0 184 181 184v40h-618zM400 1950l-370 -359l66 -45l338 253l337 -253l66 45l-370 359h-67z" />
    <glyph glyph-name="Idieresis" unicode="&#xcf;" horiz-adv-x="878" 
d="M0 0zM126 1455v-40q181 -1 181 -184v-1008q0 -183 -181 -183v-40h618v40q-181 0 -181 183v1008q0 184 181 184v40h-618zM270 1800q-39 43 -97.5 43t-100.5 -40.5t-42 -101.5t42 -102t100.5 -41t99 41t40.5 102t-42 99zM806 1800q-40 43 -100.5 43t-101 -40.5
t-40.5 -101.5t40.5 -102t101 -41t101.5 41t41 102t-42 99z" />
    <glyph glyph-name="Ntilde" unicode="&#xd1;" horiz-adv-x="1508" 
d="M30 0zM30 1455v-40q178 0 179 -183v-1009q-1 -184 -179 -184v-39h408v37q-182 0 -181 186v1073l964 -1296h77v1232q0 183 180 181v42h-409v-40q183 0 183 -183v-785q-463 615 -663 912q-50 62 -50 96h-509zM1081 1835l43 -7q-13 -291 -309 -191l-284 96q-88 30 -125 -96
l-46 6q3 281 291 193l303 -92q86 -26 127 91z" />
    <glyph glyph-name="Ograve" unicode="&#xd2;" horiz-adv-x="1583" 
d="M30 0zM809 1480q-228 -1 -408 -106t-277 -279q-94 -171 -94 -385q0 -310 217 -523q216 -214 535 -214q208 0 387 100q177 98 281 275q103 175 103 391q0 335 -196 537q-198 204 -548 204zM803 1424q216 0 341 -189q123 -186 123 -498q0 -200 -66 -362q-67 -165 -177 -256
q-113 -92 -240 -92q-194 0 -329 198q-137 200 -137 487q0 196 60 356q60 161 171 258q112 98 254 98zM506 1917l351 -342l59 38l-195 304h-215z" />
    <glyph glyph-name="Oacute" unicode="&#xd3;" horiz-adv-x="1583" 
d="M30 0zM809 1480q-228 -1 -408 -106t-277 -279q-94 -171 -94 -385q0 -310 217 -523q216 -214 535 -214q208 0 387 100q177 98 281 275q103 175 103 391q0 335 -196 537q-198 204 -548 204zM803 1424q216 0 341 -189q123 -186 123 -498q0 -200 -66 -362q-67 -165 -177 -256
q-113 -92 -240 -92q-194 0 -329 198q-137 200 -137 487q0 196 60 356q60 161 171 258q112 98 254 98zM996 1917l-351 -342l-59 38l195 304h215z" />
    <glyph glyph-name="Ocircumflex" unicode="&#xd4;" horiz-adv-x="1583" 
d="M30 0zM809 1480q-228 -1 -408 -106t-277 -279q-94 -171 -94 -385q0 -310 217 -523q216 -214 535 -214q208 0 387 100q177 98 281 275q103 175 103 391q0 335 -196 537q-198 204 -548 204zM803 1424q216 0 341 -189q123 -186 123 -498q0 -200 -66 -362q-67 -165 -177 -256
q-113 -92 -240 -92q-194 0 -329 198q-137 200 -137 487q0 196 60 356q60 161 171 258q112 98 254 98zM762 1975l-370 -359l66 -45l338 253l337 -253l66 45l-370 359h-67z" />
    <glyph glyph-name="Otilde" unicode="&#xd5;" horiz-adv-x="1583" 
d="M30 0zM809 1480q-228 -1 -408 -106t-277 -279q-94 -171 -94 -385q0 -310 217 -523q216 -214 535 -214q208 0 387 100q177 98 281 275q103 175 103 391q0 335 -196 537q-198 204 -548 204zM803 1424q216 0 341 -189q123 -186 123 -498q0 -200 -66 -362q-67 -165 -177 -256
q-113 -92 -240 -92q-194 0 -329 198q-137 200 -137 487q0 196 60 356q60 161 171 258q112 98 254 98zM1130 1860l43 -7q-13 -291 -309 -191l-284 96q-88 30 -125 -96l-46 6q3 281 291 193l303 -92q86 -26 127 91z" />
    <glyph glyph-name="Odieresis" unicode="&#xd6;" horiz-adv-x="1583" 
d="M30 0zM809 1480q-228 -1 -408 -106t-277 -279q-94 -171 -94 -385q0 -310 217 -523q216 -214 535 -214q208 0 387 100q177 98 281 275q103 175 103 391q0 335 -196 537q-198 204 -548 204zM803 1424q216 0 341 -189q123 -186 123 -498q0 -200 -66 -362q-67 -165 -177 -256
q-113 -92 -240 -92q-194 0 -329 198q-137 200 -137 487q0 196 60 356q60 161 171 258q112 98 254 98zM582 1825q-39 43 -97.5 43t-100.5 -40.5t-42 -101.5t42 -102t100.5 -41t99 41t40.5 102t-42 99zM1118 1825q-40 43 -100.5 43t-101 -40.5t-40.5 -101.5t40.5 -102t101 -41
t101.5 41t41 102t-42 99z" />
    <glyph glyph-name="Ugrave" unicode="&#xd9;" 
d="M30 0zM30 1454v-39q182 0 181 -183v-783q0 -231 144 -349q153 -123 421 -123q260 0 414 123q156 124 156 349v783q0 183 178 183v39h-407v-39q181 0 181 -183v-783q0 -193 -108 -285q-106 -93 -304 -93q-197 0 -306 95.5t-111 282.5v783q-1 183 181 183v39h-620z
M511 1891l351 -342l59 38l-195 304h-215z" />
    <glyph glyph-name="Uacute" unicode="&#xda;" 
d="M30 0zM30 1454v-39q182 0 181 -183v-783q0 -231 144 -349q153 -123 421 -123q260 0 414 123q156 124 156 349v783q0 183 178 183v39h-407v-39q181 0 181 -183v-783q0 -193 -108 -285q-106 -93 -304 -93q-197 0 -306 95.5t-111 282.5v783q-1 183 181 183v39h-620z
M1071 1891l-351 -342l-59 38l195 304h215z" />
    <glyph glyph-name="Ucircumflex" unicode="&#xdb;" 
d="M30 0zM30 1454v-39q182 0 181 -183v-783q0 -231 144 -349q153 -123 421 -123q260 0 414 123q156 124 156 349v783q0 183 178 183v39h-407v-39q181 0 181 -183v-783q0 -193 -108 -285q-106 -93 -304 -93q-197 0 -306 95.5t-111 282.5v783q-1 183 181 183v39h-620z
M737 1949l-370 -359l66 -45l338 253l337 -253l66 45l-370 359h-67z" />
    <glyph glyph-name="Udieresis" unicode="&#xdc;" 
d="M30 0zM30 1454v-39q182 0 181 -183v-783q0 -231 144 -349q153 -123 421 -123q260 0 414 123q156 124 156 349v783q0 183 178 183v39h-407v-39q181 0 181 -183v-783q0 -193 -108 -285q-106 -93 -304 -93q-197 0 -306 95.5t-111 282.5v783q-1 183 181 183v39h-620z
M622 1799q-39 43 -97.5 43t-100.5 -40.5t-42 -101.5t42 -102t100.5 -41t99 41t40.5 102t-42 99zM1158 1799q-40 43 -100.5 43t-101 -40.5t-40.5 -101.5t40.5 -102t101 -41t101.5 41t41 102t-42 99z" />
    <glyph glyph-name="Yacute" unicode="&#xdd;" horiz-adv-x="1496" 
d="M30 0zM30 1455v-40q124 0 235 -183l269 -439q64 -104 71 -133q16 -54 18 -187v-252q0 -182 -183 -181v-40h620v40q-184 0 -185 181v454q0 72 6 87q9 27 23 44l288 422q126 184 274 187v40h-366v-40q167 -1 38 -184l-300 -427l-270 425q-117 184 62 186v40h-600z
M1107 1892l-351 -342l-59 38l195 304h215z" />
    <glyph glyph-name="agrave" unicode="&#xe0;" horiz-adv-x="1116" 
d="M30 0zM445 1036q-187 -2 -294 -89q-65 -53 -60 -109q6 -39 34 -60q33 -22 66 -14q31 6 53 31q24 25 41 67q33 82 44 92q35 33 116 33q199 0 201 -130q3 -171 -384 -307q-232 -80 -232 -288q0 -129 85 -205q87 -75 216 -80q116 -1 198 45q85 48 124 111q12 -149 214 -149
q107 0 219 75l-16 31q-80 -52 -137 -40q-50 15 -50 108v502q1 134 -41 216q-80 160 -397 160zM646 675v-259q0 -152 -55 -251q-53 -98 -153 -98q-82 -1 -125 62q-41 63 -44 145q-1 83 34 148q35 66 109 101q178 89 234 152zM238 1465l351 -342l59 38l-195 304h-215z" />
    <glyph glyph-name="aacute" unicode="&#xe1;" horiz-adv-x="1116" 
d="M30 0zM445 1036q-187 -2 -294 -89q-65 -53 -60 -109q6 -39 34 -60q33 -22 66 -14q31 6 53 31q24 25 41 67q33 82 44 92q35 33 116 33q199 0 201 -130q3 -171 -384 -307q-232 -80 -232 -288q0 -129 85 -205q87 -75 216 -80q116 -1 198 45q85 48 124 111q12 -149 214 -149
q107 0 219 75l-16 31q-80 -52 -137 -40q-50 15 -50 108v502q1 134 -41 216q-80 160 -397 160zM646 675v-259q0 -152 -55 -251q-53 -98 -153 -98q-82 -1 -125 62q-41 63 -44 145q-1 83 34 148q35 66 109 101q178 89 234 152zM773 1465l-351 -342l-59 38l195 304h215z" />
    <glyph glyph-name="acircumflex" unicode="&#xe2;" horiz-adv-x="1116" 
d="M30 0zM445 1036q-187 -2 -294 -89q-65 -53 -60 -109q6 -39 34 -60q33 -22 66 -14q31 6 53 31q24 25 41 67q33 82 44 92q35 33 116 33q199 0 201 -130q3 -171 -384 -307q-232 -80 -232 -288q0 -129 85 -205q87 -75 216 -80q116 -1 198 45q85 48 124 111q12 -149 214 -149
q107 0 219 75l-16 31q-80 -52 -137 -40q-50 15 -50 108v502q1 134 -41 216q-80 160 -397 160zM646 675v-259q0 -152 -55 -251q-53 -98 -153 -98q-82 -1 -125 62q-41 63 -44 145q-1 83 34 148q35 66 109 101q178 89 234 152zM454 1523l-370 -359l66 -45l338 253l337 -253
l66 45l-370 359h-67z" />
    <glyph glyph-name="atilde" unicode="&#xe3;" horiz-adv-x="1116" 
d="M30 0zM445 1036q-187 -2 -294 -89q-65 -53 -60 -109q6 -39 34 -60q33 -22 66 -14q31 6 53 31q24 25 41 67q33 82 44 92q35 33 116 33q199 0 201 -130q3 -171 -384 -307q-232 -80 -232 -288q0 -129 85 -205q87 -75 216 -80q116 -1 198 45q85 48 124 111q12 -149 214 -149
q107 0 219 75l-16 31q-80 -52 -137 -40q-50 15 -50 108v502q1 134 -41 216q-80 160 -397 160zM646 675v-259q0 -152 -55 -251q-53 -98 -153 -98q-82 -1 -125 62q-41 63 -44 145q-1 83 34 148q35 66 109 101q178 89 234 152zM865 1408l43 -7q-13 -291 -309 -191l-284 96
q-88 30 -125 -96l-46 6q3 281 291 193l303 -92q86 -26 127 91z" />
    <glyph glyph-name="adieresis" unicode="&#xe4;" horiz-adv-x="1116" 
d="M30 0zM445 1036q-187 -2 -294 -89q-65 -53 -60 -109q6 -39 34 -60q33 -22 66 -14q31 6 53 31q24 25 41 67q33 82 44 92q35 33 116 33q199 0 201 -130q3 -171 -384 -307q-232 -80 -232 -288q0 -129 85 -205q87 -75 216 -80q116 -1 198 45q85 48 124 111q12 -149 214 -149
q107 0 219 75l-16 31q-80 -52 -137 -40q-50 15 -50 108v502q1 134 -41 216q-80 160 -397 160zM646 675v-259q0 -152 -55 -251q-53 -98 -153 -98q-82 -1 -125 62q-41 63 -44 145q-1 83 34 148q35 66 109 101q178 89 234 152zM339 1373q-39 43 -97.5 43t-100.5 -40.5
t-42 -101.5t42 -102t100.5 -41t99 41t40.5 102t-42 99zM875 1373q-40 43 -100.5 43t-101 -40.5t-40.5 -101.5t40.5 -102t101 -41t101.5 41t41 102t-42 99z" />
    <glyph glyph-name="aring" unicode="&#xe5;" horiz-adv-x="1116" 
d="M30 0zM445 1036q-187 -2 -294 -89q-65 -53 -60 -109q6 -39 34 -60q33 -22 66 -14q31 6 53 31q24 25 41 67q33 82 44 92q35 33 116 33q199 0 201 -130q3 -171 -384 -307q-232 -80 -232 -288q0 -129 85 -205q87 -75 216 -80q116 -1 198 45q85 48 124 111q12 -149 214 -149
q107 0 219 75l-16 31q-80 -52 -137 -40q-50 15 -50 108v502q1 134 -41 216q-80 160 -397 160zM646 675v-259q0 -152 -55 -251q-53 -98 -153 -98q-82 -1 -125 62q-41 63 -44 145q-1 83 34 148q35 66 109 101q178 89 234 152zM656 1553q-71 74 -173.5 74t-174 -72.5
t-71.5 -175.5t71.5 -175.5t174 -72.5t175 72.5t72.5 175.5t-74 174zM361 1503q51 51 122.5 51t123.5 -51.5t52 -123.5t-52 -123t-123.5 -51t-121.5 51t-50 123t49 124z" />
    <glyph glyph-name="ccedilla" unicode="&#xe7;" horiz-adv-x="989" 
d="M30 0zM543 1034q-246 0 -380 -157q-132 -152 -133 -386q1 -218 143 -366q138 -147 350 -148q170 0 283 110q119 114 153 314h-32q-83 -318 -309 -327q-145 -4 -238 119q-93 126 -97 300q-2 117 27 227q31 110 96 186q67 79 153 79q79 -1 115 -34q15 -12 37 -88
q17 -54 39 -76q22 -23 54 -31q36 -6 66 12q34 20 38 58q8 60 -61 114q-118 94 -304 94zM474 -36q-8 -26 -32 -118q156 -63 123 -162t-223 -91l-8 -37q300 -32 342 109t-164 185l28 114h-66z" />
    <glyph glyph-name="egrave" unicode="&#xe8;" horiz-adv-x="1037" 
d="M30 0zM528 1036q-220 0 -360 -157q-138 -153 -138 -381q0 -220 138 -368q141 -150 341 -150q181 0 312 113q132 114 173 315h-32q-43 -144 -130 -232t-215 -91q-148 -4 -247 133q-99 138 -86 330h723q-10 222 -136 355q-124 133 -343 133zM523 991q79 3 135 -72
q57 -74 75 -161q20 -86 17 -161h-463q4 59 17 120q13 63 39 125q26 64 72 105q48 42 108 44zM300 1475l351 -342l59 38l-195 304h-215z" />
    <glyph glyph-name="eacute" unicode="&#xe9;" horiz-adv-x="1037" 
d="M30 0zM528 1036q-220 0 -360 -157q-138 -153 -138 -381q0 -220 138 -368q141 -150 341 -150q181 0 312 113q132 114 173 315h-32q-43 -144 -130 -232t-215 -91q-148 -4 -247 133q-99 138 -86 330h723q-10 222 -136 355q-124 133 -343 133zM523 991q79 3 135 -72
q57 -74 75 -161q20 -86 17 -161h-463q4 59 17 120q13 63 39 125q26 64 72 105q48 42 108 44zM775 1475l-351 -342l-59 38l195 304h215z" />
    <glyph glyph-name="ecircumflex" unicode="&#xea;" horiz-adv-x="1037" 
d="M30 0zM528 1036q-220 0 -360 -157q-138 -153 -138 -381q0 -220 138 -368q141 -150 341 -150q181 0 312 113q132 114 173 315h-32q-43 -144 -130 -232t-215 -91q-148 -4 -247 133q-99 138 -86 330h723q-10 222 -136 355q-124 133 -343 133zM523 991q79 3 135 -72
q57 -74 75 -161q20 -86 17 -161h-463q4 59 17 120q13 63 39 125q26 64 72 105q48 42 108 44zM506 1533l-370 -359l66 -45l338 253l337 -253l66 45l-370 359h-67z" />
    <glyph glyph-name="edieresis" unicode="&#xeb;" horiz-adv-x="1037" 
d="M30 0zM528 1036q-220 0 -360 -157q-138 -153 -138 -381q0 -220 138 -368q141 -150 341 -150q181 0 312 113q132 114 173 315h-32q-43 -144 -130 -232t-215 -91q-148 -4 -247 133q-99 138 -86 330h723q-10 222 -136 355q-124 133 -343 133zM523 991q79 3 135 -72
q57 -74 75 -161q20 -86 17 -161h-463q4 59 17 120q13 63 39 125q26 64 72 105q48 42 108 44zM386 1383q-39 43 -97.5 43t-100.5 -40.5t-42 -101.5t42 -102t100.5 -41t99 41t40.5 102t-42 99zM922 1383q-40 43 -100.5 43t-101 -40.5t-40.5 -101.5t40.5 -102t101 -41t101.5 41
t41 102t-42 99z" />
    <glyph glyph-name="ntilde" unicode="&#xf1;" horiz-adv-x="1210" 
d="M30 0zM709 1030q-180 0 -296 -135q-5 109 -31 135l-352 -56v-35q141 25 141 -147v-545q0 -210 -141 -213v-34h523v34q-140 3 -140 213v475q0 90 55 156q57 67 138 67q91 1 145 -66q55 -66 54 -157v-475q0 -210 -138 -213v-34h513v34q-138 3 -138 213v442q0 166 -88 255
q-92 90 -245 86zM937 1416l43 -7q-13 -291 -309 -191l-284 96q-88 30 -125 -96l-46 6q3 281 291 193l303 -92q86 -26 127 91z" />
    <glyph glyph-name="ograve" unicode="&#xf2;" horiz-adv-x="1062" 
d="M30 0zM542 1033q-225 1 -369 -157q-143 -156 -143 -381q0 -219 142 -368q144 -150 351 -150q208 0 358 156q151 156 151 381q-6 234 -139 376q-131 142 -351 143zM542 984q112 0 173 -130q61 -129 61 -341q0 -204 -72 -345q-70 -141 -173 -141q-99 0 -168 135
q-69 138 -69 335q0 202 69 344q71 143 179 143zM340 1466l351 -342l59 38l-195 304h-215z" />
    <glyph glyph-name="oacute" unicode="&#xf3;" horiz-adv-x="1062" 
d="M30 0zM542 1033q-225 1 -369 -157q-143 -156 -143 -381q0 -219 142 -368q144 -150 351 -150q208 0 358 156q151 156 151 381q-6 234 -139 376q-131 142 -351 143zM542 984q112 0 173 -130q61 -129 61 -341q0 -204 -72 -345q-70 -141 -173 -141q-99 0 -168 135
q-69 138 -69 335q0 202 69 344q71 143 179 143zM785 1466l-351 -342l-59 38l195 304h215z" />
    <glyph glyph-name="ocircumflex" unicode="&#xf4;" horiz-adv-x="1062" 
d="M30 0zM542 1033q-225 1 -369 -157q-143 -156 -143 -381q0 -219 142 -368q144 -150 351 -150q208 0 358 156q151 156 151 381q-6 234 -139 376q-131 142 -351 143zM542 984q112 0 173 -130q61 -129 61 -341q0 -204 -72 -345q-70 -141 -173 -141q-99 0 -168 135
q-69 138 -69 335q0 202 69 344q71 143 179 143zM496 1524l-370 -359l66 -45l338 253l337 -253l66 45l-370 359h-67z" />
    <glyph glyph-name="otilde" unicode="&#xf5;" horiz-adv-x="1062" 
d="M30 0zM542 1033q-225 1 -369 -157q-143 -156 -143 -381q0 -219 142 -368q144 -150 351 -150q208 0 358 156q151 156 151 381q-6 234 -139 376q-131 142 -351 143zM542 984q112 0 173 -130q61 -129 61 -341q0 -204 -72 -345q-70 -141 -173 -141q-99 0 -168 135
q-69 138 -69 335q0 202 69 344q71 143 179 143zM865 1409l43 -7q-13 -291 -309 -191l-284 96q-88 30 -125 -96l-46 6q3 281 291 193l303 -92q86 -26 127 91z" />
    <glyph glyph-name="odieresis" unicode="&#xf6;" horiz-adv-x="1062" 
d="M30 0zM542 1033q-225 1 -369 -157q-143 -156 -143 -381q0 -219 142 -368q144 -150 351 -150q208 0 358 156q151 156 151 381q-6 234 -139 376q-131 142 -351 143zM542 984q112 0 173 -130q61 -129 61 -341q0 -204 -72 -345q-70 -141 -173 -141q-99 0 -168 135
q-69 138 -69 335q0 202 69 344q71 143 179 143zM349 1374q-39 43 -97.5 43t-100.5 -40.5t-42 -101.5t42 -102t100.5 -41t99 41t40.5 102t-42 99zM885 1374q-40 43 -100.5 43t-101 -40.5t-40.5 -101.5t40.5 -102t101 -41t101.5 41t41 102t-42 99z" />
    <glyph glyph-name="ugrave" unicode="&#xf9;" horiz-adv-x="1211" 
d="M30 0zM481 -22q182 1 296 135q5 -107 31 -135l353 61v35q-141 -24 -141 153v781l-382 -1v-34q140 -3 140 -213l-1 -474q1 -90 -54 -156q-57 -67 -139 -67q-89 0 -144 66q-55 68 -55 157v722h-375v-34q138 -3 138 -213v-442q1 -165 89 -255q92 -89 244 -86zM326 1444
l351 -342l59 38l-195 304h-215z" />
    <glyph glyph-name="uacute" unicode="&#xfa;" horiz-adv-x="1211" 
d="M30 0zM481 -22q182 1 296 135q5 -107 31 -135l353 61v35q-141 -24 -141 153v781l-382 -1v-34q140 -3 140 -213l-1 -474q1 -90 -54 -156q-57 -67 -139 -67q-89 0 -144 66q-55 68 -55 157v722h-375v-34q138 -3 138 -213v-442q1 -165 89 -255q92 -89 244 -86zM851 1444
l-351 -342l-59 38l195 304h215z" />
    <glyph glyph-name="ucircumflex" unicode="&#xfb;" horiz-adv-x="1211" 
d="M30 0zM481 -22q182 1 296 135q5 -107 31 -135l353 61v35q-141 -24 -141 153v781l-382 -1v-34q140 -3 140 -213l-1 -474q1 -90 -54 -156q-57 -67 -139 -67q-89 0 -144 66q-55 68 -55 157v722h-375v-34q138 -3 138 -213v-442q1 -165 89 -255q92 -89 244 -86zM537 1502
l-370 -359l66 -45l338 253l337 -253l66 45l-370 359h-67z" />
    <glyph glyph-name="udieresis" unicode="&#xfc;" horiz-adv-x="1211" 
d="M30 0zM481 -22q182 1 296 135q5 -107 31 -135l353 61v35q-141 -24 -141 153v781l-382 -1v-34q140 -3 140 -213l-1 -474q1 -90 -54 -156q-57 -67 -139 -67q-89 0 -144 66q-55 68 -55 157v722h-375v-34q138 -3 138 -213v-442q1 -165 89 -255q92 -89 244 -86zM412 1352
q-39 43 -97.5 43t-100.5 -40.5t-42 -101.5t42 -102t100.5 -41t99 41t40.5 102t-42 99zM948 1352q-40 43 -100.5 43t-101 -40.5t-40.5 -101.5t40.5 -102t101 -41t101.5 41t41 102t-42 99z" />
    <glyph glyph-name="yacute" unicode="&#xfd;" horiz-adv-x="1217" 
d="M30 0zM47 974q127 0 214 -210l316 -764l-109 -252q-45 -104 -107 -136q-38 -20 -84 -3q-28 10 -72 61q-44 52 -106 34q-40 -12 -54.5 -53.5t2 -86.5t72.5 -67t132.5 -10t142.5 66t119 178l442 1033q88 206 232 210v34h-344v-34q151 -1 64 -202l-201 -462l-187 454
q-86 210 31 210v34h-503v-34zM951 1445l-351 -342l-59 38l195 304h215z" />
    <glyph glyph-name="ydieresis" unicode="&#xff;" horiz-adv-x="1217" 
d="M30 0zM47 974q127 0 214 -210l316 -764l-109 -252q-45 -104 -107 -136q-38 -20 -84 -3q-28 10 -72 61q-44 52 -106 34q-40 -12 -54.5 -53.5t2 -86.5t72.5 -67t132.5 -10t142.5 66t119 178l442 1033q88 206 232 210v34h-344v-34q151 -1 64 -202l-201 -462l-187 454
q-86 210 31 210v34h-503v-34zM487 1353q-39 43 -97.5 43t-100.5 -40.5t-42 -101.5t42 -102t100.5 -41t99 41t40.5 102t-42 99zM1023 1353q-40 43 -100.5 43t-101 -40.5t-40.5 -101.5t40.5 -102t101 -41t101.5 41t41 102t-42 99z" />
    <glyph glyph-name="Amacron" unicode="&#x100;" horiz-adv-x="1551" 
d="M30 0zM722 1455l-477 -1254q-62 -160 -215 -157v-44h369v44q-170 0 -107 157l108 282h515l114 -282q64 -159 -106 -157v-44h598v44q-144 4 -210 157l-521 1254h-68zM651 1137q220 -548 247 -612h-481q16 41 234 612zM399 1658h762v-102h-762v102z" />
    <glyph glyph-name="amacron" unicode="&#x101;" horiz-adv-x="1116" 
d="M30 0zM445 1036q-187 -2 -294 -89q-65 -53 -60 -109q6 -39 34 -60q33 -22 66 -14q31 6 53 31q24 25 41 67q33 82 44 92q35 33 116 33q199 0 201 -130q3 -171 -384 -307q-232 -80 -232 -288q0 -129 85 -205q87 -75 216 -80q116 -1 198 45q85 48 124 111q12 -149 214 -149
q107 0 219 75l-16 31q-80 -52 -137 -40q-50 15 -50 108v502q1 134 -41 216q-80 160 -397 160zM646 675v-259q0 -152 -55 -251q-53 -98 -153 -98q-82 -1 -125 62q-41 63 -44 145q-1 83 34 148q35 66 109 101q178 89 234 152zM121 1234h762v-102h-762v102z" />
    <glyph glyph-name="Abreve" unicode="&#x102;" horiz-adv-x="1551" 
d="M30 0zM722 1455l-477 -1254q-62 -160 -215 -157v-44h369v44q-170 0 -107 157l108 282h515l114 -282q64 -159 -106 -157v-44h598v44q-144 4 -210 157l-521 1254h-68zM651 1137q220 -548 247 -612h-481q16 41 234 612zM457 1935q0 -169 86.5 -275.5t257.5 -106.5
t256.5 106.5t85.5 275.5h-68q-18 -213 -284 -213t-263 213h-71z" />
    <glyph glyph-name="abreve" unicode="&#x103;" horiz-adv-x="1116" 
d="M30 0zM445 1036q-187 -2 -294 -89q-65 -53 -60 -109q6 -39 34 -60q33 -22 66 -14q31 6 53 31q24 25 41 67q33 82 44 92q35 33 116 33q199 0 201 -130q3 -171 -384 -307q-232 -80 -232 -288q0 -129 85 -205q87 -75 216 -80q116 -1 198 45q85 48 124 111q12 -149 214 -149
q107 0 219 75l-16 31q-80 -52 -137 -40q-50 15 -50 108v502q1 134 -41 216q-80 160 -397 160zM646 675v-259q0 -152 -55 -251q-53 -98 -153 -98q-82 -1 -125 62q-41 63 -44 145q-1 83 34 148q35 66 109 101q178 89 234 152zM160 1511q0 -169 86.5 -275.5t257.5 -106.5
t256.5 106.5t85.5 275.5h-68q-18 -213 -284 -213t-263 213h-71z" />
    <glyph glyph-name="Aogonek" unicode="&#x104;" horiz-adv-x="1551" 
d="M30 0zM722 1455l-477 -1254q-62 -160 -215 -157v-44h369v44q-170 0 -107 157l108 282h515l114 -282q64 -159 -106 -157v-44h598v44q-144 4 -210 157l-521 1254h-68zM651 1137q220 -548 247 -612h-481q16 41 234 612zM1470 1q0 -2 -198 -190q-106 -101 -122 -134
q-15 -29 -13 -64q5 -60 74 -93t204 3l4 -38q-167 -57 -291.5 -24t-140.5 132q-9 62 25.5 110.5t122.5 112.5l249 185h86z" />
    <glyph glyph-name="aogonek" unicode="&#x105;" horiz-adv-x="1116" 
d="M30 0zM445 1036q-187 -2 -294 -89q-65 -53 -60 -109q6 -39 34 -60q33 -22 66 -14q31 6 53 31q24 25 41 67q33 82 44 92q35 33 116 33q199 0 201 -130q3 -171 -384 -307q-232 -80 -232 -288q0 -129 85 -205q87 -75 216 -80q116 -1 198 45q85 48 124 111q12 -149 214 -149
q107 0 219 75l-16 31q-80 -52 -137 -40q-50 15 -50 108v502q1 134 -41 216q-80 160 -397 160zM646 675v-259q0 -152 -55 -251q-53 -98 -153 -98q-82 -1 -125 62q-41 63 -44 145q-1 83 34 148q35 66 109 101q178 89 234 152zM903 -14q0 -2 -198 -190q-106 -101 -122 -134
q-15 -29 -13 -64q5 -60 74 -93t204 3l4 -38q-167 -57 -291.5 -24t-140.5 132q-9 62 25.5 110.5t122.5 112.5l249 185h86z" />
    <glyph glyph-name="Cacute" unicode="&#x106;" horiz-adv-x="1409" 
d="M30 0zM821 1476q-233 0 -417 -105t-279 -276q-95 -173 -95 -382q0 -201 100 -371q102 -173 274 -267q178 -97 423 -97q410 0 552 329l-38 11q-147 -286 -501 -286q-518 0 -518 681q0 291 135 495q141 213 357 214q386 0 484 -395l40 4l-26 425h-40q-5 -90 -139 -44
q-188 64 -312 64zM943 1911l-351 -342l-59 38l195 304h215z" />
    <glyph glyph-name="cacute" unicode="&#x107;" horiz-adv-x="989" 
d="M30 0zM543 1034q-246 0 -380 -157q-132 -152 -133 -386q1 -218 143 -366q138 -147 350 -148q170 0 283 110q119 114 153 314h-32q-83 -318 -309 -327q-145 -4 -238 119q-93 126 -97 300q-2 117 27 227q31 110 96 186q67 79 153 79q79 -1 115 -34q15 -12 37 -88
q17 -54 39 -76q22 -23 54 -31q36 -6 66 12q34 20 38 58q8 60 -61 114q-118 94 -304 94zM743 1457l-351 -342l-59 38l195 304h215z" />
    <glyph glyph-name="Ccircumflex" unicode="&#x108;" horiz-adv-x="1409" 
d="M30 0zM821 1476q-233 0 -417 -105t-279 -276q-95 -173 -95 -382q0 -201 100 -371q102 -173 274 -267q178 -97 423 -97q410 0 552 329l-38 11q-147 -286 -501 -286q-518 0 -518 681q0 291 135 495q141 213 357 214q386 0 484 -395l40 4l-26 425h-40q-5 -90 -139 -44
q-188 64 -312 64zM695 1969l-370 -359l66 -45l338 253l337 -253l66 45l-370 359h-67z" />
    <glyph glyph-name="ccircumflex" unicode="&#x109;" horiz-adv-x="989" 
d="M30 0zM543 1034q-246 0 -380 -157q-132 -152 -133 -386q1 -218 143 -366q138 -147 350 -148q170 0 283 110q119 114 153 314h-32q-83 -318 -309 -327q-145 -4 -238 119q-93 126 -97 300q-2 117 27 227q31 110 96 186q67 79 153 79q79 -1 115 -34q15 -12 37 -88
q17 -54 39 -76q22 -23 54 -31q36 -6 66 12q34 20 38 58q8 60 -61 114q-118 94 -304 94zM462 1515l-370 -359l66 -45l338 253l337 -253l66 45l-370 359h-67z" />
    <glyph glyph-name="Ccaron" unicode="&#x10c;" horiz-adv-x="1409" 
d="M30 0zM821 1476q-233 0 -417 -105t-279 -276q-95 -173 -95 -382q0 -201 100 -371q102 -173 274 -267q178 -97 423 -97q410 0 552 329l-38 11q-147 -286 -501 -286q-518 0 -518 681q0 291 135 495q141 213 357 214q386 0 484 -395l40 4l-26 425h-40q-5 -90 -139 -44
q-188 64 -312 64zM703 1577l-370 359l66 45l338 -253l337 253l66 -45l-370 -359h-67z" />
    <glyph glyph-name="ccaron" unicode="&#x10d;" horiz-adv-x="989" 
d="M30 0zM543 1034q-246 0 -380 -157q-132 -152 -133 -386q1 -218 143 -366q138 -147 350 -148q170 0 283 110q119 114 153 314h-32q-83 -318 -309 -327q-145 -4 -238 119q-93 126 -97 300q-2 117 27 227q31 110 96 186q67 79 153 79q79 -1 115 -34q15 -12 37 -88
q17 -54 39 -76q22 -23 54 -31q36 -6 66 12q34 20 38 58q8 60 -61 114q-118 94 -304 94zM480 1123l-370 359l66 45l338 -253l337 253l66 -45l-370 -359h-67z" />
    <glyph glyph-name="Dcaron" unicode="&#x10e;" horiz-adv-x="1610" 
d="M30 0zM30 1455v-40q183 -3 183 -183v-1011q0 -178 -183 -181v-40h851q294 0 496 214q203 215 195 514q-2 146 -66 283q-59 129 -161 229q-102 98 -247 158q-142 57 -302 57h-766zM467 1411h177q129 0 259 -52t216 -148q178 -198 187 -483q4 -164 -42 -301
q-43 -131 -129 -223q-88 -94 -181 -126q-92 -32 -206 -32q-281 0 -281 237v1128zM668 1559l-370 359l66 45l338 -253l337 253l66 -45l-370 -359h-67z" />
    <glyph glyph-name="dcaron" unicode="&#x10f;" horiz-adv-x="1200" 
d="M30 0zM801 -24l346 84v34q-144 -24 -145 147v1274l-376 -60v-36q138 27 138 -146v-343q-127 96 -292 100q-189 0 -314 -149q-128 -148 -128 -390q0 -241 117 -377q118 -136 314 -136q160 0 303 118q7 -90 37 -120zM541 959q64 0 127 -36q62 -35 96 -79v-536
q0 -112 -68 -186q-69 -68 -145 -74q-120 -6 -202 129q-80 133 -79 337q0 202 70 323q73 123 201 122zM733 1672l-370 359l66 45l338 -253l337 253l66 -45l-370 -359h-67z" />
    <glyph glyph-name="Emacron" unicode="&#x112;" horiz-adv-x="1341" 
d="M30 0zM30 1455v-40q183 3 182 -183v-1011q0 -177 -182 -181v-40h1256l25 415l-36 3q-21 -379 -480 -379q-328 0 -328 244v477h185q213 0 213 -222h39v485h-39q0 -218 -213 -218h-185v606h365q326 0 347 -309l39 6l-22 347h-1166zM285 1660h762v-102h-762v102z" />
    <glyph glyph-name="emacron" unicode="&#x113;" horiz-adv-x="1037" 
d="M30 0zM528 1036q-220 0 -360 -157q-138 -153 -138 -381q0 -220 138 -368q141 -150 341 -150q181 0 312 113q132 114 173 315h-32q-43 -144 -130 -232t-215 -91q-148 -4 -247 133q-99 138 -86 330h723q-10 222 -136 355q-124 133 -343 133zM523 991q79 3 135 -72
q57 -74 75 -161q20 -86 17 -161h-463q4 59 17 120q13 63 39 125q26 64 72 105q48 42 108 44zM159 1244h762v-102h-762v102z" />
    <glyph glyph-name="Ebreve" unicode="&#x114;" horiz-adv-x="1341" 
d="M30 0zM30 1455v-40q183 3 182 -183v-1011q0 -177 -182 -181v-40h1256l25 415l-36 3q-21 -379 -480 -379q-328 0 -328 244v477h185q213 0 213 -222h39v485h-39q0 -218 -213 -218h-185v606h365q326 0 347 -309l39 6l-22 347h-1166zM321 1937q0 -169 86.5 -275.5
t257.5 -106.5t256.5 106.5t85.5 275.5h-68q-18 -213 -284 -213t-263 213h-71z" />
    <glyph glyph-name="ebreve" unicode="&#x115;" horiz-adv-x="1037" 
d="M30 0zM528 1036q-220 0 -360 -157q-138 -153 -138 -381q0 -220 138 -368q141 -150 341 -150q181 0 312 113q132 114 173 315h-32q-43 -144 -130 -232t-215 -91q-148 -4 -247 133q-99 138 -86 330h723q-10 222 -136 355q-124 133 -343 133zM523 991q79 3 135 -72
q57 -74 75 -161q20 -86 17 -161h-463q4 59 17 120q13 63 39 125q26 64 72 105q48 42 108 44zM209 1521q0 -169 86.5 -275.5t257.5 -106.5t256.5 106.5t85.5 275.5h-68q-18 -213 -284 -213t-263 213h-71z" />
    <glyph glyph-name="Eogonek" unicode="&#x118;" horiz-adv-x="1341" 
d="M30 0zM30 1455v-40q183 3 182 -183v-1011q0 -177 -182 -181v-40h1256l25 415l-36 3q-21 -379 -480 -379q-328 0 -328 244v477h185q213 0 213 -222h39v485h-39q0 -218 -213 -218h-185v606h365q326 0 347 -309l39 6l-22 347h-1166zM1139 0q0 -2 -198 -190
q-106 -101 -122 -134q-15 -29 -13 -64q5 -60 74 -93t204 3l4 -38q-167 -57 -291.5 -24t-140.5 132q-9 62 25.5 110.5t122.5 112.5l249 185h86z" />
    <glyph glyph-name="eogonek" unicode="&#x119;" horiz-adv-x="1037" 
d="M30 0zM528 1036q-220 0 -360 -157q-138 -153 -138 -381q0 -220 138 -368q141 -150 341 -150q181 0 312 113q132 114 173 315h-32q-43 -144 -130 -232t-215 -91q-148 -4 -247 133q-99 138 -86 330h723q-10 222 -136 355q-124 133 -343 133zM523 991q79 3 135 -72
q57 -74 75 -161q20 -86 17 -161h-463q4 59 17 120q13 63 39 125q26 64 72 105q48 42 108 44zM697 18q0 -2 -198 -190q-106 -101 -122 -134q-15 -29 -13 -64q5 -60 74 -93t204 3l4 -38q-167 -57 -291.5 -24t-140.5 132q-9 62 25.5 110.5t122.5 112.5l249 185h86z" />
    <glyph glyph-name="Ecaron" unicode="&#x11a;" horiz-adv-x="1341" 
d="M30 0zM30 1455v-40q183 3 182 -183v-1011q0 -177 -182 -181v-40h1256l25 415l-36 3q-21 -379 -480 -379q-328 0 -328 244v477h185q213 0 213 -222h39v485h-39q0 -218 -213 -218h-185v606h365q326 0 347 -309l39 6l-22 347h-1166zM632 1557l-370 359l66 45l338 -253
l337 253l66 -45l-370 -359h-67z" />
    <glyph glyph-name="ecaron" unicode="&#x11b;" horiz-adv-x="1037" 
d="M30 0zM528 1036q-220 0 -360 -157q-138 -153 -138 -381q0 -220 138 -368q141 -150 341 -150q181 0 312 113q132 114 173 315h-32q-43 -144 -130 -232t-215 -91q-148 -4 -247 133q-99 138 -86 330h723q-10 222 -136 355q-124 133 -343 133zM523 991q79 3 135 -72
q57 -74 75 -161q20 -86 17 -161h-463q4 59 17 120q13 63 39 125q26 64 72 105q48 42 108 44zM494 1141l-370 359l66 45l338 -253l337 253l66 -45l-370 -359h-67z" />
    <glyph glyph-name="Gcircumflex" unicode="&#x11c;" horiz-adv-x="1592" 
d="M30 0zM825 1477q-237 0 -419 -105q-181 -104 -277 -278q-99 -178 -99 -380q0 -318 218 -532q213 -211 544 -205q185 5 335 67q133 54 239 146v171q0 188 196 231v44h-656v-44q198 -46 198 -231v-52q0 -128 -85 -203q-84 -77 -230 -74q-156 0 -262 93q-110 94 -154 240
q-48 156 -48 349q1 290 136 496q138 210 356 212q389 -1 487 -395l37 4l-23 424h-39q-8 -89 -142 -43q-189 64 -312 65zM703 1973l-370 -359l66 -45l338 253l337 -253l66 45l-370 359h-67z" />
    <glyph glyph-name="gcircumflex" unicode="&#x11d;" horiz-adv-x="1229" 
d="M30 0zM547 993q75 -1 121 -47q84 -88 85 -268q0 -140 -63 -229q-58 -93 -143 -93q-89 0 -148 87q-57 85 -57 223q0 132 54 226q54 102 151 101zM149 -47q52 -32 94 -44q42 -14 124 -14h493q80 0 124 -33q38 -28 40 -74.5t-22 -84.5t-63 -67q-163 -113 -405 -119
q-240 -6 -351 65t-107 195q3 104 73 176zM927 1142q-148 0 -259 -122q-74 14 -114 13q-203 0 -328 -105q-129 -104 -129 -260q0 -86 48 -160q47 -74 122 -121q-183 -93 -211 -228q-8 -39 5.5 -89t57.5 -96q-87 -86 -89 -204q-2 -72 30 -135t104 -102q142 -78 374 -74
q234 4 404 94q219 116 219 305q-2 296 -389 296h-408q-124 0 -145 72q-10 36 14 78q21 42 61 69v-4q106 -54 248 -54q192 1 322 101q136 112 136 262q0 130 -73 214q-65 80 -200 116q31 40 65 47q38 11 65 -4q31 -15 73 -61q29 -32 61 -47q31 -15 69 -7t53.5 40t6.5 66
q-12 50 -81 80q-46 18 -112 20zM549 1644l-370 -359l66 -45l338 253l337 -253l66 45l-370 359h-67z" />
    <glyph glyph-name="Gbreve" unicode="&#x11e;" horiz-adv-x="1592" 
d="M30 0zM825 1477q-237 0 -419 -105q-181 -104 -277 -278q-99 -178 -99 -380q0 -318 218 -532q213 -211 544 -205q185 5 335 67q133 54 239 146v171q0 188 196 231v44h-656v-44q198 -46 198 -231v-52q0 -128 -85 -203q-84 -77 -230 -74q-156 0 -262 93q-110 94 -154 240
q-48 156 -48 349q1 290 136 496q138 210 356 212q389 -1 487 -395l37 4l-23 424h-39q-8 -89 -142 -43q-189 64 -312 65zM425 1961q0 -169 86.5 -275.5t257.5 -106.5t256.5 106.5t85.5 275.5h-68q-18 -213 -284 -213t-263 213h-71z" />
    <glyph glyph-name="gbreve" unicode="&#x11f;" horiz-adv-x="1229" 
d="M30 0zM547 993q75 -1 121 -47q84 -88 85 -268q0 -140 -63 -229q-58 -93 -143 -93q-89 0 -148 87q-57 85 -57 223q0 132 54 226q54 102 151 101zM149 -47q52 -32 94 -44q42 -14 124 -14h493q80 0 124 -33q38 -28 40 -74.5t-22 -84.5t-63 -67q-163 -113 -405 -119
q-240 -6 -351 65t-107 195q3 104 73 176zM927 1142q-148 0 -259 -122q-74 14 -114 13q-203 0 -328 -105q-129 -104 -129 -260q0 -86 48 -160q47 -74 122 -121q-183 -93 -211 -228q-8 -39 5.5 -89t57.5 -96q-87 -86 -89 -204q-2 -72 30 -135t104 -102q142 -78 374 -74
q234 4 404 94q219 116 219 305q-2 296 -389 296h-408q-124 0 -145 72q-10 36 14 78q21 42 61 69v-4q106 -54 248 -54q192 1 322 101q136 112 136 262q0 130 -73 214q-65 80 -200 116q31 40 65 47q38 11 65 -4q31 -15 73 -61q29 -32 61 -47q31 -15 69 -7t53.5 40t6.5 66
q-12 50 -81 80q-46 18 -112 20zM247 1632q0 -169 86.5 -275.5t257.5 -106.5t256.5 106.5t85.5 275.5h-68q-18 -213 -284 -213t-263 213h-71z" />
    <glyph glyph-name="Gcedilla" unicode="&#x122;" horiz-adv-x="1592" 
d="M30 0zM825 1477q-237 0 -419 -105q-181 -104 -277 -278q-99 -178 -99 -380q0 -318 218 -532q213 -211 544 -205q185 5 335 67q133 54 239 146v171q0 188 196 231v44h-656v-44q198 -46 198 -231v-52q0 -128 -85 -203q-84 -77 -230 -74q-156 0 -262 93q-110 94 -154 240
q-48 156 -48 349q1 290 136 496q138 210 356 212q389 -1 487 -395l37 4l-23 424h-39q-8 -89 -142 -43q-189 64 -312 65zM717 -53q-8 -26 -32 -118q156 -63 123 -162t-223 -91l-8 -37q300 -32 342 109t-164 185l28 114h-66z" />
    <glyph glyph-name="gcedilla" unicode="&#x123;" horiz-adv-x="1229" 
d="M28 0zM547 993q75 -1 121 -47q84 -88 85 -268q0 -140 -63 -229q-58 -93 -143 -93q-89 0 -148 87q-57 85 -57 223q0 132 54 226q54 102 151 101zM149 -47q52 -32 94 -44q42 -14 124 -14h493q80 0 124 -33q38 -28 40 -74.5t-22 -84.5t-63 -67q-163 -113 -405 -119
q-240 -6 -351 65t-107 195q3 104 73 176zM927 1142q-148 0 -259 -122q-74 14 -114 13q-203 0 -328 -105q-129 -104 -129 -260q0 -86 48 -160q47 -74 122 -121q-183 -93 -211 -228q-8 -39 5.5 -89t57.5 -96q-87 -86 -89 -204q-2 -72 30 -135t104 -102q142 -78 374 -74
q234 4 404 94q219 116 219 305q-2 296 -389 296h-408q-124 0 -145 72q-10 36 14 78q21 42 61 69v-4q106 -54 248 -54q192 1 322 101q136 112 136 262q0 130 -73 214q-65 80 -200 116q31 40 65 47q38 11 65 -4q31 -15 73 -61q29 -32 61 -47q31 -15 69 -7t53.5 40t6.5 66
q-12 50 -81 80q-46 18 -112 20zM544 -590q-8 -26 -32 -118q156 -63 123 -162t-223 -91l-8 -37q300 -32 342 109t-164 185l28 114h-66z" />
    <glyph glyph-name="Hcircumflex" unicode="&#x124;" horiz-adv-x="1647" 
d="M30 0zM30 1455v-40q181 -1 181 -184v-1008q0 -188 -181 -183v-40h618v40q-181 -3 -181 183v514h714v-514q0 -188 -181 -183v-40h617v40q-180 -3 -180 183v1008q0 188 180 184v40h-617v-40q181 -1 181 -184v-450h-714v450q0 188 181 184v40h-618zM739 1951l-370 -359
l66 -45l338 253l337 -253l66 45l-370 359h-67z" />
    <glyph glyph-name="hcircumflex" unicode="&#x125;" horiz-adv-x="1218" 
d="M30 0zM713 1030q-180 -2 -297 -137v620l-386 -58v-36q144 27 144 -146v-1026q0 -210 -144 -212v-35h526v35q-140 3 -140 212v475q1 90 55 157q58 67 139 67q85 0 143 -67q56 -69 55 -157v-475q1 -210 -143 -212v-35h523v35q-141 3 -142 212v440q-3 168 -88 255
q-93 90 -245 88zM612 2045l-370 -359l66 -45l338 253l337 -253l66 45l-370 359h-67z" />
    <glyph glyph-name="Itilde" unicode="&#x128;" horiz-adv-x="824" 
d="M30 0zM106 1455v-40q181 -1 181 -184v-1008q0 -183 -181 -183v-40h618v40q-181 0 -181 183v1008q0 184 181 184v40h-618zM751 1835l43 -7q-13 -291 -309 -191l-284 96q-88 30 -125 -96l-46 6q3 281 291 193l303 -92q86 -26 127 91z" />
    <glyph glyph-name="Imacron" unicode="&#x12a;" horiz-adv-x="822" 
d="M30 0zM95 1455v-40q181 -1 181 -184v-1008q0 -183 -181 -183v-40h618v40q-181 0 -181 183v1008q0 184 181 184v40h-618zM30 1661h762v-102h-762v102z" />
    <glyph glyph-name="Ibreve" unicode="&#x12c;" horiz-adv-x="746" 
d="M30 0zM36 1455v-40q181 -1 181 -184v-1008q0 -183 -181 -183v-40h618v40q-181 0 -181 183v1008q0 184 181 184v40h-618zM30 1938q0 -169 86.5 -275.5t257.5 -106.5t256.5 106.5t85.5 275.5h-68q-18 -213 -284 -213t-263 213h-71z" />
    <glyph glyph-name="Iogonek" unicode="&#x12e;" horiz-adv-x="701" 
d="M30 0zM30 1455v-40q181 -1 181 -184v-1008q0 -183 -181 -183v-40h618v40q-181 0 -181 183v1008q0 184 181 184v40h-618zM671 -2q0 -2 -198 -190q-106 -101 -122 -134q-15 -29 -13 -64q5 -60 74 -93t204 3l4 -38q-167 -57 -291.5 -24t-140.5 132q-9 62 25.5 110.5
t122.5 112.5l249 185h86z" />
    <glyph glyph-name="Jcircumflex" unicode="&#x134;" horiz-adv-x="1097" 
d="M30 0zM348 -407q187 0 315 117q120 110 118 293v1228q0 184 179 184v40h-615v-40q180 0 180 -184v-1400q0 -155 -124 -181q-74 -12 -104 13q-8 6 -55 87q-26 45 -52 63q-27 19 -63 22q-38 0 -67 -22q-30 -25 -30 -63q0 -57 79 -103q92 -54 239 -54zM630 1948l-370 -359
l66 -45l338 253l337 -253l66 45l-370 359h-67z" />
    <glyph glyph-name="jcircumflex" unicode="&#x135;" horiz-adv-x="1084" 
d="M617 1521l-370 -359l46 -33l358 241l357 -241l46 33l-370 359h-67zM788 1032l-386 -58v-35q147 25 147 -140v-1060q0 -154 -116 -180q-68 -15 -97 12q-7 8 -15 22q-7 15 -18 37q-12 22 -17 33q-22 45 -48 63q-29 22 -59 24q-34 2 -62 -22q-27 -21 -27 -65q1 -64 70 -108
q90 -56 222 -56q176 1 296 119q110 106 110 292v1122z" />
    <glyph glyph-name="Kcedilla" unicode="&#x136;" horiz-adv-x="1546" 
d="M30 0zM931 1455v-40q183 -4 15 -187l-479 -523v526q0 184 181 184v40h-618v-40q183 0 183 -184v-1008q0 -184 -183 -184v-39h618l1 39q-182 0 -182 184v422l83 87l346 -476q105 -144 97 -256h523v39q-148 0 -300 217l-476 680l270 292q160 167 360 187v40h-439zM692 -108
q-8 -26 -32 -118q156 -63 123 -162t-223 -91l-8 -37q300 -32 342 109t-164 185l28 114h-66z" />
    <glyph glyph-name="kcedilla" unicode="&#x137;" horiz-adv-x="1280" 
d="M30 0zM414 1513l-384 -58v-35q143 26 143 -147v-1026q0 -210 -143 -213v-34h529v34q-144 2 -145 213v155l133 128l200 -309q64 -101 38 -141q-24 -40 -79 -46v-34h544v34q-115 -10 -216 158l-312 509l123 123q142 150 360 150v34h-450v-34q68 3 83 -36q15 -38 -66 -118
l-358 -353v1046zM531 -108q-8 -26 -32 -118q156 -63 123 -162t-223 -91l-8 -37q300 -32 342 109t-164 185l28 114h-66z" />
    <glyph glyph-name="Lacute" unicode="&#x139;" horiz-adv-x="1342" 
d="M30 0zM30 1455v-40q181 0 181 -183v-1011q0 -184 -180 -184l-1 -37h1257l25 416l-38 2q-20 -139 -95 -226.5t-169 -119.5t-216 -32q-327 0 -327 243v949q0 183 181 183v40h-618zM746 1891l-351 -342l-59 38l195 304h215z" />
    <glyph glyph-name="lacute" unicode="&#x13a;" horiz-adv-x="586" 
d="M30 0zM416 1034v479l-386 -58v-36q147 27 144 -146v-1026q0 -210 -144 -213v-34h526v34q-140 3 -140 213v787zM499 1971l-351 -342l-59 38l195 304h215z" />
    <glyph glyph-name="Lcedilla" unicode="&#x13b;" horiz-adv-x="1342" 
d="M30 0zM30 1455v-40q181 0 181 -183v-1011q0 -184 -180 -184l-1 -37h1257l25 416l-38 2q-20 -139 -95 -226.5t-169 -119.5t-216 -32q-327 0 -327 243v949q0 183 181 183v40h-618zM602 -23q-8 -26 -32 -118q156 -63 123 -162t-223 -91l-8 -37q300 -32 342 109t-164 185
l28 114h-66z" />
    <glyph glyph-name="lcedilla" unicode="&#x13c;" horiz-adv-x="586" 
d="M30 0zM416 1034v479l-386 -58v-36q147 27 144 -146v-1026q0 -210 -144 -213v-34h526v34q-140 3 -140 213v787zM230 -23q-8 -26 -32 -118q156 -63 123 -162t-223 -91l-8 -37q300 -32 342 109t-164 185l28 114h-66z" />
    <glyph glyph-name="Lcaron" unicode="&#x13d;" horiz-adv-x="1405" 
d="M0 0zM93 1455v-40q181 0 181 -183v-1011q0 -184 -180 -184l-1 -37h1257l25 416l-38 2q-20 -139 -95 -226.5t-169 -119.5t-216 -32q-327 0 -327 243v949q0 183 181 183v40h-618zM400 1557l-370 359l66 45l338 -253l337 253l66 -45l-370 -359h-67z" />
    <glyph glyph-name="lcaron" unicode="&#x13e;" horiz-adv-x="867" 
d="M15 0zM571 1034v479l-386 -58v-36q147 27 144 -146v-1026q0 -210 -144 -213v-34h526v34q-140 3 -140 213v787zM400 1637l-370 359l66 45l338 -253l337 253l66 -45l-370 -359h-67z" />
    <glyph glyph-name="Nacute" unicode="&#x143;" horiz-adv-x="1508" 
d="M30 0zM30 1455v-40q178 0 179 -183v-1009q-1 -184 -179 -184v-39h408v37q-182 0 -181 186v1073l964 -1296h77v1232q0 183 180 181v42h-409v-40q183 0 183 -183v-785q-463 615 -663 912q-50 62 -50 96h-509zM1020 1892l-351 -342l-59 38l195 304h215z" />
    <glyph glyph-name="nacute" unicode="&#x144;" horiz-adv-x="1210" 
d="M30 0zM709 1030q-180 0 -296 -135q-5 109 -31 135l-352 -56v-35q141 25 141 -147v-545q0 -210 -141 -213v-34h523v34q-140 3 -140 213v475q0 90 55 156q57 67 138 67q91 1 145 -66q55 -66 54 -157v-475q0 -210 -138 -213v-34h513v34q-138 3 -138 213v442q0 166 -88 255
q-92 90 -245 86zM851 1473l-351 -342l-59 38l195 304h215z" />
    <glyph glyph-name="Ncedilla" unicode="&#x145;" horiz-adv-x="1508" 
d="M30 0zM30 1455v-40q178 0 179 -183v-1009q-1 -184 -179 -184v-39h408v37q-182 0 -181 186v1073l964 -1296h77v1232q0 183 180 181v42h-409v-40q183 0 183 -183v-785q-463 615 -663 912q-50 62 -50 96h-509zM751 -108q-8 -26 -32 -118q156 -63 123 -162t-223 -91l-8 -37
q300 -32 342 109t-164 185l28 114h-66z" />
    <glyph glyph-name="ncedilla" unicode="&#x146;" horiz-adv-x="1210" 
d="M30 0zM709 1030q-180 0 -296 -135q-5 109 -31 135l-352 -56v-35q141 25 141 -147v-545q0 -210 -141 -213v-34h523v34q-140 3 -140 213v475q0 90 55 156q57 67 138 67q91 1 145 -66q55 -66 54 -157v-475q0 -210 -138 -213v-34h513v34q-138 3 -138 213v442q0 166 -88 255
q-92 90 -245 86zM582 -108q-8 -26 -32 -118q156 -63 123 -162t-223 -91l-8 -37q300 -32 342 109t-164 185l28 114h-66z" />
    <glyph glyph-name="Ncaron" unicode="&#x147;" horiz-adv-x="1508" 
d="M30 0zM30 1455v-40q178 0 179 -183v-1009q-1 -184 -179 -184v-39h408v37q-182 0 -181 186v1073l964 -1296h77v1232q0 183 180 181v42h-409v-40q183 0 183 -183v-785q-463 615 -663 912q-50 62 -50 96h-509zM781 1558l-370 359l66 45l338 -253l337 253l66 -45l-370 -359
h-67z" />
    <glyph glyph-name="ncaron" unicode="&#x148;" horiz-adv-x="1210" 
d="M30 0zM709 1030q-180 0 -296 -135q-5 109 -31 135l-352 -56v-35q141 25 141 -147v-545q0 -210 -141 -213v-34h523v34q-140 3 -140 213v475q0 90 55 156q57 67 138 67q91 1 145 -66q55 -66 54 -157v-475q0 -210 -138 -213v-34h513v34q-138 3 -138 213v442q0 166 -88 255
q-92 90 -245 86zM592 1139l-370 359l66 45l338 -253l337 253l66 -45l-370 -359h-67z" />
    <glyph glyph-name="Omacron" unicode="&#x14c;" horiz-adv-x="1583" 
d="M30 0zM809 1480q-228 -1 -408 -106t-277 -279q-94 -171 -94 -385q0 -310 217 -523q216 -214 535 -214q208 0 387 100q177 98 281 275q103 175 103 391q0 335 -196 537q-198 204 -548 204zM803 1424q216 0 341 -189q123 -186 123 -498q0 -200 -66 -362q-67 -165 -177 -256
q-113 -92 -240 -92q-194 0 -329 198q-137 200 -137 487q0 196 60 356q60 161 171 258q112 98 254 98zM430 1686h762v-102h-762v102z" />
    <glyph glyph-name="omacron" unicode="&#x14d;" horiz-adv-x="1062" 
d="M30 0zM542 1033q-225 1 -369 -157q-143 -156 -143 -381q0 -219 142 -368q144 -150 351 -150q208 0 358 156q151 156 151 381q-6 234 -139 376q-131 142 -351 143zM542 984q112 0 173 -130q61 -129 61 -341q0 -204 -72 -345q-70 -141 -173 -141q-99 0 -168 135
q-69 138 -69 335q0 202 69 344q71 143 179 143zM169 1235h762v-102h-762v102z" />
    <glyph glyph-name="Obreve" unicode="&#x14e;" horiz-adv-x="1583" 
d="M30 0zM809 1480q-228 -1 -408 -106t-277 -279q-94 -171 -94 -385q0 -310 217 -523q216 -214 535 -214q208 0 387 100q177 98 281 275q103 175 103 391q0 335 -196 537q-198 204 -548 204zM803 1424q216 0 341 -189q123 -186 123 -498q0 -200 -66 -362q-67 -165 -177 -256
q-113 -92 -240 -92q-194 0 -329 198q-137 200 -137 487q0 196 60 356q60 161 171 258q112 98 254 98zM457 1963q0 -169 86.5 -275.5t257.5 -106.5t256.5 106.5t85.5 275.5h-68q-18 -213 -284 -213t-263 213h-71z" />
    <glyph glyph-name="obreve" unicode="&#x14f;" horiz-adv-x="1062" 
d="M30 0zM542 1033q-225 1 -369 -157q-143 -156 -143 -381q0 -219 142 -368q144 -150 351 -150q208 0 358 156q151 156 151 381q-6 234 -139 376q-131 142 -351 143zM542 984q112 0 173 -130q61 -129 61 -341q0 -204 -72 -345q-70 -141 -173 -141q-99 0 -168 135
q-69 138 -69 335q0 202 69 344q71 143 179 143zM196 1512q0 -169 86.5 -275.5t257.5 -106.5t256.5 106.5t85.5 275.5h-68q-18 -213 -284 -213t-263 213h-71z" />
    <glyph glyph-name="Odblacute" unicode="&#x150;" horiz-adv-x="1583" 
d="M30 0zM809 1480q-228 -1 -408 -106t-277 -279q-94 -171 -94 -385q0 -310 217 -523q216 -214 535 -214q208 0 387 100q177 98 281 275q103 175 103 391q0 335 -196 537q-198 204 -548 204zM803 1424q216 0 341 -189q123 -186 123 -498q0 -200 -66 -362q-67 -165 -177 -256
q-113 -92 -240 -92q-194 0 -329 198q-137 200 -137 487q0 196 60 356q60 161 171 258q112 98 254 98zM874 1917l-351 -342l-59 38l195 304h215zM1288 1917l-351 -342l-59 38l195 304h215z" />
    <glyph glyph-name="odblacute" unicode="&#x151;" horiz-adv-x="1077" 
d="M30 0zM542 1033q-225 1 -369 -157q-143 -156 -143 -381q0 -219 142 -368q144 -150 351 -150q208 0 358 156q151 156 151 381q-6 234 -139 376q-131 142 -351 143zM542 984q112 0 173 -130q61 -129 61 -341q0 -204 -72 -345q-70 -141 -173 -141q-99 0 -168 135
q-69 138 -69 335q0 202 69 344q71 143 179 143zM633 1466l-351 -342l-59 38l195 304h215zM1047 1466l-351 -342l-59 38l195 304h215z" />
    <glyph glyph-name="Racute" unicode="&#x154;" horiz-adv-x="1496" 
d="M30 0zM30 1456v-41q182 0 181 -183v-1011q0 -182 -181 -181v-40h619v40q-182 0 -181 181v483h40q101 0 162 -41q66 -44 99 -114l127 -285q77 -171 73 -264h497v40q-170 0 -298 259l-137 274q-66 131 -189 138q160 24 262 126q104 104 104 243q0 156 -129 266
q-131 110 -312 110h-737zM468 1409h94q168 0 274 -94.5t106 -236.5q0 -141 -106 -235.5t-274 -94.5h-94v661zM955 1893l-351 -342l-59 38l195 304h215z" />
    <glyph glyph-name="racute" unicode="&#x155;" horiz-adv-x="945" 
d="M30 0zM378 1030l-348 -56v-34q135 21 135 -151v-540q0 -209 -135 -215v-34h512v34q-137 3 -137 215v403q0 123 59 217q61 94 122 101q43 7 78 -20q28 -18 54 -72q20 -44 46.5 -64.5t67 -20.5t62 26.5t21.5 60.5q0 63 -70 103q-81 46 -183 47q-168 0 -257 -143
q0 109 -27 143zM712 1473l-351 -342l-59 38l195 304h215z" />
    <glyph glyph-name="Rcedilla" unicode="&#x156;" horiz-adv-x="1496" 
d="M30 0zM30 1456v-41q182 0 181 -183v-1011q0 -182 -181 -181v-40h619v40q-182 0 -181 181v483h40q101 0 162 -41q66 -44 99 -114l127 -285q77 -171 73 -264h497v40q-170 0 -298 259l-137 274q-66 131 -189 138q160 24 262 126q104 104 104 243q0 156 -129 266
q-131 110 -312 110h-737zM468 1409h94q168 0 274 -94.5t106 -236.5q0 -141 -106 -235.5t-274 -94.5h-94v661zM746 -45q-8 -26 -32 -118q156 -63 123 -162t-223 -91l-8 -37q300 -32 342 109t-164 185l28 114h-66z" />
    <glyph glyph-name="rcedilla" unicode="&#x157;" horiz-adv-x="945" 
d="M30 0zM378 1030l-348 -56v-34q135 21 135 -151v-540q0 -209 -135 -215v-34h512v34q-137 3 -137 215v403q0 123 59 217q61 94 122 101q43 7 78 -20q28 -18 54 -72q20 -44 46.5 -64.5t67 -20.5t62 26.5t21.5 60.5q0 63 -70 103q-81 46 -183 47q-168 0 -257 -143
q0 109 -27 143zM238 -38q-8 -26 -32 -118q156 -63 123 -162t-223 -91l-8 -37q300 -32 342 109t-164 185l28 114h-66z" />
    <glyph glyph-name="Rcaron" unicode="&#x158;" horiz-adv-x="1496" 
d="M30 0zM30 1456v-41q182 0 181 -183v-1011q0 -182 -181 -181v-40h619v40q-182 0 -181 181v483h40q101 0 162 -41q66 -44 99 -114l127 -285q77 -171 73 -264h497v40q-170 0 -298 259l-137 274q-66 131 -189 138q160 24 262 126q104 104 104 243q0 156 -129 266
q-131 110 -312 110h-737zM468 1409h94q168 0 274 -94.5t106 -236.5q0 -141 -106 -235.5t-274 -94.5h-94v661zM676 1559l-370 359l66 45l338 -253l337 253l66 -45l-370 -359h-67z" />
    <glyph glyph-name="rcaron" unicode="&#x159;" horiz-adv-x="945" 
d="M30 0zM378 1030l-348 -56v-34q135 21 135 -151v-540q0 -209 -135 -215v-34h512v34q-137 3 -137 215v403q0 123 59 217q61 94 122 101q43 7 78 -20q28 -18 54 -72q20 -44 46.5 -64.5t67 -20.5t62 26.5t21.5 60.5q0 63 -70 103q-81 46 -183 47q-168 0 -257 -143
q0 109 -27 143zM423 1139l-370 359l66 45l338 -253l337 253l66 -45l-370 -359h-67z" />
    <glyph glyph-name="Sacute" unicode="&#x15a;" horiz-adv-x="1097" 
d="M30 0zM526 1476q-214 0 -350 -118q-118 -111 -118 -279q2 -236 306 -390q52 -27 158 -68q106 -40 181 -82q76 -44 110 -87q38 -52 44 -113q6 -77 -16 -133q-23 -66 -82 -108q-93 -67 -241 -61q-186 7 -306 125q-102 102 -146 284h-36v-446h36q4 65 31 91t59.5 15.5
t86.5 -41.5q141 -80 279 -86q239 -12 387 125q142 133 152 323q6 137 -48 227q-54 85 -160 148q-72 42 -267 114q-201 73 -254 127q-43 42 -54 96q-14 64 4 123q15 62 61 98q75 64 193 66q167 7 269 -116q78 -93 119 -264l37 4l-31 405h-39q-2 -90 -142 -28q-112 49 -223 49
zM799 1917l-351 -342l-59 38l195 304h215z" />
    <glyph glyph-name="sacute" unicode="&#x15b;" horiz-adv-x="783" 
d="M30 0zM365 1034q-151 1 -239 -83q-82 -83 -86 -208q-4 -190 177 -280q41 -17 128 -49q68 -21 151 -57q62 -27 90 -61q39 -49 30 -116q-4 -68 -67 -110q-69 -45 -182 -29q-129 20 -222 107q-44 42 -60 79q-16 40 -23 93h-32l6 -320h33q1 38 26 47q26 10 147 -35
q55 -19 123 -27q179 -18 279 81q98 100 105 239q8 181 -148 276q-57 34 -194 80q-147 56 -181 89q-40 42 -36 96q6 58 48 92q53 45 129 44q55 1 100 -17q55 -18 87 -50q83 -73 102 -198h32l-32 300h-34q3 -24 -20 -30q-22 -6 -86 20q-75 27 -151 27zM631 1461l-351 -342
l-59 38l195 304h215z" />
    <glyph glyph-name="Scircumflex" unicode="&#x15c;" horiz-adv-x="1097" 
d="M30 0zM526 1476q-214 0 -350 -118q-118 -111 -118 -279q2 -236 306 -390q52 -27 158 -68q106 -40 181 -82q76 -44 110 -87q38 -52 44 -113q6 -77 -16 -133q-23 -66 -82 -108q-93 -67 -241 -61q-186 7 -306 125q-102 102 -146 284h-36v-446h36q4 65 31 91t59.5 15.5
t86.5 -41.5q141 -80 279 -86q239 -12 387 125q142 133 152 323q6 137 -48 227q-54 85 -160 148q-72 42 -267 114q-201 73 -254 127q-43 42 -54 96q-14 64 4 123q15 62 61 98q75 64 193 66q167 7 269 -116q78 -93 119 -264l37 4l-31 405h-39q-2 -90 -142 -28q-112 49 -223 49
zM520 1975l-370 -359l66 -45l338 253l337 -253l66 45l-370 359h-67z" />
    <glyph glyph-name="scircumflex" unicode="&#x15d;" horiz-adv-x="867" 
d="M30 0zM373 1034q-151 1 -239 -83q-82 -83 -86 -208q-4 -190 177 -280q41 -17 128 -49q68 -21 151 -57q62 -27 90 -61q39 -49 30 -116q-4 -68 -67 -110q-69 -45 -182 -29q-129 20 -222 107q-44 42 -60 79q-16 40 -23 93h-32l6 -320h33q1 38 26 47q26 10 147 -35
q55 -19 123 -27q179 -18 279 81q98 100 105 239q8 181 -148 276q-57 34 -194 80q-147 56 -181 89q-40 42 -36 96q6 58 48 92q53 45 129 44q55 1 100 -17q55 -18 87 -50q83 -73 102 -198h32l-32 300h-34q3 -24 -20 -30q-22 -6 -86 20q-75 27 -151 27zM400 1519l-370 -359
l66 -45l338 253l337 -253l66 45l-370 359h-67z" />
    <glyph glyph-name="Scedilla" unicode="&#x15e;" horiz-adv-x="1097" 
d="M30 0zM526 1476q-214 0 -350 -118q-118 -111 -118 -279q2 -236 306 -390q52 -27 158 -68q106 -40 181 -82q76 -44 110 -87q38 -52 44 -113q6 -77 -16 -133q-23 -66 -82 -108q-93 -67 -241 -61q-186 7 -306 125q-102 102 -146 284h-36v-446h36q4 65 31 91t59.5 15.5
t86.5 -41.5q141 -80 279 -86q239 -12 387 125q142 133 152 323q6 137 -48 227q-54 85 -160 148q-72 42 -267 114q-201 73 -254 127q-43 42 -54 96q-14 64 4 123q15 62 61 98q75 64 193 66q167 7 269 -116q78 -93 119 -264l37 4l-31 405h-39q-2 -90 -142 -28q-112 49 -223 49
zM465 -50q-8 -26 -32 -118q156 -63 123 -162t-223 -91l-8 -37q300 -32 342 109t-164 185l28 114h-66z" />
    <glyph glyph-name="scedilla" unicode="&#x15f;" horiz-adv-x="783" 
d="M30 0zM365 1034q-151 1 -239 -83q-82 -83 -86 -208q-4 -190 177 -280q41 -17 128 -49q68 -21 151 -57q62 -27 90 -61q39 -49 30 -116q-4 -68 -67 -110q-69 -45 -182 -29q-129 20 -222 107q-44 42 -60 79q-16 40 -23 93h-32l6 -320h33q1 38 26 47q26 10 147 -35
q55 -19 123 -27q179 -18 279 81q98 100 105 239q8 181 -148 276q-57 34 -194 80q-147 56 -181 89q-40 42 -36 96q6 58 48 92q53 45 129 44q55 1 100 -17q55 -18 87 -50q83 -73 102 -198h32l-32 300h-34q3 -24 -20 -30q-22 -6 -86 20q-75 27 -151 27zM302 -43
q-8 -26 -32 -118q156 -63 123 -162t-223 -91l-8 -37q300 -32 342 109t-164 185l28 114h-66z" />
    <glyph glyph-name="Tcedilla" unicode="&#x162;" horiz-adv-x="1504" 
d="M30 0zM52 1455l-22 -347l39 -4q21 308 323 308h233v-1191q0 -181 -183 -181v-40h620v40q-183 0 -183 181v1191h233q302 0 323 -308l39 2l-22 349h-1400zM706 -28q-8 -26 -32 -118q156 -63 123 -162t-223 -91l-8 -37q300 -32 342 109t-164 185l28 114h-66z" />
    <glyph glyph-name="tcedilla" unicode="&#x163;" horiz-adv-x="717" 
d="M30 0zM384 1377q-43 -135 -143 -247q-99 -111 -211 -139v-31h142v-720q0 -362 405 -222q74 27 110 47l-16 55q-68 -30 -94 -38q-80 -23 -120 21q-41 47 -41 159v698h207v48h-207v369h-32zM324 -54q-8 -26 -32 -118q156 -63 123 -162t-223 -91l-8 -37q300 -32 342 109
t-164 185l28 114h-66z" />
    <glyph glyph-name="Tcaron" unicode="&#x164;" horiz-adv-x="1504" 
d="M30 0zM52 1455l-22 -347l39 -4q21 308 323 308h233v-1191q0 -181 -183 -181v-40h620v40q-183 0 -183 181v1191h233q302 0 323 -308l39 2l-22 349h-1400zM707 1557l-370 359l66 45l338 -253l337 253l66 -45l-370 -359h-67z" />
    <glyph glyph-name="tcaron" unicode="&#x165;" horiz-adv-x="867" 
d="M30 0zM430 1377q-43 -135 -143 -247q-99 -111 -211 -139v-31h142v-720q0 -362 405 -222q74 27 110 47l-16 55q-68 -30 -94 -38q-80 -23 -120 21q-41 47 -41 159v698h207v48h-207v369h-32zM400 1476l-370 359l66 45l338 -253l337 253l66 -45l-370 -359h-67z" />
    <glyph glyph-name="Utilde" unicode="&#x168;" 
d="M30 0zM30 1454v-39q182 0 181 -183v-783q0 -231 144 -349q153 -123 421 -123q260 0 414 123q156 124 156 349v783q0 183 178 183v39h-407v-39q181 0 181 -183v-783q0 -193 -108 -285q-106 -93 -304 -93q-197 0 -306 95.5t-111 282.5v783q-1 183 181 183v39h-620z
M1158 1834l43 -7q-13 -291 -309 -191l-284 96q-88 30 -125 -96l-46 6q3 281 291 193l303 -92q86 -26 127 91z" />
    <glyph glyph-name="utilde" unicode="&#x169;" horiz-adv-x="1211" 
d="M10 0zM481 -22q182 1 296 135q5 -107 31 -135l353 61v35q-141 -24 -141 153v781l-382 -1v-34q140 -3 140 -213l-1 -474q1 -90 -54 -156q-57 -67 -139 -67q-89 0 -144 66q-55 68 -55 157v722h-375v-34q138 -3 138 -213v-442q1 -165 89 -255q92 -89 244 -86zM902 1387
l43 -7q-13 -291 -309 -191l-284 96q-88 30 -125 -96l-46 6q3 281 291 193l303 -92q86 -26 127 91z" />
    <glyph glyph-name="Umacron" unicode="&#x16a;" 
d="M30 0zM30 1454v-39q182 0 181 -183v-783q0 -231 144 -349q153 -123 421 -123q260 0 414 123q156 124 156 349v783q0 183 178 183v39h-407v-39q181 0 181 -183v-783q0 -193 -108 -285q-106 -93 -304 -93q-197 0 -306 95.5t-111 282.5v783q-1 183 181 183v39h-620z
M425 1660h762v-102h-762v102z" />
    <glyph glyph-name="umacron" unicode="&#x16b;" horiz-adv-x="1211" 
d="M10 0zM481 -22q182 1 296 135q5 -107 31 -135l353 61v35q-141 -24 -141 153v781l-382 -1v-34q140 -3 140 -213l-1 -474q1 -90 -54 -156q-57 -67 -139 -67q-89 0 -144 66q-55 68 -55 157v722h-375v-34q138 -3 138 -213v-442q1 -165 89 -255q92 -89 244 -86zM169 1213h762
v-102h-762v102z" />
    <glyph glyph-name="Ubreve" unicode="&#x16c;" 
d="M30 0zM30 1454v-39q182 0 181 -183v-783q0 -231 144 -349q153 -123 421 -123q260 0 414 123q156 124 156 349v783q0 183 178 183v39h-407v-39q181 0 181 -183v-783q0 -193 -108 -285q-106 -93 -304 -93q-197 0 -306 95.5t-111 282.5v783q-1 183 181 183v39h-620z
M458 1937q0 -169 86.5 -275.5t257.5 -106.5t256.5 106.5t85.5 275.5h-68q-18 -213 -284 -213t-263 213h-71z" />
    <glyph glyph-name="ubreve" unicode="&#x16d;" horiz-adv-x="1211" 
d="M10 0zM481 -22q182 1 296 135q5 -107 31 -135l353 61v35q-141 -24 -141 153v781l-382 -1v-34q140 -3 140 -213l-1 -474q1 -90 -54 -156q-57 -67 -139 -67q-89 0 -144 66q-55 68 -55 157v722h-375v-34q138 -3 138 -213v-442q1 -165 89 -255q92 -89 244 -86zM226 1490
q0 -169 86.5 -275.5t257.5 -106.5t256.5 106.5t85.5 275.5h-68q-18 -213 -284 -213t-263 213h-71z" />
    <glyph glyph-name="Uring" unicode="&#x16e;" 
d="M30 0zM30 1454v-39q182 0 181 -183v-783q0 -231 144 -349q153 -123 421 -123q260 0 414 123q156 124 156 349v783q0 183 178 183v39h-407v-39q181 0 181 -183v-783q0 -193 -108 -285q-106 -93 -304 -93q-197 0 -306 95.5t-111 282.5v783q-1 183 181 183v39h-620z
M979 1979q-71 74 -173.5 74t-174 -72.5t-71.5 -175.5t71.5 -175.5t174 -72.5t175 72.5t72.5 175.5t-74 174zM684 1929q51 51 122.5 51t123.5 -51.5t52 -123.5t-52 -123t-123.5 -51t-121.5 51t-50 123t49 124z" />
    <glyph glyph-name="uring" unicode="&#x16f;" horiz-adv-x="1211" 
d="M30 0zM481 -22q182 1 296 135q5 -107 31 -135l353 61v35q-141 -24 -141 153v781l-382 -1v-34q140 -3 140 -213l-1 -474q1 -90 -54 -156q-57 -67 -139 -67q-89 0 -144 66q-55 68 -55 157v722h-375v-34q138 -3 138 -213v-442q1 -165 89 -255q92 -89 244 -86zM759 1532
q-71 74 -173.5 74t-174 -72.5t-71.5 -175.5t71.5 -175.5t174 -72.5t175 72.5t72.5 175.5t-74 174zM464 1482q51 51 122.5 51t123.5 -51.5t52 -123.5t-52 -123t-123.5 -51t-121.5 51t-50 123t49 124z" />
    <glyph glyph-name="Udblacute" unicode="&#x170;" 
d="M30 0zM30 1454v-39q182 0 181 -183v-783q0 -231 144 -349q153 -123 421 -123q260 0 414 123q156 124 156 349v783q0 183 178 183v39h-407v-39q181 0 181 -183v-783q0 -193 -108 -285q-106 -93 -304 -93q-197 0 -306 95.5t-111 282.5v783q-1 183 181 183v39h-620z
M804 1891l-351 -342l-59 38l195 304h215zM1218 1891l-351 -342l-59 38l195 304h215z" />
    <glyph glyph-name="udblacute" unicode="&#x171;" horiz-adv-x="1211" 
d="M30 0zM481 -22q182 1 296 135q5 -107 31 -135l353 61v35q-141 -24 -141 153v781l-382 -1v-34q140 -3 140 -213l-1 -474q1 -90 -54 -156q-57 -67 -139 -67q-89 0 -144 66q-55 68 -55 157v722h-375v-34q138 -3 138 -213v-442q1 -165 89 -255q92 -89 244 -86zM644 1444
l-351 -342l-59 38l195 304h215zM1058 1444l-351 -342l-59 38l195 304h215z" />
    <glyph glyph-name="Uogonek" unicode="&#x172;" 
d="M30 0zM30 1454v-39q182 0 181 -183v-783q0 -231 144 -349q153 -123 421 -123q260 0 414 123q156 124 156 349v783q0 183 178 183v39h-407v-39q181 0 181 -183v-783q0 -193 -108 -285q-106 -93 -304 -93q-197 0 -306 95.5t-111 282.5v783q-1 183 181 183v39h-620zM1025 12
q0 -2 -198 -190q-106 -101 -122 -134q-15 -29 -13 -64q5 -60 74 -93t204 3l4 -38q-167 -57 -291.5 -24t-140.5 132q-9 62 25.5 110.5t122.5 112.5l249 185h86z" />
    <glyph glyph-name="uogonek" unicode="&#x173;" horiz-adv-x="1211" 
d="M10 0zM481 -22q182 1 296 135q5 -107 31 -135l353 61v35q-141 -24 -141 153v781l-382 -1v-34q140 -3 140 -213l-1 -474q1 -90 -54 -156q-57 -67 -139 -67q-89 0 -144 66q-55 68 -55 157v722h-375v-34q138 -3 138 -213v-442q1 -165 89 -255q92 -89 244 -86zM1155 43
q0 -2 -198 -190q-106 -101 -122 -134q-15 -29 -13 -64q5 -60 74 -93t204 3l4 -38q-167 -57 -291.5 -24t-140.5 132q-9 62 25.5 110.5t122.5 112.5l249 185h86z" />
    <glyph glyph-name="Wcircumflex" unicode="&#x174;" horiz-adv-x="2408" 
d="M30 0zM30 1455v-40q129 0 204 -183l498 -1232h87l382 1181l469 -1181h87l407 1232q60 183 214 183v40h-368v-40q168 0 104 -183l-307 -912l-363 912q-72 183 152 183v40h-602v-40q233 -2 175 -179l-300 -916l-363 912q-72 183 126 183v40h-602zM1190 1950l-370 -359
l66 -45l338 253l337 -253l66 45l-370 359h-67z" />
    <glyph glyph-name="wcircumflex" unicode="&#x175;" horiz-adv-x="1791" 
d="M30 0zM30 974q95 -1 175 -214l286 -760h61l321 783l309 -783h63l312 760q88 214 204 214v34h-309v-34q146 -1 59 -214l-182 -449l-172 449q-82 214 86 214v34h-511v-34q176 0 88 -214l-185 -449l-170 449q-81 214 78 214v34h-513v-34zM891 1502l-370 -359l66 -45l338 253
l337 -253l66 45l-370 359h-67z" />
    <glyph glyph-name="Ycircumflex" unicode="&#x176;" horiz-adv-x="1496" 
d="M30 0zM30 1455v-40q124 0 235 -183l269 -439q64 -104 71 -133q16 -54 18 -187v-252q0 -182 -183 -181v-40h620v40q-184 0 -185 181v454q0 72 6 87q9 27 23 44l288 422q126 184 274 187v40h-366v-40q167 -1 38 -184l-300 -427l-270 425q-117 184 62 186v40h-600zM808 1950
l-370 -359l66 -45l338 253l337 -253l66 45l-370 359h-67z" />
    <glyph glyph-name="ycircumflex" unicode="&#x177;" horiz-adv-x="1217" 
d="M30 0zM47 974q127 0 214 -210l316 -764l-109 -252q-45 -104 -107 -136q-38 -20 -84 -3q-28 10 -72 61q-44 52 -106 34q-40 -12 -54.5 -53.5t2 -86.5t72.5 -67t132.5 -10t142.5 66t119 178l442 1033q88 206 232 210v34h-344v-34q151 -1 64 -202l-201 -462l-187 454
q-86 210 31 210v34h-503v-34zM647 1503l-370 -359l66 -45l338 253l337 -253l66 45l-370 359h-67z" />
    <glyph glyph-name="Zacute" unicode="&#x179;" horiz-adv-x="1251" 
d="M30 0zM113 1455l-21 -345l38 -5q21 304 343 305h383l-826 -1366v-44h1166l25 418l-38 1q-21 -375 -420 -375h-437l834 1365v46h-1047zM835 1892l-351 -342l-59 38l195 304h215z" />
    <glyph glyph-name="zacute" unicode="&#x17a;" horiz-adv-x="838" 
d="M30 0zM85 1008l-25 -314h30q28 266 266 266h115l-441 -914v-46h749l29 396h-30q-53 -348 -308 -348h-193l455 912v48h-647zM691 1443l-351 -342l-59 38l195 304h215z" />
    <glyph glyph-name="Acaron" unicode="&#x1cd;" horiz-adv-x="1551" 
d="M30 0zM722 1455l-477 -1254q-62 -160 -215 -157v-44h369v44q-170 0 -107 157l108 282h515l114 -282q64 -159 -106 -157v-44h598v44q-144 4 -210 157l-521 1254h-68zM651 1137q220 -548 247 -612h-481q16 41 234 612zM736 1555l-370 359l66 45l338 -253l337 253l66 -45
l-370 -359h-67z" />
    <glyph glyph-name="acaron" unicode="&#x1ce;" horiz-adv-x="1116" 
d="M30 0zM445 1036q-187 -2 -294 -89q-65 -53 -60 -109q6 -39 34 -60q33 -22 66 -14q31 6 53 31q24 25 41 67q33 82 44 92q35 33 116 33q199 0 201 -130q3 -171 -384 -307q-232 -80 -232 -288q0 -129 85 -205q87 -75 216 -80q116 -1 198 45q85 48 124 111q12 -149 214 -149
q107 0 219 75l-16 31q-80 -52 -137 -40q-50 15 -50 108v502q1 134 -41 216q-80 160 -397 160zM646 675v-259q0 -152 -55 -251q-53 -98 -153 -98q-82 -1 -125 62q-41 63 -44 145q-1 83 34 148q35 66 109 101q178 89 234 152zM450 1131l-370 359l66 45l338 -253l337 253
l66 -45l-370 -359h-67z" />
    <glyph glyph-name="Icaron" unicode="&#x1cf;" horiz-adv-x="867" 
d="M30 0zM129 1455v-40q181 -1 181 -184v-1008q0 -183 -181 -183v-40h618v40q-181 0 -181 183v1008q0 184 181 184v40h-618zM400 1558l-370 359l66 45l338 -253l337 253l66 -45l-370 -359h-67z" />
    <glyph glyph-name="Ocaron" unicode="&#x1d1;" horiz-adv-x="1583" 
d="M30 0zM809 1480q-228 -1 -408 -106t-277 -279q-94 -171 -94 -385q0 -310 217 -523q216 -214 535 -214q208 0 387 100q177 98 281 275q103 175 103 391q0 335 -196 537q-198 204 -548 204zM803 1424q216 0 341 -189q123 -186 123 -498q0 -200 -66 -362q-67 -165 -177 -256
q-113 -92 -240 -92q-194 0 -329 198q-137 200 -137 487q0 196 60 356q60 161 171 258q112 98 254 98zM771 1583l-370 359l66 45l338 -253l337 253l66 -45l-370 -359h-67z" />
    <glyph glyph-name="ocaron" unicode="&#x1d2;" horiz-adv-x="1062" 
d="M30 0zM542 1033q-225 1 -369 -157q-143 -156 -143 -381q0 -219 142 -368q144 -150 351 -150q208 0 358 156q151 156 151 381q-6 234 -139 376q-131 142 -351 143zM542 984q112 0 173 -130q61 -129 61 -341q0 -204 -72 -345q-70 -141 -173 -141q-99 0 -168 135
q-69 138 -69 335q0 202 69 344q71 143 179 143zM498 1132l-370 359l66 45l338 -253l337 253l66 -45l-370 -359h-67z" />
    <glyph glyph-name="Ucaron" unicode="&#x1d3;" 
d="M30 0zM30 1454v-39q182 0 181 -183v-783q0 -231 144 -349q153 -123 421 -123q260 0 414 123q156 124 156 349v783q0 183 178 183v39h-407v-39q181 0 181 -183v-783q0 -193 -108 -285q-106 -93 -304 -93q-197 0 -306 95.5t-111 282.5v783q-1 183 181 183v39h-620z
M772 1557l-370 359l66 45l338 -253l337 253l66 -45l-370 -359h-67z" />
    <glyph glyph-name="ucaron" unicode="&#x1d4;" horiz-adv-x="1211" 
d="M30 0zM481 -22q182 1 296 135q5 -107 31 -135l353 61v35q-141 -24 -141 153v781l-382 -1v-34q140 -3 140 -213l-1 -474q1 -90 -54 -156q-57 -67 -139 -67q-89 0 -144 66q-55 68 -55 157v722h-375v-34q138 -3 138 -213v-442q1 -165 89 -255q92 -89 244 -86zM534 1110
l-370 359l66 45l338 -253l337 253l66 -45l-370 -359h-67z" />
    <glyph glyph-name="Gcaron" unicode="&#x1e6;" horiz-adv-x="1592" 
d="M30 0zM825 1477q-237 0 -419 -105q-181 -104 -277 -278q-99 -178 -99 -380q0 -318 218 -532q213 -211 544 -205q185 5 335 67q133 54 239 146v171q0 188 196 231v44h-656v-44q198 -46 198 -231v-52q0 -128 -85 -203q-84 -77 -230 -74q-156 0 -262 93q-110 94 -154 240
q-48 156 -48 349q1 290 136 496q138 210 356 212q389 -1 487 -395l37 4l-23 424h-39q-8 -89 -142 -43q-189 64 -312 65zM703 1581l-370 359l66 45l338 -253l337 253l66 -45l-370 -359h-67z" />
    <glyph glyph-name="gcaron" unicode="&#x1e7;" horiz-adv-x="1229" 
d="M30 0zM547 993q75 -1 121 -47q84 -88 85 -268q0 -140 -63 -229q-58 -93 -143 -93q-89 0 -148 87q-57 85 -57 223q0 132 54 226q54 102 151 101zM149 -47q52 -32 94 -44q42 -14 124 -14h493q80 0 124 -33q38 -28 40 -74.5t-22 -84.5t-63 -67q-163 -113 -405 -119
q-240 -6 -351 65t-107 195q3 104 73 176zM927 1142q-148 0 -259 -122q-74 14 -114 13q-203 0 -328 -105q-129 -104 -129 -260q0 -86 48 -160q47 -74 122 -121q-183 -93 -211 -228q-8 -39 5.5 -89t57.5 -96q-87 -86 -89 -204q-2 -72 30 -135t104 -102q142 -78 374 -74
q234 4 404 94q219 116 219 305q-2 296 -389 296h-408q-124 0 -145 72q-10 36 14 78q21 42 61 69v-4q106 -54 248 -54q192 1 322 101q136 112 136 262q0 130 -73 214q-65 80 -200 116q31 40 65 47q38 11 65 -4q31 -15 73 -61q29 -32 61 -47q31 -15 69 -7t53.5 40t6.5 66
q-12 50 -81 80q-46 18 -112 20zM543 1252l-370 359l66 45l338 -253l337 253l66 -45l-370 -359h-67z" />
    <glyph glyph-name="Kcaron" unicode="&#x1e8;" horiz-adv-x="1546" 
d="M30 0zM931 1455v-40q183 -4 15 -187l-479 -523v526q0 184 181 184v40h-618v-40q183 0 183 -184v-1008q0 -184 -183 -184v-39h618l1 39q-182 0 -182 184v422l83 87l346 -476q105 -144 97 -256h523v39q-148 0 -300 217l-476 680l270 292q160 167 360 187v40h-439zM750 1559
l-370 359l66 45l338 -253l337 253l66 -45l-370 -359h-67z" />
    <glyph glyph-name="kcaron" unicode="&#x1e9;" horiz-adv-x="1280" 
d="M30 0zM414 1513l-384 -58v-35q143 26 143 -147v-1026q0 -210 -143 -213v-34h529v34q-144 2 -145 213v155l133 128l200 -309q64 -101 38 -141q-24 -40 -79 -46v-34h544v34q-115 -10 -216 158l-312 509l123 123q142 150 360 150v34h-450v-34q68 3 83 -36q15 -38 -66 -118
l-358 -353v1046zM580 1637l-370 359l66 45l338 -253l337 253l66 -45l-370 -359h-67z" />
    <glyph glyph-name="Oogonek" unicode="&#x1ea;" horiz-adv-x="1583" 
d="M30 0zM809 1480q-228 -1 -408 -106t-277 -279q-94 -171 -94 -385q0 -310 217 -523q216 -214 535 -214q208 0 387 100q177 98 281 275q103 175 103 391q0 335 -196 537q-198 204 -548 204zM803 1424q216 0 341 -189q123 -186 123 -498q0 -200 -66 -362q-67 -165 -177 -256
q-113 -92 -240 -92q-194 0 -329 198q-137 200 -137 487q0 196 60 356q60 161 171 258q112 98 254 98zM983 5q0 -2 -198 -190q-106 -101 -122 -134q-15 -29 -13 -64q5 -60 74 -93t204 3l4 -38q-167 -57 -291.5 -24t-140.5 132q-9 62 25.5 110.5t122.5 112.5l249 185h86z" />
    <glyph glyph-name="oogonek" unicode="&#x1eb;" horiz-adv-x="1062" 
d="M30 0zM542 1033q-225 1 -369 -157q-143 -156 -143 -381q0 -219 142 -368q144 -150 351 -150q208 0 358 156q151 156 151 381q-6 234 -139 376q-131 142 -351 143zM542 984q112 0 173 -130q61 -129 61 -341q0 -204 -72 -345q-70 -141 -173 -141q-99 0 -168 135
q-69 138 -69 335q0 202 69 344q71 143 179 143zM684 5q0 -2 -198 -190q-106 -101 -122 -134q-15 -29 -13 -64q5 -60 74 -93t204 3l4 -38q-167 -57 -291.5 -24t-140.5 132q-9 62 25.5 110.5t122.5 112.5l249 185h86z" />
    <glyph glyph-name="jcaron" unicode="&#x1f0;" horiz-adv-x="1090" 
d="M786 1033l-352 -83q109 0 109 -139v-1072q0 -180 -139 -183q-90 -4 -149 38q-40 28 -47 73q-4 26 10 83q13 56 10 83q-5 40 -36 67q-28 24 -70 20q-45 -4 -69 -46q-23 -41 -17 -104q11 -75 63 -138q50 -62 127 -99q78 -35 182 -35q154 6 264 109q114 112 114 293v1133z
M623 1188l-370 359l46 33l358 -241l357 241l46 -33l-370 -359h-67z" />
    <glyph glyph-name="Gacute" unicode="&#x1f4;" horiz-adv-x="1592" 
d="M30 0zM825 1477q-237 0 -419 -105q-181 -104 -277 -278q-99 -178 -99 -380q0 -318 218 -532q213 -211 544 -205q185 5 335 67q133 54 239 146v171q0 188 196 231v44h-656v-44q198 -46 198 -231v-52q0 -128 -85 -203q-84 -77 -230 -74q-156 0 -262 93q-110 94 -154 240
q-48 156 -48 349q1 290 136 496q138 210 356 212q389 -1 487 -395l37 4l-23 424h-39q-8 -89 -142 -43q-189 64 -312 65zM1026 1915l-351 -342l-59 38l195 304h215z" />
    <glyph glyph-name="gacute" unicode="&#x1f5;" horiz-adv-x="1229" 
d="M30 0zM547 993q75 -1 121 -47q84 -88 85 -268q0 -140 -63 -229q-58 -93 -143 -93q-89 0 -148 87q-57 85 -57 223q0 132 54 226q54 102 151 101zM149 -47q52 -32 94 -44q42 -14 124 -14h493q80 0 124 -33q38 -28 40 -74.5t-22 -84.5t-63 -67q-163 -113 -405 -119
q-240 -6 -351 65t-107 195q3 104 73 176zM927 1142q-148 0 -259 -122q-74 14 -114 13q-203 0 -328 -105q-129 -104 -129 -260q0 -86 48 -160q47 -74 122 -121q-183 -93 -211 -228q-8 -39 5.5 -89t57.5 -96q-87 -86 -89 -204q-2 -72 30 -135t104 -102q142 -78 374 -74
q234 4 404 94q219 116 219 305q-2 296 -389 296h-408q-124 0 -145 72q-10 36 14 78q21 42 61 69v-4q106 -54 248 -54q192 1 322 101q136 112 136 262q0 130 -73 214q-65 80 -200 116q31 40 65 47q38 11 65 -4q31 -15 73 -61q29 -32 61 -47q31 -15 69 -7t53.5 40t6.5 66
q-12 50 -81 80q-46 18 -112 20zM872 1586l-351 -342l-59 38l195 304h215z" />
    <glyph glyph-name="Adblgrave" unicode="&#x200;" horiz-adv-x="1551" 
d="M30 0zM722 1455l-477 -1254q-62 -160 -215 -157v-44h369v44q-170 0 -107 157l108 282h515l114 -282q64 -159 -106 -157v-44h598v44q-144 4 -210 157l-521 1254h-68zM651 1137q220 -548 247 -612h-481q16 41 234 612zM706 1889l351 -342l59 38l-195 304h-215zM292 1889
l351 -342l59 38l-195 304h-215z" />
    <glyph glyph-name="adblgrave" unicode="&#x201;" horiz-adv-x="1122" 
d="M30 0zM451 1036q-187 -2 -294 -89q-65 -53 -60 -109q6 -39 34 -60q33 -22 66 -14q31 6 53 31q24 25 41 67q33 82 44 92q35 33 116 33q199 0 201 -130q3 -171 -384 -307q-232 -80 -232 -288q0 -129 85 -205q87 -75 216 -80q116 -1 198 45q85 48 124 111q12 -149 214 -149
q107 0 219 75l-16 31q-80 -52 -137 -40q-50 15 -50 108v502q1 134 -41 216q-80 160 -397 160zM652 675v-259q0 -152 -55 -251q-53 -98 -153 -98q-82 -1 -125 62q-41 63 -44 145q-1 83 34 148q35 66 109 101q178 89 234 152zM444 1465l351 -342l59 38l-195 304h-215zM30 1465
l351 -342l59 38l-195 304h-215z" />
    <glyph glyph-name="Edblgrave" unicode="&#x204;" horiz-adv-x="1341" 
d="M30 0zM30 1455v-40q183 3 182 -183v-1011q0 -177 -182 -181v-40h1256l25 415l-36 3q-21 -379 -480 -379q-328 0 -328 244v477h185q213 0 213 -222h39v485h-39q0 -218 -213 -218h-185v606h365q326 0 347 -309l39 6l-22 347h-1166zM584 1891l351 -342l59 38l-195 304h-215z
M170 1891l351 -342l59 38l-195 304h-215z" />
    <glyph glyph-name="edblgrave" unicode="&#x205;" horiz-adv-x="1037" 
d="M30 0zM528 1036q-220 0 -360 -157q-138 -153 -138 -381q0 -220 138 -368q141 -150 341 -150q181 0 312 113q132 114 173 315h-32q-43 -144 -130 -232t-215 -91q-148 -4 -247 133q-99 138 -86 330h723q-10 222 -136 355q-124 133 -343 133zM523 991q79 3 135 -72
q57 -74 75 -161q20 -86 17 -161h-463q4 59 17 120q13 63 39 125q26 64 72 105q48 42 108 44zM464 1475l351 -342l59 38l-195 304h-215zM50 1475l351 -342l59 38l-195 304h-215z" />
    <glyph glyph-name="Idblgrave" unicode="&#x208;" horiz-adv-x="884" 
d="M30 0zM191 1455v-40q181 -1 181 -184v-1008q0 -183 -181 -183v-40h618v40q-181 0 -181 183v1008q0 184 181 184v40h-618zM444 1892l351 -342l59 38l-195 304h-215zM30 1892l351 -342l59 38l-195 304h-215z" />
    <glyph glyph-name="Odblgrave" unicode="&#x20c;" horiz-adv-x="1583" 
d="M30 0zM809 1480q-228 -1 -408 -106t-277 -279q-94 -171 -94 -385q0 -310 217 -523q216 -214 535 -214q208 0 387 100q177 98 281 275q103 175 103 391q0 335 -196 537q-198 204 -548 204zM803 1424q216 0 341 -189q123 -186 123 -498q0 -200 -66 -362q-67 -165 -177 -256
q-113 -92 -240 -92q-194 0 -329 198q-137 200 -137 487q0 196 60 356q60 161 171 258q112 98 254 98zM673 1917l351 -342l59 38l-195 304h-215zM259 1917l351 -342l59 38l-195 304h-215z" />
    <glyph glyph-name="odblgrave" unicode="&#x20d;" horiz-adv-x="1062" 
d="M30 0zM542 1033q-225 1 -369 -157q-143 -156 -143 -381q0 -219 142 -368q144 -150 351 -150q208 0 358 156q151 156 151 381q-6 234 -139 376q-131 142 -351 143zM542 984q112 0 173 -130q61 -129 61 -341q0 -204 -72 -345q-70 -141 -173 -141q-99 0 -168 135
q-69 138 -69 335q0 202 69 344q71 143 179 143zM498 1466l351 -342l59 38l-195 304h-215zM84 1466l351 -342l59 38l-195 304h-215z" />
    <glyph glyph-name="Rdblgrave" unicode="&#x210;" horiz-adv-x="1496" 
d="M30 0zM30 1456v-41q182 0 181 -183v-1011q0 -182 -181 -181v-40h619v40q-182 0 -181 181v483h40q101 0 162 -41q66 -44 99 -114l127 -285q77 -171 73 -264h497v40q-170 0 -298 259l-137 274q-66 131 -189 138q160 24 262 126q104 104 104 243q0 156 -129 266
q-131 110 -312 110h-737zM468 1409h94q168 0 274 -94.5t106 -236.5q0 -141 -106 -235.5t-274 -94.5h-94v661zM596 1893l351 -342l59 38l-195 304h-215zM182 1893l351 -342l59 38l-195 304h-215z" />
    <glyph glyph-name="rdblgrave" unicode="&#x211;" horiz-adv-x="982" 
d="M30 0zM415 1030l-348 -56v-34q135 21 135 -151v-540q0 -209 -135 -215v-34h512v34q-137 3 -137 215v403q0 123 59 217q61 94 122 101q43 7 78 -20q28 -18 54 -72q20 -44 46.5 -64.5t67 -20.5t62 26.5t21.5 60.5q0 63 -70 103q-81 46 -183 47q-168 0 -257 -143
q0 109 -27 143zM444 1473l351 -342l59 38l-195 304h-215zM30 1473l351 -342l59 38l-195 304h-215z" />
    <glyph glyph-name="Udblgrave" unicode="&#x214;" 
d="M30 0zM30 1454v-39q182 0 181 -183v-783q0 -231 144 -349q153 -123 421 -123q260 0 414 123q156 124 156 349v783q0 183 178 183v39h-407v-39q181 0 181 -183v-783q0 -193 -108 -285q-106 -93 -304 -93q-197 0 -306 95.5t-111 282.5v783q-1 183 181 183v39h-620z
M724 1891l351 -342l59 38l-195 304h-215zM310 1891l351 -342l59 38l-195 304h-215z" />
    <glyph glyph-name="udblgrave" unicode="&#x215;" horiz-adv-x="1211" 
d="M30 0zM481 -22q182 1 296 135q5 -107 31 -135l353 61v35q-141 -24 -141 153v781l-382 -1v-34q140 -3 140 -213l-1 -474q1 -90 -54 -156q-57 -67 -139 -67q-89 0 -144 66q-55 68 -55 157v722h-375v-34q138 -3 138 -213v-442q1 -165 89 -255q92 -89 244 -86zM540 1444
l351 -342l59 38l-195 304h-215zM126 1444l351 -342l59 38l-195 304h-215z" />
    <glyph glyph-name="Hcaron" unicode="&#x21e;" horiz-adv-x="1647" 
d="M30 0zM30 1455v-40q181 -1 181 -184v-1008q0 -188 -181 -183v-40h618v40q-181 -3 -181 183v514h714v-514q0 -188 -181 -183v-40h617v40q-180 -3 -180 183v1008q0 188 180 184v40h-617v-40q181 -1 181 -184v-450h-714v450q0 188 181 184v40h-618zM787 1559l-370 359l66 45
l338 -253l337 253l66 -45l-370 -359h-67z" />
    <glyph glyph-name="hcaron" unicode="&#x21f;" horiz-adv-x="1218" 
d="M30 0zM713 1030q-180 -2 -297 -137v620l-386 -58v-36q144 27 144 -146v-1026q0 -210 -144 -212v-35h526v35q-140 3 -140 212v475q1 90 55 157q58 67 139 67q85 0 143 -67q56 -69 55 -157v-475q1 -210 -143 -212v-35h523v35q-141 3 -142 212v440q-3 168 -88 255
q-93 90 -245 88zM546 1653l-370 359l66 45l338 -253l337 253l66 -45l-370 -359h-67z" />
    <glyph glyph-name="Ecedilla" unicode="&#x228;" horiz-adv-x="1341" 
d="M30 0zM30 1455v-40q183 3 182 -183v-1011q0 -177 -182 -181v-40h1256l25 415l-36 3q-21 -379 -480 -379q-328 0 -328 244v477h185q213 0 213 -222h39v485h-39q0 -218 -213 -218h-185v606h365q326 0 347 -309l39 6l-22 347h-1166zM600 -35q-8 -26 -32 -118
q156 -63 123 -162t-223 -91l-8 -37q300 -32 342 109t-164 185l28 114h-66z" />
    <glyph glyph-name="ecedilla" unicode="&#x229;" horiz-adv-x="1037" 
d="M30 0zM528 1036q-220 0 -360 -157q-138 -153 -138 -381q0 -220 138 -368q141 -150 341 -150q181 0 312 113q132 114 173 315h-32q-43 -144 -130 -232t-215 -91q-148 -4 -247 133q-99 138 -86 330h723q-10 222 -136 355q-124 133 -343 133zM523 991q79 3 135 -72
q57 -74 75 -161q20 -86 17 -161h-463q4 59 17 120q13 63 39 125q26 64 72 105q48 42 108 44zM502 -50q-8 -26 -32 -118q156 -63 123 -162t-223 -91l-8 -37q300 -32 342 109t-164 185l28 114h-66z" />
    <glyph glyph-name="Ymacron" unicode="&#x232;" horiz-adv-x="1496" 
d="M30 0zM30 1455v-40q124 0 235 -183l269 -439q64 -104 71 -133q16 -54 18 -187v-252q0 -182 -183 -181v-40h620v40q-184 0 -185 181v454q0 72 6 87q9 27 23 44l288 422q126 184 274 187v40h-366v-40q167 -1 38 -184l-300 -427l-270 425q-117 184 62 186v40h-600zM446 1661
h762v-102h-762v102z" />
    <glyph glyph-name="ymacron" unicode="&#x233;" horiz-adv-x="1217" 
d="M30 0zM47 974q127 0 214 -210l316 -764l-109 -252q-45 -104 -107 -136q-38 -20 -84 -3q-28 10 -72 61q-44 52 -106 34q-40 -12 -54.5 -53.5t2 -86.5t72.5 -67t132.5 -10t142.5 66t119 178l442 1033q88 206 232 210v34h-344v-34q151 -1 64 -202l-201 -462l-187 454
q-86 210 31 210v34h-503v-34zM255 1214h762v-102h-762v102z" />
    <glyph glyph-name="dotlessi" unicode="&#x131;" horiz-adv-x="582" 
d="M30 939q140 25 139 -140v-560q1 -197 -139 -204v-35h522v35q-138 8 -139 204v791l-383 -56v-35z" />
    <glyph glyph-name="igrave" unicode="&#xec;" horiz-adv-x="635" 
d="M30 0zM83 939q140 25 139 -140v-560q1 -197 -139 -204v-35h522v35q-138 8 -139 204v791l-383 -56v-35zM30 1490l351 -342l59 38l-195 304h-215z" />
    <glyph glyph-name="iacute" unicode="&#xed;" horiz-adv-x="582" 
d="M30 0zM30 939q140 25 139 -140v-560q1 -197 -139 -204v-35h522v35q-138 8 -139 204v791l-383 -56v-35zM497 1490l-351 -342l-59 38l195 304h215z" />
    <glyph glyph-name="icircumflex" unicode="&#xee;" horiz-adv-x="867" 
d="M10 0zM192 939q140 25 139 -140v-560q1 -197 -139 -204v-35h522v35q-138 8 -139 204v791l-383 -56v-35zM400 1548l-370 -359l66 -45l338 253l337 -253l66 45l-370 359h-67z" />
    <glyph glyph-name="idieresis" unicode="&#xef;" horiz-adv-x="878" 
d="M20 0zM187 939q140 25 139 -140v-560q1 -197 -139 -204v-35h522v35q-138 8 -139 204v791l-383 -56v-35zM270 1398q-39 43 -97.5 43t-100.5 -40.5t-42 -101.5t42 -102t100.5 -41t99 41t40.5 102t-42 99zM806 1398q-40 43 -100.5 43t-101 -40.5t-40.5 -101.5t40.5 -102
t101 -41t101.5 41t41 102t-42 99z" />
    <glyph glyph-name="itilde" unicode="&#x129;" horiz-adv-x="824" 
d="M30 0zM137 939q140 25 139 -140v-560q1 -197 -139 -204v-35h522v35q-138 8 -139 204v791l-383 -56v-35zM751 1433l43 -7q-13 -291 -309 -191l-284 96q-88 30 -125 -96l-46 6q3 281 291 193l303 -92q86 -26 127 91z" />
    <glyph glyph-name="imacron" unicode="&#x12b;" horiz-adv-x="822" 
d="M0 0zM179 939q140 25 139 -140v-560q1 -197 -139 -204v-35h522v35q-138 8 -139 204v791l-383 -56v-35zM30 1259h762v-102h-762v102z" />
    <glyph glyph-name="ibreve" unicode="&#x12d;" horiz-adv-x="746" 
d="M6 0zM78 939q140 25 139 -140v-560q1 -197 -139 -204v-35h522v35q-138 8 -139 204v791l-383 -56v-35zM6 1538q0 -169 86.5 -275.5t257.5 -106.5t256.5 106.5t85.5 275.5h-68q-18 -213 -284 -213t-263 213h-71z" />
    <glyph glyph-name="iogonek" unicode="&#x12f;" horiz-adv-x="600" 
d="M30 0zM48 939q140 25 139 -140v-560q1 -197 -139 -204v-35h522v35q-138 8 -139 204v791l-383 -56v-35zM522 -13q0 -2 -198 -190q-106 -101 -122 -134q-15 -29 -13 -64q5 -60 74 -93t204 3l4 -38q-167 -57 -291.5 -24t-140.5 132q-9 62 25.5 110.5t122.5 112.5l249 185h86
z" />
    <glyph glyph-name="icaron" unicode="&#x1d0;" horiz-adv-x="867" 
d="M30 0zM202 939q140 25 139 -140v-560q1 -197 -139 -204v-35h522v35q-138 8 -139 204v791l-383 -56v-35zM400 1156l-370 359l66 45l338 -253l337 253l66 -45l-370 -359h-67z" />
    <glyph glyph-name="idblgrave" unicode="&#x209;" horiz-adv-x="884" 
d="M30 0zM252 939q140 25 139 -140v-560q1 -197 -139 -204v-35h522v35q-138 8 -139 204v791l-383 -56v-35zM444 1490l351 -342l59 38l-195 304h-215zM30 1490l351 -342l59 38l-195 304h-215z" />
    <glyph glyph-name="questiondown" unicode="&#xbf;" horiz-adv-x="989" 
d="M733 -429q80 24 134 72q58 51 78 119q14 53 -3 97q-16 39 -60 49.5t-80 -20.5q-22 -22 -26 -76q-2 -32 1 -65q3 -45 -3 -66q-8 -27 -35 -45q-69 -42 -157 -34q-68 6 -117 42.5t-92 105.5q-82 131 -92 292q-14 201 46 320q60 122 158 123q80 1 143 -57q61 -57 82 -148h53
v382h-52v-230q-102 116 -235 120q-192 8 -319 -137q-127 -143 -110 -353q14 -221 164 -364q154 -145 367 -147q87 0 155 20zM832 998q-39 43 -97.5 43t-100.5 -40.5t-42 -101.5t42 -102t100.5 -41t99 41t40.5 102t-42 99z" />
    <glyph glyph-name="thorn" unicode="&#xfe;" horiz-adv-x="1172" 
d="M408 1535l-378 -80v-34q140 23 140 -147v-1573q0 -210 -140 -213v-34h516v34q-138 2 -138 213v382q128 -96 292 -100q190 1 314 149q128 150 128 390q0 242 -118 377q-117 136 -313 136q-159 0 -303 -118v618zM631 54q-64 0 -127 36q-61 36 -95 79v536q2 114 67 186
q70 69 146 74q121 6 202 -129q79 -132 79 -337q0 -201 -70 -323q-74 -122 -202 -122z" />
    <glyph glyph-name="Thorn" unicode="&#xde;" horiz-adv-x="1296" 
d="M30 1415q194 0 193 -194v-1000q1 -181 -193 -181v-40h634v40q-192 -1 -192 181v77h381q173 0 293 131.5t120 320t-120 320t-293 131.5h-381q0 210 192 214v40h-634v-40zM472 1155h199q141 0 239.5 -118t98.5 -287.5t-98.5 -288.5t-239.5 -119h-199v813z" />
    <glyph glyph-name="asterisk" unicode="*" horiz-adv-x="777" 
d="M173 833q-25 19 -30 51.5t13 48.5q32 29 185 168q6 6 3 15t-12 11q-9 1 -247 27q-25 3 -40 31.5t-5 58.5t39.5 44t50.5 2q38 -22 216 -127q7 -4 15 2t7 14q-1 9 -51 247q-6 24 17 48t55 24q31 0 54 -24t18 -48q-11 -43 -54 -246q-1 -9 6.5 -14t15.5 0q8 4 219 125
q21 12 50 -3t39 -45t-4.5 -58t-39.5 -31q-55 -5 -248 -26q-7 0 -12 -6.5t-4.5 -10t8.5 -14.5t185 -163q18 -15 13.5 -48t-31 -52t-57 -13t-41.5 30q-18 39 -104 226q-4 8 -14 8t-14 -8t-101 -228q-10 -22 -42.5 -28.5t-57.5 12.5z" />
    <glyph glyph-name="quotedbl" unicode="&#x22;" horiz-adv-x="495" 
d="M170 1455q-23 21 -57 21t-58.5 -21t-20.5 -54l54 -376h49l53 376q2 33 -20 54zM443 1455q-23 21 -57 21t-58.5 -21t-20.5 -54l54 -376h49l53 376q2 33 -20 54z" />
    <glyph glyph-name="exclam" unicode="!" horiz-adv-x="393" 
d="M195 1477q-69 0 -117 -56.5t-37 -131.5l133 -924h44l134 924q11 73 -37.5 130.5t-119.5 57.5zM298 214q-39 43 -97.5 43t-100.5 -40.5t-42 -101.5t42 -102t100.5 -41t99 41t40.5 102t-42 99z" />
    <glyph glyph-name="germandbls" unicode="&#xdf;" horiz-adv-x="1170" 
d="M610 1484q-402 0 -402 -423v-837q0 -184 -178 -184v-40h411v1224q0 200 182 199q200 0 199 -253q0 -202 -156 -307q-93 -63 -28 -164l282 -438q38 -64 18 -113q-19 -49 -69 -74q-52 -24 -108 -16q-40 6 -61 32q-15 22 -26 60q-11 42 -24 59q-18 27 -52 32q-34 6 -59 -10
q-29 -18 -34 -56q-5 -31 3 -60q9 -36 37 -63q56 -54 154 -67q112 -13 206 27q86 38 150 113q62 73 73 159q12 88 -42 174l-234 343q-42 59 -4 92q160 144 160 300q0 291 -398 291z" />
    <glyph glyph-name="Oslash" unicode="&#xd8;" horiz-adv-x="1585" 
d="M1422 1501l-137 -160q-182 137 -475 137q-228 0 -407 -105q-181 -106 -278 -280q-95 -171 -95 -385q0 -312 218 -524q3 -5 24 -23l-139 -161l38 -43l145 168q198 -155 467 -155q208 0 388 100q179 99 282 275q102 174 102 392q0 337 -197 538l-29 29l132 152zM805 1422
q216 0 341 -188q6 -10 19 -32l-762 -887q-84 168 -84 395q0 198 60 356q59 160 171 259q111 97 255 97zM1194 1146q75 -170 75 -411q0 -203 -66 -363q-67 -164 -177 -255q-115 -93 -240 -93q-195 0 -329 198q-5 7 -26 38z" />
    <glyph glyph-name="oslash" unicode="&#xf8;" horiz-adv-x="1053" 
d="M963 1056l-110 -127q-122 103 -316 103q-225 0 -365 -155q-142 -158 -142 -379q0 -216 139 -364l-106 -124l36 -41l108 127h1q132 -115 310 -115q209 0 356 156q149 157 149 379q0 233 -130 376h-1l106 122zM532 986q112 0 171 -127q17 -32 28 -72l-422 -492
q-21 92 -21 203q0 203 70 347q67 141 174 141zM746 723q19 -99 19 -208q0 -205 -72 -346t-170.5 -141t-167.5 137q-15 32 -29 68z" />
    <glyph glyph-name="Eth" unicode="&#xd0;" horiz-adv-x="1619" 
d="M39 1455v-40q183 -3 183 -183v-431h-192v-49h192v-531q0 -178 -183 -181v-40h851q294 0 496 214q203 215 195 514q-2 146 -66 283q-59 129 -161 229q-102 98 -247 158q-142 57 -302 57h-766zM476 1411h177q129 0 259 -52t216 -148q178 -198 187 -483q4 -164 -42 -301
q-43 -131 -129 -223q-88 -94 -181 -126q-92 -32 -206 -32q-281 0 -281 237v469h294v49h-294v610z" />
    <glyph glyph-name="eth" unicode="&#xf0;" horiz-adv-x="1065" 
d="M570 1543l-57 -26q49 -55 101 -133l-196 -125l25 -49l198 125q99 -190 127 -373q-41 29 -107.5 48t-127.5 19q-224 0 -363.5 -155.5t-139.5 -377.5q0 -219 140 -366q140 -149 344 -149q109 0 201.5 45t154.5 120.5t100 170.5t47 198q18 223 -65 448.5t-232 416.5l175 109
l-26 50l-184 -117q-53 63 -115 121zM530 984q109 0 170 -130t61 -340q0 -203 -71.5 -345t-169 -142t-167.5 137q-66 133 -66 333q0 204 67 345q69 142 176 142z" />
    <glyph glyph-name="quotesingle" unicode="'" horiz-adv-x="222" 
d="M170 1455q-23 21 -57 21t-58.5 -21t-20.5 -54l54 -376h49l53 376q2 33 -20 54z" />
    <glyph glyph-name="exclamdown" unicode="&#xa1;" horiz-adv-x="393" 
d="M195 -455q-69 0 -117 56.5t-37 131.5l133 924h44l134 -924q11 -73 -37.5 -130.5t-119.5 -57.5zM298 994q-39 43 -97.5 43t-100.5 -40.5t-42 -101.5t42 -102t100.5 -41t99 41t40.5 102t-42 99z" />
    <glyph glyph-name="onequarter" unicode="&#xbc;" horiz-adv-x="1284" 
d="M1107 1453l-1077 -1613l31 -26l1077 1611zM220 1263q-68 -49 -181 -68v-28h103v-493q0 -103 -103 -103v-23h328v23q-102 0 -102 103v589h-45zM1038 722l-393 -505v-19h317v-70q1 -103 -103 -103v-23h331v23q-104 0 -103 103v70h30q91 0 91 -125h22v277h-22
q0 -124 -91 -124h-30v496h-49zM962 585v-359h-279z" />
    <glyph glyph-name="threequarters" unicode="&#xbe;" horiz-adv-x="1408" 
d="M1232 1453l-1078 -1613l32 -26l1077 1611zM1140 722l-393 -505v-19h317v-70q1 -103 -103 -103v-23h331v23q-104 0 -103 103v70h30q91 0 91 -125h22v277h-22q0 -124 -91 -124h-30v496h-49zM1064 585v-359h-279zM268 1269q-38 -2 -76 -14t-64 -31q-36 -29 -51 -73
q-12 -34 0 -62q12 -29 39 -37q21 -5 41 6t27 33q6 17 4 31l-3 29q-1 15 5 34q9 24 32.5 39.5t48.5 16.5q77 5 107 -61q15 -33 15 -72q0 -114 -100 -139q-18 -5 -38 -5l3 -23h10q77 -9 112 -51q36 -41 34 -124q-1 -82 -36 -134q-34 -51 -104 -56q-94 -5 -118 52q-6 17 -5 34
v14.5t1 14.5q0 14 -5 30q-9 22 -29 31q-12 6 -26 5q-10 -1 -15 -3q-28 -10 -38 -40q-9 -28 4 -62q16 -39 56 -64q73 -44 175 -43q141 1 225 74q34 30 52.5 71t17.5 88q-2 85 -88 141q-47 30 -106 42q48 14 81 37q70 50 68 116q0 36 -18.5 66t-50.5 50q-76 47 -187 39z" />
    <glyph glyph-name="onehalf" unicode="&#xbd;" horiz-adv-x="1353" 
d="M1107 1453l-1077 -1613l31 -26l1078 1611zM220 1263q-68 -49 -181 -68v-28h103v-493q0 -103 -103 -103v-23h328v23q-102 0 -102 103v589h-45zM989 729q-38 -1 -81 -14t-71 -33q-42 -30 -57 -71q-13 -37 -1 -65q12 -29 44 -37q23 -6 44.5 5t29.5 34q6 15 4 31q0 4 -1 14
t-2 15q-2 15 6 36q8 24 33.5 39t54.5 18q35 3 68.5 -12.5t48.5 -52.5q16 -38 16 -89q0 -157 -129 -197q-134 -42 -192.5 -99t-58.5 -154q0 -71 19 -99l18 1q33 68 91 70q46 1 129 -34q95 -38 155 -36q157 1 155 190l-18 3q-31 -69 -96 -68q-70 1 -152 39q-78 35 -129 33
q-133 -2 -152 -145q-4 43 3.5 79.5t22 62t37.5 46.5t46 34t53 24.5t52.5 17.5t50.5 13t41 12q49 16 76 28t49 30q37 30 55 71.5t17 87.5q-2 40 -23 75.5t-54 54.5q-75 45 -202 42z" />
    <glyph glyph-name="hyphen" unicode="-" horiz-adv-x="569" 
d="M30 703v-159h509v159h-509z" />
    <glyph glyph-name="underscore" unicode="_" horiz-adv-x="1078" 
d="M30 -106v-106h1018v106h-1018z" />
    <glyph glyph-name="backslash" unicode="\" horiz-adv-x="581" 
d="M551 -195l-57 -17l-464 1641l58 15z" />
    <glyph glyph-name="bar" unicode="|" horiz-adv-x="166" 
d="M136 1455h-106v-1667h106v1667z" />
    <glyph glyph-name="sterling" unicode="&#xa3;" horiz-adv-x="1311" 
d="M231 240q21 1 44 -2.5t38.5 -8.5t42.5 -14.5t44 -14.5q-8 -69 -49.5 -119t-113.5 -48q-39 1 -64.5 27.5t-31.5 63.5q-7 44 17 78t73 38zM773 1484q-154 -4 -262 -99q-114 -101 -110 -264l9 -319h-186v-49h187l10 -289q0 -90 -10 -182q-47 9 -82 13t-86 4.5t-94 -15
t-74 -47.5q-28 -27 -36.5 -69t4.5 -83q14 -41 52 -69.5t97 -33.5q188 -17 324 165q20 -10 70.5 -36.5t75 -39t69.5 -32.5t75.5 -28.5t69 -15t72.5 -4.5q126 10 198 84q48 50 90 162l-33 18q-43 -35 -86.5 -53t-96.5 -25t-100.5 -4t-105.5 13.5t-105 22t-105 27.5l-42 12
q70 189 75 505h282v49h-281v465q0 161 140 165q88 3 147 -35q41 -27 48 -66q4 -26 -9 -75q-15 -53 -12 -75q5 -36 36 -60q29 -21 71 -18q45 4 70 42q22 36 17 93q-10 66 -63 124q-51 56 -127 89q-82 33 -183 33z" />
    <glyph glyph-name="asciicircum" unicode="^" horiz-adv-x="832" 
d="M415 1452l-385 -600h118l288 449l288 -449h78z" />
    <glyph glyph-name="less" unicode="&#x3c;" horiz-adv-x="805" 
d="M30 701l745 -385v113l-571 289l571 297v73z" />
    <glyph glyph-name="greater" unicode="&#x3e;" horiz-adv-x="805" 
d="M775 703l-745 385v-113l571 -289l-571 -297v-73z" />
    <glyph glyph-name="multiply" unicode="&#xd7;" horiz-adv-x="789" 
d="M69 362l326 326l323 -324l39 39l-324 324l326 326l-38 38l-326 -326l-325 325l-39 -38l325 -326l-326 -326z" />
    <glyph glyph-name="yen" unicode="&#xa5;" horiz-adv-x="1497" 
d="M30 1455v-40q125 0 235 -182l214 -352h-212v-56h247l19 -32l72 -132q2 -4 7 -29h-345v-56h351q5 -43 5 -104v-250q0 -182 -184 -182v-40h622v40q-186 0 -186 182v354h355v56h-355v43q0 73 7 86q11 32 22 45l13 19h313v56h-275l237 347q128 185 275 187v40h-366v-40
q169 0 38 -184l-300 -427l-270 426q-117 183 60 185v40h-599z" />
    <glyph glyph-name="cent" unicode="&#xa2;" horiz-adv-x="990" 
d="M524 1455v-199q-232 -5 -361 -157q-133 -152 -133 -387q0 -216 143 -366q140 -148 350 -148h1v-198h58v202q134 18 225 106q120 115 153 315h-33q-83 -318 -309 -328q-23 0 -36 2v909q60 -5 92 -34q16 -12 37 -87q16 -52 40 -76q23 -25 53 -32q35 -6 67 13q34 19 38 58
q7 61 -62 115q-104 83 -265 93v199h-58zM524 1204v-896q-84 27 -144 107q-92 126 -97 300q-2 114 27 227q30 107 96 186q54 65 118 76z" />
    <glyph glyph-name="mu" unicode="&#xb5;" horiz-adv-x="1209" 
d="M30 974q136 0 136 -210v-390q0 -198 -28 -414q-28 -217 -28 -226q0 -52 25 -87t63 -35q40 0 65.5 36t25.5 86q0 31 -18 178q-19 147 -20 243q34 -74 96.5 -126.5t147.5 -55.5q172 -7 295 136q4 -102 30 -131l359 55v40q-148 -24 -148 136v799h-378v-34q136 0 137 -210
v-482q0 -92 -54.5 -157.5t-138.5 -65.5q-88 0 -142 65.5t-54 157.5v726h-371v-34z" />
    <glyph glyph-name="paragraph" unicode="&#xb6;" horiz-adv-x="1100" 
d="M463 1455q-180 0 -307 -124q-126 -124 -126 -299q0 -179 126 -300q124 -123 307 -123h63v-612q0 -236 -203 -235v-40h747v40q-204 -1 -204 235v1180q0 238 204 238v40h-607zM631 1413h132v-1648h-132v1648z" />
    <glyph glyph-name="section" unicode="&#xa7;" horiz-adv-x="962" 
d="M484 1473q-146 -2 -258 -102q-60 -52 -91 -140q-31 -87 -7 -179q15 -60 71 -121q-95 -48 -132 -144.5t13 -193.5q27 -45 102 -107q93 -76 403 -324q93 -74 93 -183q0 -75 -41 -130q-58 -76 -164 -83q-83 -7 -145 33q-41 25 -47 64q-5 19 10 74q12 44 10 71q-5 39 -34 60
q-30 23 -70 19q-44 -5 -68 -41q-20 -35 -16 -92q12 -72 62 -123q50 -55 124 -87q82 -33 178 -31q145 2 258 103q61 52 91.5 138.5t6.5 178.5q-15 63 -71 123q95 49 132.5 144.5t-13.5 192.5q-27 48 -102 108q-94 76 -403 324q-92 74 -92 183q0 76 41 130q58 76 164 84
q82 5 145 -34q41 -26 46 -63q5 -20 -10 -75q-14 -48 -11 -72q5 -37 35 -59.5t70 -18.5q45 5 68 41q21 35 17 93q-12 68 -62 121q-54 57 -124 87q-79 33 -179 31zM221 909q18 -18 28 -26l415 -334q132 -106 77 -272q-25 25 -29 28l-414 332q-132 106 -77 272z" />
    <glyph glyph-name="brokenbar" unicode="&#xa6;" horiz-adv-x="166" 
d="M136 1455h-106v-686h106v686zM136 474h-106v-686h106v686z" />
    <glyph glyph-name="degree" unicode="&#xb0;" horiz-adv-x="553" 
d="M449 1483q-71 74 -173.5 74t-174 -72.5t-71.5 -175.5t71.5 -175.5t174 -72.5t175 72.5t72.5 175.5t-74 174zM154 1433q51 51 122.5 51t123.5 -51.5t52 -123.5t-52 -123t-123.5 -51t-121.5 51t-50 123t49 124z" />
    <glyph glyph-name="twosuperior" unicode="&#xb2;" horiz-adv-x="629" 
d="M274 1475q-38 -1 -81 -14t-71 -33q-42 -30 -57 -71q-13 -37 -1 -65q12 -29 44 -37q23 -6 44.5 5t29.5 34q6 15 4 31q0 4 -1 14t-2 15q-2 15 6 36q8 24 33.5 39t54.5 18q35 3 68.5 -12.5t48.5 -52.5q16 -38 16 -89q0 -157 -129 -197q-134 -42 -192.5 -99t-58.5 -154
q0 -71 19 -99l18 1q33 68 91 70q46 1 129 -34q95 -38 155 -36q157 1 155 190l-18 3q-31 -69 -96 -68q-70 1 -152 39q-78 35 -129 33q-133 -2 -152 -145q-4 43 3.5 79.5t22 62t37.5 46.5t46 34t53 24.5t52.5 17.5t50.5 13t41 12q49 16 76 28t49 30q37 30 55 71.5t17 87.5
q-2 40 -23 75.5t-54 54.5q-75 45 -202 42z" />
    <glyph glyph-name="threesuperior" unicode="&#xb3;" horiz-adv-x="599" 
d="M264 1468q-38 -2 -76 -14t-64 -31q-36 -29 -51 -73q-12 -34 0 -62q12 -29 39 -37q21 -5 41 6t27 33q6 17 4 31l-3 29q-1 15 5 34q9 24 32.5 39.5t48.5 16.5q77 5 107 -61q15 -33 15 -72q0 -114 -100 -139q-18 -5 -38 -5l3 -23h10q77 -9 112 -51q36 -41 34 -124
q-1 -82 -36 -134q-34 -51 -104 -56q-94 -5 -118 52q-6 17 -5 34v14.5t1 14.5q0 14 -5 30q-9 22 -29 31q-12 6 -26 5q-10 -1 -15 -3q-28 -10 -38 -40q-9 -28 4 -62q16 -39 56 -64q73 -44 175 -43q141 1 225 74q34 30 52.5 71t17.5 88q-2 85 -88 141q-47 30 -106 42
q48 14 81 37q70 50 68 116q0 36 -18.5 66t-50.5 50q-76 47 -187 39z" />
    <glyph glyph-name="onesuperior" unicode="&#xb9;" horiz-adv-x="388" 
d="M211 1455q-68 -49 -181 -68v-28h103v-493q0 -103 -103 -103v-23h328v23q-102 0 -102 103v589h-45z" />
    <glyph glyph-name="ordmasculine" unicode="&#xba;" horiz-adv-x="749" 
d="M381 1476q-155 0 -253 -108.5t-98 -263.5q0 -152 98 -255.5t241 -103.5q144 0 247 108t103 264q0 161 -89.5 260t-248.5 99zM379 1444q76 0 118.5 -90t42.5 -238q0 -142 -49.5 -240.5t-118.5 -98.5t-116 95t-47 232q0 142 47.5 241t122.5 99z" />
    <glyph glyph-name="guillemotleft" unicode="&#xab;" horiz-adv-x="918" 
d="M30 667l485 -370l33 46l-367 358l367 357l-33 46l-485 -370v-67zM370 667l485 -370l33 46l-367 358l367 357l-33 46l-485 -370v-67z" />
    <glyph glyph-name="guillemotright" unicode="&#xbb;" horiz-adv-x="918" 
d="M888 667l-485 -370l-33 46l367 358l-367 357l33 46l485 -370v-67zM548 667l-485 -370l-33 46l367 358l-367 357l33 46l485 -370v-67z" />
    <glyph glyph-name="periodcentered" unicode="&#xb7;" horiz-adv-x="342" 
d="M270 827q-39 43 -97.5 43t-100.5 -40.5t-42 -101.5t42 -102t100.5 -41t99 41t40.5 102t-42 99z" />
    <glyph glyph-name="ordfeminine" unicode="&#xaa;" horiz-adv-x="798" 
d="M320 1480q-131 -1 -205 -62q-46 -37 -42 -76q4 -28 23 -42q24 -16 47 -10q21 4 37 22q16 17 28 46q23 58 31 65q24 23 81 23q139 0 140 -91q2 -120 -268 -214q-162 -56 -162 -202q0 -90 60 -143q60 -52 150 -56q81 0 139 32q59 33 86 77q9 -104 150 -104q74 0 153 53
l-11 21q-56 -36 -96 -28q-35 11 -35 76v350q1 94 -29 151q-56 112 -277 112zM460 1228v-181q0 -106 -38 -175q-37 -69 -107 -69q-58 0 -87 43q-28 45 -31 102q0 58 24 103t76 71q124 62 163 106z" />
    <glyph glyph-name="macron" unicode="&#xaf;" horiz-adv-x="822" 
d="M30 1455h762v-102h-762v102z" />
    <glyph glyph-name="sfthyphen" unicode="&#xad;" horiz-adv-x="569" 
d="M30 703v-159h509v159h-509z" />
    <glyph glyph-name="registered" unicode="&#xae;" horiz-adv-x="1120" 
d="M561 -19q-111 0 -217 47q-103 45 -177 126q-68 76 -102 164q-35 93 -35 188.5t35 187.5q36 91 102 163q78 86 177 130q103 45 217 45q111 0 214 -45q101 -44 179 -130q67 -72 101 -163q35 -89 35 -187.5t-34.5 -188.5t-100.5 -164q-73 -80 -179 -126q-107 -47 -215 -47z
M561 36q85 0 167 32q83 33 144 88q73 66 113 158t40 192q0 101 -40 191q-42 94 -113 159q-65 59 -145 89q-81 31 -166 31q-87 0 -168 -31t-144 -89q-75 -67 -114 -159q-40 -92 -40 -191q0 -100 41 -192q41 -93 112 -158q61 -55 144 -88q82 -32 169 -32zM288 812v-18
q76 0 76 -76v-421q0 -76 -76 -76v-17h258v17q-76 0 -75 76v201h16q42 0 67 -17q28 -19 42 -47l53 -119q32 -72 30 -111h207v17q-70 0 -123 108l-58 115q-27 54 -79 57q67 10 110 53t43 101q0 65 -54 110q-55 47 -130 47h-307zM471 792h38q71 0 115 -39t44 -99q0 -58 -44 -98
t-115 -40h-38v276z" />
    <glyph glyph-name="copyright" unicode="&#xa9;" horiz-adv-x="1120" 
d="M561 -19q-111 0 -217 47q-103 45 -177 126q-68 76 -102 164q-35 93 -35 188.5t35 187.5q36 91 102 163q78 86 177 130q103 45 217 45q111 0 214 -45q101 -44 179 -130q67 -72 101 -163q35 -89 35 -187.5t-34.5 -188.5t-100.5 -164q-73 -80 -179 -126q-107 -47 -215 -47z
M561 36q85 0 167 32q83 33 144 88q73 66 113 158t40 192q0 101 -40 191q-42 94 -113 159q-65 59 -145 89q-81 31 -166 31q-87 0 -168 -31t-144 -89q-75 -67 -114 -159q-40 -92 -40 -191q0 -100 41 -192q41 -93 112 -158q61 -55 144 -88q82 -32 169 -32zM580 853
q-160 0 -248 -104q-87 -99 -88 -252q1 -142 94 -240q91 -96 229 -96q112 0 185 72q78 75 101 206h-22q-54 -208 -202 -214q-94 -4 -156 78q-61 82 -63 196q-1 76 18 148q20 72 62 122q45 51 101 51q52 4 74 -21q8 -8 28 -59q12 -29 28 -46q15 -15 36 -20q25 -6 43 8
q19 15 21 40q5 38 -39 72q-76 58 -202 59z" />
    <glyph glyph-name="currency" unicode="&#xa4;" horiz-adv-x="976" 
d="M80 1212l-48 -48l113 -114q-52 -62 -80 -133q-35 -90 -30 -186q3 -86 37 -161q26 -59 70 -111l-110 -110l48 -48l110 110q50 -42 111 -69q76 -34 161 -39q95 -5 185 31q72 27 134 80l114 -113l48 48l-113 113q48 55 80 135q36 90 31 185q-5 85 -39 161q-27 61 -69 111
l110 110l-48 48l-110 -110q-52 44 -111 70q-75 34 -161 37q-96 5 -186 -30q-73 -28 -134 -80zM487 1089q61 0 119 -22q66 -26 116 -76q51 -51 76 -116q25 -63 22 -137q-3 -63 -27 -117q-26 -57 -69 -99q-42 -42 -100 -69q-57 -25 -117 -28q-70 -3 -135.5 22.5t-117.5 76.5
q-49 50 -75 116t-22 136q3 61 27 118q25 55 68.5 99t99.5 69q57 24 118 27h17z" />
    <glyph glyph-name="plusminus" unicode="&#xb1;" horiz-adv-x="1078" 
d="M510 1217v-461h-480v-53h480v-410h-480q0 -56 0 -53h1018v53h-482v410h482v53h-482v461h-56z" />
    <glyph glyph-name="divide" unicode="&#xf7;" horiz-adv-x="1078" 
d="M30 756v-53h1018v53h-1018zM589 1078q-27 30 -67.5 30t-69 -28t-28.5 -70t28.5 -70.5t69 -28.5t68.5 28.5t28 70.5t-29 68zM589 518q-27 30 -67.5 30t-69 -28t-28.5 -70t28.5 -70.5t69 -28.5t68.5 28.5t28 70.5t-29 68z" />
    <glyph glyph-name="logicalnot" unicode="&#xac;" horiz-adv-x="1078" 
d="M30 703v-53h859v-458h159v511h-1018z" />
    <glyph glyph-name="horncmb" unicode="&#x31b;" horiz-adv-x="416" 
d="M176 1483q49 0 87 -22q67 -41 95 -138q28 -98 2 -204q-30 -118 -118 -199q-86 -78 -199 -102v68q78 30 136 94q61 68 84 145q8 30 9 70q0 39 -24 17q-33 -19 -72 -20q-59 -2 -102 41q-44 44 -44 103q0 64 41 104q44 43 105 43z" />
    <glyph glyph-name="Ohorn" unicode="&#x1a0;" horiz-adv-x="1870" 
d="M30 0zM809 1480q-228 -1 -408 -106t-277 -279q-94 -171 -94 -385q0 -310 217 -523q216 -214 535 -214q208 0 387 100q177 98 281 275q103 175 103 391q0 335 -196 537q-198 204 -548 204zM803 1424q216 0 341 -189q123 -186 123 -498q0 -200 -66 -362q-67 -165 -177 -256
q-113 -92 -240 -92q-194 0 -329 198q-137 200 -137 487q0 196 60 356q60 161 171 258q112 98 254 98zM1775 1476q49 0 87 -22q67 -41 95 -138q28 -98 2 -204q-30 -118 -118 -199q-86 -78 -199 -102v68q78 30 136 94q61 68 84 145q8 30 9 70q0 39 -24 17q-33 -19 -72 -20
q-59 -2 -102 41q-44 44 -44 103q0 64 41 104q44 43 105 43z" />
    <glyph glyph-name="ohorn" unicode="&#x1a1;" horiz-adv-x="1456" 
d="M30 0zM542 1033q-225 1 -369 -157q-143 -156 -143 -381q0 -219 142 -368q144 -150 351 -150q208 0 358 156q151 156 151 381q-6 234 -139 376q-131 142 -351 143zM542 984q112 0 173 -130q61 -129 61 -341q0 -204 -72 -345q-70 -141 -173 -141q-99 0 -168 135
q-69 138 -69 335q0 202 69 344q71 143 179 143zM1261 1031q49 0 87 -22q67 -41 95 -138q28 -98 2 -204q-30 -118 -118 -199q-86 -78 -199 -102v68q78 30 136 94q61 68 84 145q8 30 9 70q0 39 -24 17q-33 -19 -72 -20q-59 -2 -102 41q-44 44 -44 103q0 64 41 104
q44 43 105 43z" />
    <glyph glyph-name="Uhorn" unicode="&#x1af;" horiz-adv-x="1863" 
d="M30 0zM30 1454v-39q182 0 181 -183v-783q0 -231 144 -349q153 -123 421 -123q260 0 414 123q156 124 156 349v783q0 183 178 183v39h-407v-39q181 0 181 -183v-783q0 -193 -108 -285q-106 -93 -304 -93q-197 0 -306 95.5t-111 282.5v783q-1 183 181 183v39h-620z
M1738 1477q49 0 87 -22q67 -41 95 -138q28 -98 2 -204q-30 -118 -118 -199q-86 -78 -199 -102v68q78 30 136 94q61 68 84 145q8 30 9 70q0 39 -24 17q-33 -19 -72 -20q-59 -2 -102 41q-44 44 -44 103q0 64 41 104q44 43 105 43z" />
    <glyph glyph-name="uhorn" unicode="&#x1b0;" horiz-adv-x="1479" 
d="M10 0zM481 -22q182 1 296 135q5 -107 31 -135l353 61v35q-141 -24 -141 153v781l-382 -1v-34q140 -3 140 -213l-1 -474q1 -90 -54 -156q-57 -67 -139 -67q-89 0 -144 66q-55 68 -55 157v722h-375v-34q138 -3 138 -213v-442q1 -165 89 -255q92 -89 244 -86zM1274 1041
q49 0 87 -22q67 -41 95 -138q28 -98 2 -204q-30 -118 -118 -199q-86 -78 -199 -102v68q78 30 136 94q61 68 84 145q8 30 9 70q0 39 -24 17q-33 -19 -72 -20q-59 -2 -102 41q-44 44 -44 103q0 64 41 104q44 43 105 43z" />
    <glyph glyph-name="quotedblright" unicode="&#x201d;" horiz-adv-x="833" 
d="M176 1486q49 0 87 -22q67 -41 95 -138q28 -98 2 -204q-30 -118 -118 -199q-86 -78 -199 -102v68q78 30 136 94q61 68 84 145q8 30 9 70q0 39 -24 17q-33 -19 -72 -20q-59 -2 -102 41q-44 44 -44 103q0 64 41 104q44 43 105 43zM593 1486q49 0 87 -22q67 -41 95 -138
q28 -98 2 -204q-30 -118 -118 -199q-86 -78 -199 -102v68q78 30 136 94q61 68 84 145q8 30 9 70q0 39 -24 17q-33 -19 -72 -20q-59 -2 -102 41q-44 44 -44 103q0 64 41 104q44 43 105 43z" />
    <glyph glyph-name="quotedblleft" unicode="&#x201c;" horiz-adv-x="833" 
d="M657 820q-49 0 -87 22q-67 41 -95 138q-28 98 -2 204q30 118 118 199q86 78 199 102v-68q-78 -30 -136 -94q-61 -68 -84 -145q-8 -30 -9 -70q0 -39 24 -17q33 19 72 20q59 2 102 -41q44 -44 44 -103q0 -64 -41 -104q-44 -43 -105 -43zM240 820q-49 0 -87 22
q-67 41 -95 138q-28 98 -2 204q30 118 118 199q86 78 199 102v-68q-78 -30 -136 -94q-61 -68 -84 -145q-8 -30 -9 -70q0 -39 24 -17q33 19 72 20q59 2 102 -41q44 -44 44 -103q0 -64 -41 -104q-44 -43 -105 -43z" />
    <glyph glyph-name="quotesinglbase" unicode="&#x201a;" horiz-adv-x="416" 
d="M176 268q49 0 87 -22q67 -41 95 -138q28 -98 2 -204q-30 -118 -118 -199q-86 -78 -199 -102v68q78 30 136 94q61 68 84 145q8 30 9 70q0 39 -24 17q-33 -19 -72 -20q-59 -2 -102 41q-44 44 -44 103q0 64 41 104q44 43 105 43z" />
    <glyph glyph-name="quoteleftreversed" unicode="&#x201b;" horiz-adv-x="416" 
d="M240 1486q-49 0 -87 -22q-67 -41 -95 -138q-28 -98 -2 -204q30 -118 118 -199q86 -78 199 -102v68q-78 30 -136 94q-61 68 -84 145q-8 30 -9 70q0 39 24 17q33 -19 72 -20q59 -2 102 41q44 44 44 103q0 64 -41 104q-44 43 -105 43z" />
    <glyph glyph-name="quoteright" unicode="&#x2019;" horiz-adv-x="416" 
d="M176 1486q49 0 87 -22q67 -41 95 -138q28 -98 2 -204q-30 -118 -118 -199q-86 -78 -199 -102v68q78 30 136 94q61 68 84 145q8 30 9 70q0 39 -24 17q-33 -19 -72 -20q-59 -2 -102 41q-44 44 -44 103q0 64 41 104q44 43 105 43z" />
    <glyph glyph-name="quoteleft" unicode="&#x2018;" horiz-adv-x="416" 
d="M240 820q-49 0 -87 22q-67 41 -95 138q-28 98 -2 204q30 118 118 199q86 78 199 102v-68q-78 -30 -136 -94q-61 -68 -84 -145q-8 -30 -9 -70q0 -39 24 -17q33 19 72 20q59 2 102 -41q44 -44 44 -103q0 -64 -41 -104q-44 -43 -105 -43z" />
    <glyph glyph-name=".ttfautohint" horiz-adv-x="416" 
d="M0 0z" />
    </font>
</defs>
</svg>
